SplineFontDB: 3.2
FontName: mononoki-fork-Bold
FullName: mononoki fork Bold
FamilyName: mononoki fork
Weight: Bold
Copyright: 
Version: 1.1
ItalicAngle: 0
UnderlinePosition: 0
UnderlineWidth: 0
Ascent: 819
Descent: 205
InvalidEm: 1
UFOAscent: 770
UFODescent: -250
LayerCount: 2
Layer: 0 0 "Back" 1
Layer: 1 0 "Fore" 0
StyleMap: 0x0020
FSType: 0
OS2Version: 0
OS2_WeightWidthSlopeOnly: 0
OS2_UseTypoMetrics: 0
CreationTime: 1593380021
ModificationTime: 1593816784
PfmFamily: 16
TTFWeight: 700
TTFWidth: 5
LineGap: 0
VLineGap: 0
OS2TypoAscent: 0
OS2TypoAOffset: 1
OS2TypoDescent: 0
OS2TypoDOffset: 1
OS2TypoLinegap: 0
OS2WinAscent: 900
OS2WinAOffset: 0
OS2WinDescent: 250
OS2WinDOffset: 0
HheadAscent: 0
HheadAOffset: 1
HheadDescent: 0
HheadDOffset: 1
OS2CapHeight: 720
OS2XHeight: 520
OS2Vendor: 'PfEd'
MarkAttachClasses: 1
DEI: 91125
LangName: 1033 "" "" "" "" "" "" "" "" "" "Matthias Tellen" "" "" "" "" "" "" "mononoki" "Bold"
PickledDataWithLists: "(dp0
VGSDimensionPlugin.Dimensions
p1
(dp2
V8A9476DE-11F4-4864-A7B4-14D9B7165FAE
p3
(dp4
VHV
p5
I240
ssVA14B1AE3-86D5-4EA7-AE2F-7B4FA04DAB2E
p6
(dp7
ssVcom.schriftgestaltung.disablesAutomaticAlignment
p8
I01
sVcom.schriftgestaltung.fontMaster.userData
p9
(dp10
VGSCornerRadius
p11
I25
sVGSOffsetHorizontal
p12
I10
sVGSOffsetVertical
p13
I10
ssVcom.schriftgestaltung.fontMasterID
p14
VFB732A47-0020-4E5B-B7FA-72B1D79E8828
p15
sVcom.schriftgestaltung.glyphOrder
p16
I00
sVcom.schriftgestaltung.useNiceNames
p17
I00
sVcom.schriftgestaltung.weight
p18
VBold
p19
sVcom.schriftgestaltung.weightValue
p20
I200
sVcom.typemytype.robofont.layerOrder
p21
(lp22
Vbackground
p23
asVpublic.glyphOrder
p24
(lp25
VA
p26
aVAacute
p27
aVAbreve
p28
aVAcircumflex
p29
aVAdieresis
p30
aVAgrave
p31
aVAmacron
p32
aVAogonek
p33
aVAring
p34
aVAtilde
p35
aVAE
p36
aVB
p37
aVC
p38
aVCacute
p39
aVCcaron
p40
aVCcedilla
p41
aVCcircumflex
p42
aVD
p43
aVEth
p44
aVDcaron
p45
aVDcroat
p46
aVE
p47
aVEacute
p48
aVEcaron
p49
aVEcircumflex
p50
aVEdieresis
p51
aVEdotaccent
p52

StartChar: A
Encoding: 65 65 0
GlifName: A_
Width: 575
VWidth: 0
Flags: HW
AnchorPoint: "ogonek" 517 10 basechar 0
AnchorPoint: "top" 288 700 basechar 0
LayerCount: 2
Fore
SplineSet
74 0 m 258
 39 0 l 258
 15 0 2 17 7 40 c 258
 155 634 l 258
 171 693 222 730 288 730 c 256
 355 730 405 693 420 633 c 258
 568 41 l 258
 574 18 561 0 537 0 c 258
 501 0 l 258
 482 0 468 10 463 30 c 258
 416 220 l 257
 160 220 l 257
 112 30 l 257
 108 11 94 0 74 0 c 258
259 615 m 257
 184 316 l 257
 392 316 l 257
 317 615 l 257
 315 626 303 634 288 634 c 256
 273 634 261 626 259 615 c 257
EndSplineSet
PickledDataWithLists: "(dp0
Vcom.schriftgestaltung.Glyphs.lastChange
p1
V2016-06-09 18:44:34 +0000
p2
sVcom.typemytype.robofont.layerData
p3
(dp4
VBold Aug 24 14, 22:46
p5
(dp6
Vanchors
p7
(lp8
sVcomponents
p9
(lp10
sVcontours
p11
(lp12
(dp13
Vpoints
p14
(lp15
(dp16
VsegmentType
p17
Vline
p18
sVsmooth
p19
I00
sVx
p20
I91
sVy
p21
I170
sa(dp22
g17
Vline
p23
sg19
I00
sg20
I489
sg21
I170
sa(dp24
g17
Vline
p25
sg19
I00
sg20
I489
sg21
I246
sa(dp26
g17
Vline
p27
sg19
I00
sg20
I91
sg21
I246
sasa(dp28
g14
(lp29
(dp30
g19
I00
sg20
I396
sg21
I679
sa(dp31
g19
I00
sg20
I352
sg21
I710
sa(dp32
g17
Vcurve
p33
sg19
I01
sg20
I288
sg21
I710
sa(dp34
g19
I00
sg20
I223
sg21
I710
sa(dp35
g19
I00
sg20
I180
sg21
I679
sa(dp36
g17
Vcurve
p37
sg19
I01
sg20
I165
sg21
I621
sa(dp38
g17
Vline
p39
sg19
I01
sg20
I17
sg21
I28
sa(dp40
g19
I00
sg20
I13
sg21
I11
sa(dp41
g19
I00
sg20
I21
sg21
I0
sa(dp42
g17
Vcurve
p43
sg19
I01
sg20
I39
sg21
I0
sa(dp44
g17
Vline
p45
sg19
I01
sg20
I124
sg21
I0
sa(dp46
g19
I00
sg20
I139
sg21
I0
sa(dp47
g19
I00
sg20
I150
sg21
I7
sa(dp48
g17
Vcurve
p49
sg19
I01
sg20
I152
sg21
I22
sa(dp50
g17
Vline
p51
sg19
I01
sg20
I249
sg21
I607
sa(dp52
g19
I00
sg20
I252
sg21
I624
sa(dp53
g19
I00
sg20
I267
sg21
I634
sa(dp54
g17
Vcurve
p55
sg19
I01
sg20
I288
sg21
I634
sa(dp56
g19
I00
sg20
I309
sg21
I634
sa(dp57
g19
I00
sg20
I324
sg21
I624
sa(dp58
g17
Vcurve
p59
sg19
I01
sg20
I327
sg21
I607
sa(dp60
g17
Vline
p61
sg19
I01
sg20
I423
sg21
I22
sa(dp62
g19
I00
sg20
I426
sg21
I7
sa(dp63
g19
I00
sg20
I436
sg21
I0
sa(dp64
g17
Vcurve
p65
sg19
I01
sg20
I451
sg21
I0
sa(dp66
g17
Vline
p67
sg19
I01
sg20
I537
sg21
I0
sa(dp68
g19
I00
sg20
I554
sg21
I0
sa(dp69
g19
I00
sg20
I563
sg21
I11
sa(dp70
g17
Vcurve
p71
sg19
I01
sg20
I558
sg21
I28
sa(dp72
g17
Vline
p73
sg19
I01
sg20
I410
sg21
I621
sasasVlib
p74
(dp75
sVname
p76
VA
p77
sVunicodes
p78
(lp79
sVwidth
p80
I575
ssVBold Feb 26 15, 17:46
p81
(dp82
g7
(lp83
(dp84
g76
Vogonek
p85
sg20
I517
sg21
I10
sa(dp86
g76
Vtop
p87
sg20
I288
sg21
I700
sasg9
(lp88
sg11
(lp89
(dp90
g14
(lp91
(dp92
g19
I00
sg20
I396
sg21
I679
sa(dp93
g19
I00
sg20
I352
sg21
I710
sa(dp94
g17
Vcurve
p95
sg19
I01
sg20
I288
sg21
I710
sa(dp96
g19
I00
sg20
I223
sg21
I710
sa(dp97
g19
I00
sg20
I180
sg21
I679
sa(dp98
g17
Vcurve
p99
sg19
I01
sg20
I165
sg21
I621
sa(dp100
g17
Vline
p101
sg19
I01
sg20
I17
sg21
I28
sa(dp102
g19
I00
sg20
I13
sg21
I11
sa(dp103
g19
I00
sg20
I21
sg21
I0
sa(dp104
g17
Vcurve
p105
sg19
I01
sg20
I39
sg21
I0
sa(dp106
g17
Vline
p107
sg19
I01
sg20
I74
sg21
I0
sa(dp108
g19
I00
sg20
I89
sg21
I0
sa(dp109
g19
I00
sg20
I99
sg21
I7
sa(dp110
g17
Vcurve
p111
sg19
I01
sg20
I102
sg21
I22
sa(dp112
g17
Vline
p113
sg19
I01
sg20
I239
sg21
I567
sa(dp114
g19
I00
sg20
I242
sg21
I578
sa(dp115
g19
I00
sg20
I251
sg21
I584
sa(dp116
g17
Vcurve
p117
sg19
I01
sg20
I260
sg21
I584
sa(dp118
g19
I00
sg20
I270
sg21
I584
sa(dp119
g19
I00
sg20
I279
sg21
I578
sa(dp120
g17
Vcurve
p121
sg19
I01
sg20
I282
sg21
I567
sa(dp122
g17
Vline
p123
sg19
I01
sg20
I418
sg21
I22
sa(dp124
g19
I00
sg20
I422
sg21
I7
sa(dp125
g19
I00
sg20
I431
sg21
I0
sa(dp126
g17
Vcurve
p127
sg19
I01
sg20
I446
sg21
I0
sa(dp128
g17
Vline
p129
sg19
I01
sg20
I537
sg21
I0
sa(dp130
g19
I00
sg20
I554
sg21
I0
sa(dp131
g19
I00
sg20
I563
sg21
I11
sa(dp132
g17
Vcurve
p133
sg19
I01
sg20
I558
sg21
I28
sa(dp134
g17
Vline
p135
sg19
I01
sg20
I410
sg21
I621
sasa(dp136
g14
(lp137
(dp138
g17
Vline
p139
sg19
I00
sg20
I131
sg21
I220
sa(dp140
g17
Vline
p141
sg19
I00
sg20
I459
sg21
I220
sa(dp142
g17
Vline
p143
sg19
I00
sg20
I459
sg21
I296
sa(dp144
g17
Vline
p145
sg19
I00
sg20
I131
sg21
I296
sasasg74
(dp146
sg76
g77
sg78
(lp147
sg80
I575
ssVBold Jan 23 14, 22:22
p148
(dp149
g7
(lp150
(dp151
g76
Vogonek
p152
sg20
I518
sg21
I5
sa(dp153
g76
Vtop
p154
sg20
I288
sg21
I700
sasg9
(lp155
sg11
(lp156
(dp157
g14
(lp158
(dp159
g19
I00
sg20
I396
sg21
I679
sa(dp160
g19
I00
sg20
I352
sg21
I710
sa(dp161
g17
Vcurve
p162
sg19
I01
sg20
I288
sg21
I710
sa(dp163
g19
I00
sg20
I223
sg21
I710
sa(dp164
g19
I00
sg20
I180
sg21
I679
sa(dp165
g17
Vcurve
p166
sg19
I01
sg20
I165
sg21
I621
sa(dp167
g17
Vline
p168
sg19
I01
sg20
I17
sg21
I28
sa(dp169
g19
I00
sg20
I13
sg21
I11
sa(dp170
g19
I00
sg20
I21
sg21
I0
sa(dp171
g17
Vcurve
p172
sg19
I01
sg20
I39
sg21
I0
sa(dp173
g17
Vline
p174
sg19
I01
sg20
I159
sg21
I0
sa(dp175
g19
I00
sg20
I174
sg21
I0
sa(dp176
g19
I00
sg20
I186
sg21
I7
sa(dp177
g17
Vcurve
p178
sg19
I01
sg20
I187
sg21
I22
sa(dp179
g17
Vline
p180
sg19
I01
sg20
I249
sg21
I607
sa(dp181
g19
I00
sg20
I251
sg21
I624
sa(dp182
g19
I00
sg20
I267
sg21
I634
sa(dp183
g17
Vcurve
p184
sg19
I01
sg20
I288
sg21
I634
sa(dp185
g19
I00
sg20
I309
sg21
I634
sa(dp186
g19
I00
sg20
I325
sg21
I624
sa(dp187
g17
Vcurve
p188
sg19
I01
sg20
I327
sg21
I607
sa(dp189
g17
Vline
p190
sg19
I01
sg20
I388
sg21
I22
sa(dp191
g19
I00
sg20
I390
sg21
I7
sa(dp192
g19
I00
sg20
I401
sg21
I0
sa(dp193
g17
Vcurve
p194
sg19
I01
sg20
I416
sg21
I0
sa(dp195
g17
Vline
p196
sg19
I01
sg20
I537
sg21
I0
sa(dp197
g19
I00
sg20
I554
sg21
I0
sa(dp198
g19
I00
sg20
I563
sg21
I11
sa(dp199
g17
Vcurve
p200
sg19
I01
sg20
I558
sg21
I28
sa(dp201
g17
Vline
p202
sg19
I01
sg20
I410
sg21
I621
sasa(dp203
g14
(lp204
(dp205
g17
Vline
p206
sg19
I00
sg20
I91
sg21
I170
sa(dp207
g17
Vline
p208
sg19
I00
sg20
I489
sg21
I170
sa(dp209
g17
Vline
p210
sg19
I00
sg20
I489
sg21
I246
sa(dp211
g17
Vline
p212
sg19
I00
sg20
I91
sg21
I246
sasasg74
(dp213
sg76
g77
sg78
(lp214
sg80
I575
sss."
EndChar

StartChar: A.hex
Encoding: 65537 -1 1
GlifName: A_.hex
Width: 575
VWidth: 0
Flags: HW
LayerCount: 2
Fore
SplineSet
114 875 m 258
 114 829 l 258
 114 812 105 804 89 804 c 258
 54 804 l 258
 37 804 29 813 29 829 c 258
 29 875 l 258
 29 891 38 900 54 900 c 258
 89 900 l 258
 105 900 114 891 114 875 c 258
402 875 m 258
 402 829 l 258
 402 812 393 804 377 804 c 258
 342 804 l 258
 325 804 317 813 317 829 c 258
 317 875 l 258
 317 891 326 900 342 900 c 258
 377 900 l 258
 393 900 402 891 402 875 c 258
EndSplineSet
Refer: 0 65 N 1 0 0 1 0 0 2
PickledDataWithLists: "(dp0
Vcom.schriftgestaltung.Glyphs.lastChange
p1
V2016-06-09 18:35:33 +0000
p2
s."
EndChar

StartChar: AE
Encoding: 198 198 2
GlifName: A_E_
Width: 575
VWidth: 0
Flags: HW
LayerCount: 2
Fore
SplineSet
383 97 m 257
 493 97 l 257
 515 97 528 84 528 62 c 257
 528 35 l 257
 528 13 515 0 493 0 c 257
 313 0 l 257
 292 0 278 14 278 35 c 257
 278 170 l 257
 147 170 l 257
 112 30 l 257
 108 11 94 0 74 0 c 257
 39 0 l 257
 15 0 2 17 7 40 c 257
 155 634 l 257
 170 692 214 720 288 720 c 257
 482 720 l 257
 504 720 517 707 517 685 c 257
 517 659 l 257
 517 637 504 624 482 624 c 257
 383 624 l 257
 383 423 l 257
 475 423 l 257
 496 423 510 409 510 388 c 257
 510 361 l 257
 510 340 496 326 475 326 c 257
 383 326 l 257
 383 97 l 257
278 266 m 257
 278 633 l 257
 268 631 261 625 259 615 c 257
 171 266 l 257
 278 266 l 257
EndSplineSet
PickledDataWithLists: "(dp0
Vcom.schriftgestaltung.Glyphs.lastChange
p1
V2016-06-09 18:35:33 +0000
p2
s."
EndChar

StartChar: B
Encoding: 66 66 13
GlifName: B_
Width: 575
VWidth: 0
Flags: HW
LayerCount: 2
Fore
SplineSet
92 35 m 258
 92 624 l 257
 64 624 l 258
 42 624 29 637 29 659 c 258
 29 685 l 258
 29 707 42 720 64 720 c 258
 244 720 l 258
 386 720 483 643 483 531 c 256
 483 473 452 415 394 382 c 257
 477 348 523 281 523 206 c 256
 523 88 414 0 264 0 c 258
 127 0 l 258
 106 0 92 14 92 35 c 258
197 624 m 257
 197 423 l 257
 244 423 l 258
 331 423 388 462 388 521 c 256
 388 582 331 624 244 624 c 258
 197 624 l 257
197 97 m 257
 264 97 l 258
 360 97 427 144 427 211 c 256
 427 278 360 326 264 326 c 258
 197 326 l 257
 197 97 l 257
EndSplineSet
PickledDataWithLists: "(dp0
Vcom.schriftgestaltung.Glyphs.lastChange
p1
V2016-06-09 18:35:33 +0000
p2
sVcom.typemytype.robofont.layerData
p3
(dp4
VBold Mar 1 15, 13:25
p5
(dp6
Vanchors
p7
(lp8
sVcomponents
p9
(lp10
sVcontours
p11
(lp12
(dp13
Vpoints
p14
(lp15
(dp16
VsegmentType
p17
Vline
p18
sVsmooth
p19
I00
sVx
p20
I102
sVy
p21
I25
sa(dp22
g19
I00
sg20
I102
sg21
I9
sa(dp23
g19
I00
sg20
I111
sg21
I0
sa(dp24
g17
Vcurve
p25
sg19
I01
sg20
I127
sg21
I0
sa(dp26
g17
Vline
p27
sg19
I01
sg20
I264
sg21
I0
sa(dp28
g19
I00
sg20
I403
sg21
I0
sa(dp29
g19
I00
sg20
I513
sg21
I53
sa(dp30
g17
Vcurve
p31
sg19
I01
sg20
I513
sg21
I192
sa(dp32
g19
I00
sg20
I514
sg21
I271
sa(dp33
g19
I00
sg20
I464
sg21
I342
sa(dp34
g17
Vcurve
p35
sg19
I00
sg20
I382
sg21
I370
sa(dp36
g19
I00
sg20
I430
sg21
I395
sa(dp37
g19
I00
sg20
I473
sg21
I447
sa(dp38
g17
Vcurve
p39
sg19
I01
sg20
I473
sg21
I521
sa(dp40
g19
I00
sg20
I473
sg21
I649
sa(dp41
g19
I00
sg20
I376
sg21
I700
sa(dp42
g17
Vcurve
p43
sg19
I01
sg20
I244
sg21
I700
sa(dp44
g17
Vline
p45
sg19
I00
sg20
I64
sg21
I700
sa(dp46
g19
I00
sg20
I47
sg21
I700
sa(dp47
g19
I00
sg20
I39
sg21
I691
sa(dp48
g17
Vcurve
p49
sg19
I01
sg20
I39
sg21
I675
sa(dp50
g17
Vline
p51
sg19
I01
sg20
I39
sg21
I649
sa(dp52
g19
I00
sg20
I39
sg21
I633
sa(dp53
g19
I00
sg20
I47
sg21
I624
sa(dp54
g17
Vcurve
p55
sg19
I01
sg20
I64
sg21
I624
sa(dp56
g17
Vline
p57
sg19
I00
sg20
I102
sg21
I624
sasa(dp58
g14
(lp59
(dp60
g17
Vline
p61
sg19
I00
sg20
I237
sg21
I624
sa(dp62
g17
Vline
p63
sg19
I01
sg20
I244
sg21
I624
sa(dp64
g19
I00
sg20
I313
sg21
I624
sa(dp65
g19
I00
sg20
I348
sg21
I591
sa(dp66
g17
Vcurve
p67
sg19
I01
sg20
I348
sg21
I513
sa(dp68
g19
I00
sg20
I348
sg21
I440
sa(dp69
g19
I00
sg20
I318
sg21
I403
sa(dp70
g17
Vcurve
p71
sg19
I01
sg20
I244
sg21
I403
sa(dp72
g17
Vline
p73
sg19
I00
sg20
I237
sg21
I403
sasa(dp74
g14
(lp75
(dp76
g17
Vline
p77
sg19
I00
sg20
I237
sg21
I77
sa(dp78
g17
Vline
p79
sg19
I00
sg20
I237
sg21
I326
sa(dp80
g17
Vline
p81
sg19
I01
sg20
I264
sg21
I326
sa(dp82
g19
I00
sg20
I340
sg21
I326
sa(dp83
g19
I00
sg20
I387
sg21
I277
sa(dp84
g17
Vcurve
p85
sg19
I01
sg20
I387
sg21
I197
sa(dp86
g19
I00
sg20
I387
sg21
I117
sa(dp87
g19
I00
sg20
I345
sg21
I77
sa(dp88
g17
Vcurve
p89
sg19
I01
sg20
I264
sg21
I77
sasasVlib
p90
(dp91
sVname
p92
VB
p93
sVunicodes
p94
(lp95
sVwidth
p96
I575
sss."
EndChar

StartChar: B.hex
Encoding: 65538 -1 14
GlifName: B_.hex
Width: 575
VWidth: 0
Flags: HW
LayerCount: 2
Fore
SplineSet
114 875 m 258
 114 829 l 258
 114 812 105 804 89 804 c 258
 54 804 l 258
 37 804 29 813 29 829 c 258
 29 875 l 258
 29 891 38 900 54 900 c 258
 89 900 l 258
 105 900 114 891 114 875 c 258
402 875 m 258
 402 829 l 258
 402 812 393 804 377 804 c 258
 342 804 l 258
 325 804 317 813 317 829 c 258
 317 875 l 258
 317 891 326 900 342 900 c 258
 377 900 l 258
 393 900 402 891 402 875 c 258
546 875 m 258
 546 829 l 258
 546 812 537 804 521 804 c 258
 486 804 l 258
 469 804 461 813 461 829 c 258
 461 875 l 258
 461 891 470 900 486 900 c 258
 521 900 l 258
 537 900 546 891 546 875 c 258
EndSplineSet
Refer: 13 66 N 1 0 0 1 0 0 2
PickledDataWithLists: "(dp0
Vcom.schriftgestaltung.Glyphs.lastChange
p1
V2016-06-09 18:35:33 +0000
p2
s."
EndChar

StartChar: C
Encoding: 67 67 16
GlifName: C_
Width: 575
VWidth: 0
Flags: HW
AnchorPoint: "top" 338 700 basechar 0
AnchorPoint: "bottom" 288 0 basechar 0
LayerCount: 2
Fore
SplineSet
445 100 m 256
 465 108 482 101 490 81 c 258
 500 57 l 258
 508 36 501 19 482 11 c 256
 434 -10 387 -20 340 -20 c 256
 174 -20 75 102 75 310 c 258
 75 400 l 258
 75 608 174 730 340 730 c 256
 387 730 434 720 482 699 c 256
 501 691 508 674 500 653 c 258
 490 629 l 258
 482 609 465 602 446 610 c 256
 404 625 369 632 338 632 c 256
 235 632 181 552 181 400 c 258
 181 310 l 258
 181 158 235 78 338 78 c 256
 369 78 404 85 445 100 c 256
  PathStart: -2
EndSplineSet
PickledDataWithLists: "(dp0
Vcom.schriftgestaltung.Glyphs.lastChange
p1
V2016-06-09 18:35:33 +0000
p2
s."
EndChar

StartChar: C.hex
Encoding: 65539 -1 17
GlifName: C_.hex
Width: 575
VWidth: 0
Flags: HW
LayerCount: 2
Fore
SplineSet
114 875 m 258
 114 829 l 258
 114 812 105 804 89 804 c 258
 54 804 l 258
 37 804 29 813 29 829 c 258
 29 875 l 258
 29 891 38 900 54 900 c 258
 89 900 l 258
 105 900 114 891 114 875 c 258
258 875 m 258
 258 829 l 258
 258 812 249 804 233 804 c 258
 198 804 l 258
 181 804 173 813 173 829 c 258
 173 875 l 258
 173 891 182 900 198 900 c 258
 233 900 l 258
 249 900 258 891 258 875 c 258
EndSplineSet
Refer: 16 67 N 1 0 0 1 0 0 2
PickledDataWithLists: "(dp0
Vcom.schriftgestaltung.Glyphs.lastChange
p1
V2016-06-09 18:35:33 +0000
p2
s."
EndChar

StartChar: D
Encoding: 68 68 23
GlifName: D_
Width: 575
VWidth: 0
Flags: HW
AnchorPoint: "center" 288 350 basechar 0
AnchorPoint: "top" 288 700 basechar 0
LayerCount: 2
Fore
SplineSet
64 720 m 257
 144 720 l 257
 396 720 527 647 527 390 c 257
 527 330 l 257
 527 108 439 0 183 0 c 257
 127 0 l 257
 107 0 92 15 92 35 c 257
 92 624 l 257
 64 624 l 257
 43 624 29 639 29 659 c 257
 29 685 l 257
 29 705 43 720 64 720 c 257
422 330 m 257
 422 390 l 257
 422 537 362 615 197 623 c 257
 197 97 l 257
 357 100 422 167 422 330 c 257
EndSplineSet
PickledDataWithLists: "(dp0
Vcom.schriftgestaltung.Glyphs.lastChange
p1
V2016-06-09 18:46:00 +0000
p2
s."
EndChar

StartChar: D.hex
Encoding: 65540 -1 24
GlifName: D_.hex
Width: 575
VWidth: 0
Flags: HW
LayerCount: 2
Fore
SplineSet
114 875 m 258
 114 829 l 258
 114 812 105 804 89 804 c 258
 54 804 l 258
 37 804 29 813 29 829 c 258
 29 875 l 258
 29 891 38 900 54 900 c 258
 89 900 l 258
 105 900 114 891 114 875 c 258
258 875 m 258
 258 829 l 258
 258 812 249 804 233 804 c 258
 198 804 l 258
 181 804 173 813 173 829 c 258
 173 875 l 258
 173 891 182 900 198 900 c 258
 233 900 l 258
 249 900 258 891 258 875 c 258
546 875 m 258
 546 829 l 258
 546 812 537 804 521 804 c 258
 486 804 l 258
 469 804 461 813 461 829 c 258
 461 875 l 258
 461 891 470 900 486 900 c 258
 521 900 l 258
 537 900 546 891 546 875 c 258
EndSplineSet
Refer: 23 68 N 1 0 0 1 0 0 2
PickledDataWithLists: "(dp0
Vcom.schriftgestaltung.Glyphs.lastChange
p1
V2016-06-09 18:35:33 +0000
p2
s."
EndChar

StartChar: E
Encoding: 69 69 27
GlifName: E_
Width: 575
VWidth: 0
Flags: HW
AnchorPoint: "ogonek" 518 5 basechar 0
AnchorPoint: "bottom" 288 0 basechar 0
AnchorPoint: "top" 288 700 basechar 0
LayerCount: 2
Fore
SplineSet
180 97 m 257
 491 97 l 257
 511 97 526 82 526 62 c 257
 526 35 l 257
 526 15 511 0 491 0 c 257
 110 0 l 257
 90 0 75 15 75 35 c 257
 75 685 l 257
 75 705 90 720 110 720 c 257
 469 720 l 257
 489 720 504 706 504 685 c 257
 504 659 l 257
 504 638 489 624 469 624 c 257
 180 624 l 257
 180 423 l 257
 448 423 l 257
 468 423 483 408 483 388 c 257
 483 361 l 257
 483 341 468 326 448 326 c 257
 180 326 l 257
 180 97 l 257
EndSplineSet
PickledDataWithLists: "(dp0
Vcom.schriftgestaltung.Glyphs.lastChange
p1
V2016-06-09 18:35:33 +0000
p2
sVcom.typemytype.robofont.layerData
p3
(dp4
VBold Jan 23 14, 22:24
p5
(dp6
Vanchors
p7
(lp8
(dp9
Vname
p10
Vogonek
p11
sVx
p12
I518
sVy
p13
I5
sa(dp14
g10
Vbottom
p15
sg12
I288
sg13
I0
sa(dp16
g10
Vtop
p17
sg12
I288
sg13
I700
sasVcomponents
p18
(lp19
sVcontours
p20
(lp21
(dp22
Vpoints
p23
(lp24
(dp25
VsegmentType
p26
Vline
p27
sVsmooth
p28
I00
sg12
I255
sg13
I77
sa(dp29
g26
Vline
p30
sg28
I00
sg12
I255
sg13
I326
sa(dp31
g26
Vline
p32
sg28
I01
sg12
I448
sg13
I326
sa(dp33
g28
I00
sg12
I464
sg13
I326
sa(dp34
g28
I00
sg12
I473
sg13
I335
sa(dp35
g26
Vcurve
p36
sg28
I01
sg12
I473
sg13
I351
sa(dp37
g26
Vline
p38
sg28
I01
sg12
I473
sg13
I378
sa(dp39
g28
I00
sg12
I473
sg13
I394
sa(dp40
g28
I00
sg12
I464
sg13
I403
sa(dp41
g26
Vcurve
p42
sg28
I01
sg12
I448
sg13
I403
sa(dp43
g26
Vline
p44
sg28
I00
sg12
I255
sg13
I403
sa(dp45
g26
Vline
p46
sg28
I00
sg12
I255
sg13
I624
sa(dp47
g26
Vline
p48
sg28
I01
sg12
I469
sg13
I624
sa(dp49
g28
I00
sg12
I485
sg13
I624
sa(dp50
g28
I00
sg12
I494
sg13
I632
sa(dp51
g26
Vcurve
p52
sg28
I01
sg12
I494
sg13
I649
sa(dp53
g26
Vline
p54
sg28
I01
sg12
I494
sg13
I675
sa(dp55
g28
I00
sg12
I494
sg13
I692
sa(dp56
g28
I00
sg12
I485
sg13
I700
sa(dp57
g26
Vcurve
p58
sg28
I01
sg12
I469
sg13
I700
sa(dp59
g26
Vline
p60
sg28
I01
sg12
I110
sg13
I700
sa(dp61
g28
I00
sg12
I94
sg13
I700
sa(dp62
g28
I00
sg12
I85
sg13
I691
sa(dp63
g26
Vcurve
p64
sg28
I01
sg12
I85
sg13
I675
sa(dp65
g26
Vline
p66
sg28
I01
sg12
I85
sg13
I25
sa(dp67
g28
I00
sg12
I85
sg13
I9
sa(dp68
g28
I00
sg12
I94
sg13
I0
sa(dp69
g26
Vcurve
p70
sg28
I01
sg12
I110
sg13
I0
sa(dp71
g26
Vline
p72
sg28
I01
sg12
I491
sg13
I0
sa(dp73
g28
I00
sg12
I507
sg13
I0
sa(dp74
g28
I00
sg12
I516
sg13
I9
sa(dp75
g26
Vcurve
p76
sg28
I01
sg12
I516
sg13
I25
sa(dp77
g26
Vline
p78
sg28
I01
sg12
I516
sg13
I52
sa(dp79
g28
I00
sg12
I516
sg13
I68
sa(dp80
g28
I00
sg12
I507
sg13
I77
sa(dp81
g26
Vcurve
p82
sg28
I01
sg12
I491
sg13
I77
sasasVlib
p83
(dp84
sg10
VE
p85
sVunicodes
p86
(lp87
sVwidth
p88
I575
sss."
EndChar

StartChar: E.hex
Encoding: 65541 -1 28
GlifName: E_.hex
Width: 575
VWidth: 0
Flags: HW
LayerCount: 2
Fore
SplineSet
114 875 m 258
 114 829 l 258
 114 812 105 804 89 804 c 258
 54 804 l 258
 37 804 29 813 29 829 c 258
 29 875 l 258
 29 891 38 900 54 900 c 258
 89 900 l 258
 105 900 114 891 114 875 c 258
258 875 m 258
 258 829 l 258
 258 812 249 804 233 804 c 258
 198 804 l 258
 181 804 173 813 173 829 c 258
 173 875 l 258
 173 891 182 900 198 900 c 258
 233 900 l 258
 249 900 258 891 258 875 c 258
402 875 m 258
 402 829 l 258
 402 812 393 804 377 804 c 258
 342 804 l 258
 325 804 317 813 317 829 c 258
 317 875 l 258
 317 891 326 900 342 900 c 258
 377 900 l 258
 393 900 402 891 402 875 c 258
EndSplineSet
Refer: 27 69 N 1 0 0 1 0 0 2
PickledDataWithLists: "(dp0
Vcom.schriftgestaltung.Glyphs.lastChange
p1
V2016-06-09 18:35:33 +0000
p2
s."
EndChar

StartChar: Eth
Encoding: 208 208 39
GlifName: E_th
Width: 575
VWidth: 0
Flags: HW
LayerCount: 2
Fore
SplineSet
42 337 m 258
 42 363 l 258
 42 380 51 389 67 389 c 258
 290 389 l 258
 306 389 315 380 315 364 c 258
 315 337 l 258
 315 321 306 312 290 312 c 258
 67 312 l 258
 51 312 42 321 42 337 c 258
EndSplineSet
Refer: 23 68 N 1 0 0 1 0 0 2
PickledDataWithLists: "(dp0
Vcom.schriftgestaltung.Glyphs.lastChange
p1
V2016-06-09 18:35:33 +0000
p2
s."
EndChar

StartChar: Euro
Encoding: 8364 8364 40
GlifName: E_uro
Width: 575
VWidth: 0
Flags: HW
LayerCount: 2
Fore
SplineSet
448 385 m 258
 68 385 l 258
 48 385 33 400 33 420 c 258
 33 441 l 258
 33 462 48 476 68 476 c 258
 77 476 l 257
 86 593 132 730 351 730 c 256
 384 730 439 728 501 717 c 256
 522 713 533 696 529 676 c 258
 523 648 l 257
 518 630 501 618 481 622 c 256
 425 632 376 634 351 634 c 256
 219 634 189 565 182 476 c 257
 448 476 l 258
 468 476 483 462 483 441 c 258
 483 420 l 258
 483 400 468 385 448 385 c 258
481 98 m 256
 501 102 518 91 523 71 c 258
 529 45 l 257
 532 25 522 7 501 3 c 256
 436 -9 382 -10 351 -10 c 256
 131 -10 86 130 77 244 c 257
 68 244 l 258
 48 244 33 259 33 279 c 258
 33 300 l 258
 33 321 48 335 68 335 c 258
 448 335 l 258
 468 335 483 321 483 300 c 258
 483 279 l 258
 483 259 468 244 448 244 c 258
 183 244 l 257
 194 130 240 87 351 87 c 256
 379 87 427 89 481 98 c 256
  PathStart: -2
EndSplineSet
PickledDataWithLists: "(dp0
Vcom.schriftgestaltung.Glyphs.lastChange
p1
V2015-12-22 14:04:06 +0000
p2
s."
EndChar

StartChar: F
Encoding: 70 70 41
GlifName: F_
Width: 575
VWidth: 0
Flags: HW
LayerCount: 2
Fore
SplineSet
110 720 m 257
 491 720 l 257
 511 720 526 706 526 685 c 257
 526 659 l 257
 526 638 511 624 491 624 c 257
 180 624 l 257
 180 388 l 257
 469 388 l 257
 489 388 504 373 504 353 c 257
 504 326 l 257
 504 306 489 292 469 292 c 257
 180 292 l 257
 180 35 l 257
 180 15 166 0 145 0 c 257
 110 0 l 257
 90 0 75 15 75 35 c 257
 75 685 l 257
 75 705 90 720 110 720 c 257
EndSplineSet
PickledDataWithLists: "(dp0
Vcom.schriftgestaltung.Glyphs.lastChange
p1
V2016-06-09 18:35:33 +0000
p2
s."
EndChar

StartChar: F.hex
Encoding: 65542 -1 42
GlifName: F_.hex
Width: 575
VWidth: 0
Flags: HW
LayerCount: 2
Fore
SplineSet
114 875 m 258
 114 829 l 258
 114 812 105 804 89 804 c 258
 54 804 l 258
 37 804 29 813 29 829 c 258
 29 875 l 258
 29 891 38 900 54 900 c 258
 89 900 l 258
 105 900 114 891 114 875 c 258
258 875 m 258
 258 829 l 258
 258 812 249 804 233 804 c 258
 198 804 l 258
 181 804 173 813 173 829 c 258
 173 875 l 258
 173 891 182 900 198 900 c 258
 233 900 l 258
 249 900 258 891 258 875 c 258
402 875 m 258
 402 829 l 258
 402 812 393 804 377 804 c 258
 342 804 l 258
 325 804 317 813 317 829 c 258
 317 875 l 258
 317 891 326 900 342 900 c 258
 377 900 l 258
 393 900 402 891 402 875 c 258
546 875 m 258
 546 829 l 258
 546 812 537 804 521 804 c 258
 486 804 l 258
 469 804 461 813 461 829 c 258
 461 875 l 258
 461 891 470 900 486 900 c 258
 521 900 l 258
 537 900 546 891 546 875 c 258
EndSplineSet
Refer: 41 70 N 1 0 0 1 0 0 2
PickledDataWithLists: "(dp0
Vcom.schriftgestaltung.Glyphs.lastChange
p1
V2016-06-09 18:35:33 +0000
p2
s."
EndChar

StartChar: G
Encoding: 71 71 43
GlifName: G_
Width: 575
VWidth: 0
Flags: HW
AnchorPoint: "top" 288 700 basechar 0
AnchorPoint: "bottom" 288 0 basechar 0
LayerCount: 2
Fore
SplineSet
343 409 m 258
 475 409 l 258
 496 409 510 395 510 374 c 258
 510 51 l 258
 510 33 501 19 485 12 c 256
 436 -9 387 -20 340 -20 c 256
 174 -20 75 102 75 310 c 258
 75 400 l 258
 75 608 174 730 340 730 c 256
 387 730 434 720 482 699 c 256
 501 691 508 674 500 653 c 258
 490 629 l 258
 482 609 465 602 446 610 c 256
 404 625 369 632 338 632 c 256
 235 632 181 552 181 400 c 258
 181 310 l 258
 181 158 235 78 338 78 c 256
 358 78 380 81 405 88 c 257
 405 312 l 257
 343 312 l 258
 321 312 308 325 308 347 c 258
 308 373 l 258
 308 395 321 409 343 409 c 258
EndSplineSet
PickledDataWithLists: "(dp0
Vcom.schriftgestaltung.Glyphs.lastChange
p1
V2016-06-09 18:35:33 +0000
p2
s."
EndChar

StartChar: Gamma
Encoding: 915 915 44
GlifName: G_amma
Width: 575
VWidth: 0
Flags: HW
LayerCount: 2
Fore
SplineSet
95 720 m 258
 480 720 l 258
 502 720 515 707 515 685 c 258
 515 659 l 258
 515 637 502 624 480 624 c 258
 165 624 l 257
 165 35 l 258
 165 13 152 0 130 0 c 258
 95 0 l 258
 74 0 60 14 60 35 c 258
 60 685 l 258
 60 707 73 720 95 720 c 258
EndSplineSet
PickledDataWithLists: "(dp0
Vcom.schriftgestaltung.Glyphs.lastChange
p1
V2015-12-22 16:32:37 +0000
p2
s."
EndChar

StartChar: H
Encoding: 72 72 46
GlifName: H_
Width: 575
VWidth: 0
Flags: HW
AnchorPoint: "bottom" 288 0 basechar 0
AnchorPoint: "top" 288 700 basechar 0
AnchorPoint: "topleft" 20 720 basechar 0
AnchorPoint: "center" 288 350 basechar 0
LayerCount: 2
Fore
SplineSet
447 720 m 257
 482 720 l 257
 502 720 517 706 517 685 c 257
 517 35 l 257
 517 15 503 0 482 0 c 257
 447 0 l 257
 427 0 412 15 412 35 c 257
 412 333 l 257
 163 333 l 257
 163 35 l 257
 163 15 149 0 128 0 c 257
 93 0 l 257
 73 0 58 15 58 35 c 257
 58 685 l 257
 58 705 73 720 93 720 c 257
 128 720 l 257
 149 720 163 706 163 685 c 257
 163 430 l 257
 412 430 l 257
 412 685 l 257
 412 706 427 720 447 720 c 257
EndSplineSet
PickledDataWithLists: "(dp0
Vcom.schriftgestaltung.Glyphs.lastChange
p1
V2016-06-09 18:35:33 +0000
p2
s."
EndChar

StartChar: I
Encoding: 73 73 48
GlifName: I_
Width: 575
VWidth: 0
Flags: HW
AnchorPoint: "ogonek" 518 5 basechar 0
AnchorPoint: "top" 288 700 basechar 0
AnchorPoint: "topleft" 20 720 basechar 0
AnchorPoint: "bottom" 288 0 basechar 0
LayerCount: 2
Fore
SplineSet
120 720 m 257
 455 720 l 257
 475 720 490 706 490 685 c 257
 490 659 l 257
 490 638 475 624 455 624 c 257
 340 624 l 257
 340 97 l 257
 465 97 l 257
 486 97 500 82 500 62 c 257
 500 35 l 257
 500 15 486 0 465 0 c 257
 110 0 l 257
 90 0 75 15 75 35 c 257
 75 62 l 257
 75 82 90 97 110 97 c 257
 235 97 l 257
 235 624 l 257
 120 624 l 257
 100 624 85 639 85 659 c 257
 85 685 l 257
 85 706 100 720 120 720 c 257
EndSplineSet
PickledDataWithLists: "(dp0
Vcom.schriftgestaltung.Glyphs.lastChange
p1
V2016-06-09 18:35:33 +0000
p2
s."
EndChar

StartChar: IJ
Encoding: 306 306 49
GlifName: I_J_
Width: 575
VWidth: 0
Flags: HW
LayerCount: 2
Fore
SplineSet
90 720 m 257
 225 720 l 257
 245 720 260 706 260 685 c 257
 260 659 l 257
 260 638 245 624 225 624 c 257
 210 624 l 257
 210 97 l 257
 235 97 l 257
 256 97 270 82 270 62 c 257
 270 35 l 257
 270 15 256 0 235 0 c 257
 80 0 l 257
 60 0 45 15 45 35 c 257
 45 62 l 257
 45 82 60 97 80 97 c 257
 105 97 l 257
 105 624 l 257
 90 624 l 257
 70 624 55 639 55 659 c 257
 55 685 l 257
 55 706 70 720 90 720 c 257
352 720 m 257
 465 720 l 257
 486 720 500 706 500 685 c 257
 500 135 l 257
 500 27 439 1 341 1 c 257
 320 1 305 15 305 35 c 257
 305 62 l 257
 305 82 320 97 340 97 c 257
 375 97 395 103 395 135 c 257
 395 624 l 257
 352 624 l 257
 332 624 317 638 317 659 c 257
 317 685 l 257
 317 705 332 720 352 720 c 257
EndSplineSet
PickledDataWithLists: "(dp0
Vcom.schriftgestaltung.Glyphs.lastChange
p1
V2016-06-09 18:35:33 +0000
p2
s."
EndChar

StartChar: J
Encoding: 74 74 57
GlifName: J_
Width: 575
VWidth: 0
Flags: HW
AnchorPoint: "top" 288 700 basechar 0
LayerCount: 2
Fore
SplineSet
185 720 m 257
 465 720 l 257
 485 720 500 705 500 685 c 257
 500 280 l 257
 500 64 376 -10 247 -10 c 257
 195 -10 141 0 93 21 c 257
 74 28 67 48 75 67 c 257
 85 91 l 257
 92 109 111 118 129 110 c 257
 173 95 207 88 247 88 c 257
 331 88 394 131 394 280 c 257
 394 622 l 257
 185 622 l 257
 165 622 150 637 150 657 c 257
 150 685 l 257
 150 705 165 720 185 720 c 257
EndSplineSet
PickledDataWithLists: "(dp0
Vcom.schriftgestaltung.Glyphs.lastChange
p1
V2016-06-09 18:35:33 +0000
p2
s."
EndChar

StartChar: K
Encoding: 75 75 59
GlifName: K_
Width: 575
VWidth: 0
Flags: HW
AnchorPoint: "top" 150 700 basechar 0
AnchorPoint: "bottom" 150 0 basechar 0
LayerCount: 2
Fore
SplineSet
275 370 m 257
 518 47 l 258
 535 25 522 0 495 0 c 258
 443 0 l 258
 427 0 413 7 405 20 c 257
 186 323 l 257
 180 323 l 257
 180 35 l 258
 180 15 166 0 145 0 c 258
 110 0 l 258
 90 0 75 15 75 35 c 258
 75 685 l 258
 75 705 90 720 110 720 c 258
 145 720 l 258
 166 720 180 706 180 685 c 258
 180 419 l 257
 187 419 l 257
 389 701 l 258
 398 714 412 720 427 720 c 258
 480 720 l 258
 507 720 520 696 503 674 c 258
 275 370 l 257
EndSplineSet
PickledDataWithLists: "(dp0
Vcom.schriftgestaltung.Glyphs.lastChange
p1
V2016-06-09 18:35:33 +0000
p2
s."
EndChar

StartChar: L
Encoding: 76 76 61
GlifName: L_
Width: 575
VWidth: 0
Flags: HW
AnchorPoint: "top" 288 700 basechar 0
AnchorPoint: "bottom" 288 0 basechar 0
LayerCount: 2
Fore
SplineSet
180 97 m 257
 529 97 l 257
 549 97 564 82 564 62 c 257
 564 35 l 257
 564 15 549 0 529 0 c 257
 110 0 l 257
 90 0 75 15 75 35 c 257
 75 685 l 257
 75 705 90 720 110 720 c 257
 145 720 l 257
 166 720 180 706 180 685 c 257
 180 97 l 257
EndSplineSet
PickledDataWithLists: "(dp0
Vcom.schriftgestaltung.Glyphs.lastChange
p1
V2016-06-09 18:35:33 +0000
p2
sVcom.typemytype.robofont.layerData
p3
(dp4
VBold Nov 25 14, 07:41
p5
(dp6
Vanchors
p7
(lp8
(dp9
Vname
p10
Vtop
p11
sVx
p12
I288
sVy
p13
I700
sa(dp14
g10
Vbottom
p15
sg12
I288
sg13
I0
sasVcomponents
p16
(lp17
sVcontours
p18
(lp19
(dp20
Vpoints
p21
(lp22
(dp23
VsegmentType
p24
Vline
p25
sVsmooth
p26
I00
sg12
I220
sg13
I77
sa(dp27
g24
Vline
p28
sg26
I01
sg12
I220
sg13
I675
sa(dp29
g26
I00
sg12
I220
sg13
I692
sa(dp30
g26
I00
sg12
I212
sg13
I700
sa(dp31
g24
Vcurve
p32
sg26
I01
sg12
I195
sg13
I700
sa(dp33
g24
Vline
p34
sg26
I01
sg12
I110
sg13
I700
sa(dp35
g26
I00
sg12
I94
sg13
I700
sa(dp36
g26
I00
sg12
I85
sg13
I691
sa(dp37
g24
Vcurve
p38
sg26
I01
sg12
I85
sg13
I675
sa(dp39
g24
Vline
p40
sg26
I01
sg12
I85
sg13
I25
sa(dp41
g26
I00
sg12
I85
sg13
I9
sa(dp42
g26
I00
sg12
I94
sg13
I0
sa(dp43
g24
Vcurve
p44
sg26
I01
sg12
I110
sg13
I0
sa(dp45
g24
Vline
p46
sg26
I01
sg12
I529
sg13
I0
sa(dp47
g26
I00
sg12
I545
sg13
I0
sa(dp48
g26
I00
sg12
I554
sg13
I9
sa(dp49
g24
Vcurve
p50
sg26
I01
sg12
I554
sg13
I25
sa(dp51
g24
Vline
p52
sg26
I01
sg12
I554
sg13
I52
sa(dp53
g26
I00
sg12
I554
sg13
I68
sa(dp54
g26
I00
sg12
I545
sg13
I77
sa(dp55
g24
Vcurve
p56
sg26
I01
sg12
I529
sg13
I77
sasasVlib
p57
(dp58
sg10
VL
p59
sVunicodes
p60
(lp61
sVwidth
p62
I575
sss."
EndChar

StartChar: Lambda
Encoding: 923 923 63
GlifName: L_ambda
Width: 575
VWidth: 0
Flags: HW
LayerCount: 2
Fore
SplineSet
288 730 m 256
 357 730 405 695 420 633 c 258
 568 41 l 257
 574 18 561 0 537 0 c 258
 501 0 l 258
 482 0 468 10 463 30 c 258
 317 615 l 258
 314 627 304 634 288 634 c 256
 272 634 262 627 259 615 c 258
 112 30 l 257
 108 11 94 0 74 0 c 258
 39 0 l 258
 15 0 2 17 7 40 c 258
 155 634 l 258
 171 696 219 730 288 730 c 256
  PathStart: -2
EndSplineSet
PickledDataWithLists: "(dp0
Vcom.schriftgestaltung.Glyphs.lastChange
p1
V2015-12-22 12:18:02 +0000
p2
s."
EndChar

StartChar: Lslash
Encoding: 321 321 66
GlifName: L_slash
Width: 575
VWidth: 0
Flags: HW
LayerCount: 2
Fore
SplineSet
19 332 m 258
 258 512 l 258
 269 520 284 517 292 507 c 258
 311 484 l 258
 321 471 319 455 307 446 c 258
 68 267 l 258
 57 259 42 261 34 271 c 258
 14 294 l 258
 4 306 7 323 19 332 c 258
EndSplineSet
Refer: 61 76 N 1 0 0 1 0 0 2
PickledDataWithLists: "(dp0
Vcom.schriftgestaltung.Glyphs.lastChange
p1
V2016-06-09 18:35:33 +0000
p2
s."
EndChar

StartChar: M
Encoding: 77 77 67
GlifName: M_
Width: 575
VWidth: 0
Flags: HW
LayerCount: 2
Fore
SplineSet
498 725 m 258
 521 725 535 712 535 690 c 257
 555 36 l 257
 555 16 539 0 519 0 c 258
 485 0 l 258
 465 0 451 14 450 36 c 258
 433 540 l 257
 340 354 l 258
 333 338 320 330 302 330 c 258
 274 330 l 258
 256 330 243 338 236 354 c 258
 143 540 l 257
 126 35 l 258
 125 14 111 0 91 0 c 258
 57 0 l 258
 37 0 21 16 21 36 c 258
 41 690 l 258
 41 712 55 725 78 725 c 258
 94 725 l 258
 126 725 149 711 162 683 c 258
 288 431 l 257
 414 683 l 258
 427 711 450 725 482 725 c 258
 498 725 l 258
  PathStart: -2
EndSplineSet
PickledDataWithLists: "(dp0
Vcom.schriftgestaltung.Glyphs.lastChange
p1
V2016-06-09 18:35:33 +0000
p2
sVcom.typemytype.robofont.layerData
p3
(dp4
VBold Aug 24 14, 22:49
p5
(dp6
Vanchors
p7
(lp8
sVcomponents
p9
(lp10
sVcontours
p11
(lp12
(dp13
Vpoints
p14
(lp15
(dp16
VsegmentType
p17
Vline
p18
sVsmooth
p19
I01
sVx
p20
I524
sVy
p21
I680
sa(dp22
g19
I00
sg20
I524
sg21
I696
sa(dp23
g19
I00
sg20
I515
sg21
I705
sa(dp24
g17
Vcurve
p25
sg19
I01
sg20
I498
sg21
I705
sa(dp26
g19
I00
sg20
I462
sg21
I705
sa(dp27
g19
I00
sg20
I447
sg21
I700
sa(dp28
g17
Vcurve
p29
sg19
I01
sg20
I432
sg21
I669
sa(dp30
g17
Vline
p31
sg19
I01
sg20
I313
sg21
I430
sa(dp32
g19
I00
sg20
I308
sg21
I419
sa(dp33
g19
I00
sg20
I301
sg21
I409
sa(dp34
g17
Vcurve
p35
sg19
I01
sg20
I288
sg21
I409
sa(dp36
g19
I00
sg20
I275
sg21
I409
sa(dp37
g19
I00
sg20
I268
sg21
I419
sa(dp38
g17
Vcurve
p39
sg19
I01
sg20
I262
sg21
I430
sa(dp40
g17
Vline
p41
sg19
I01
sg20
I144
sg21
I667
sa(dp42
g19
I00
sg20
I129
sg21
I696
sa(dp43
g19
I00
sg20
I115
sg21
I705
sa(dp44
g17
Vcurve
p45
sg19
I01
sg20
I78
sg21
I705
sa(dp46
g19
I00
sg20
I60
sg21
I705
sa(dp47
g19
I00
sg20
I51
sg21
I696
sa(dp48
g17
Vcurve
p49
sg19
I01
sg20
I51
sg21
I680
sa(dp50
g17
Vline
p51
sg19
I01
sg20
I51
sg21
I25
sa(dp52
g19
I00
sg20
I51
sg21
I9
sa(dp53
g19
I00
sg20
I60
sg21
I0
sa(dp54
g17
Vcurve
p55
sg19
I01
sg20
I76
sg21
I0
sa(dp56
g17
Vline
p57
sg19
I01
sg20
I161
sg21
I0
sa(dp58
g19
I00
sg20
I178
sg21
I0
sa(dp59
g19
I00
sg20
I186
sg21
I7
sa(dp60
g17
Vcurve
p61
sg19
I01
sg20
I186
sg21
I20
sa(dp62
g19
I00
sg20
I186
sg21
I289
sa(dp63
g19
I00
sg20
I185
sg21
I407
sa(dp64
g17
Vcurve
p65
sg19
I00
sg20
I182
sg21
I424
sa(dp66
g17
Vline
p67
sg19
I01
sg20
I194
sg21
I400
sa(dp68
g19
I00
sg20
I215
sg21
I357
sa(dp69
g19
I00
sg20
I240
sg21
I321
sa(dp70
g17
Vcurve
p71
sg19
I01
sg20
I288
sg21
I321
sa(dp72
g19
I00
sg20
I336
sg21
I321
sa(dp73
g19
I00
sg20
I361
sg21
I357
sa(dp74
g17
Vcurve
p75
sg19
I01
sg20
I382
sg21
I400
sa(dp76
g17
Vline
p77
sg19
I00
sg20
I394
sg21
I425
sa(dp78
g19
I00
sg20
I391
sg21
I408
sa(dp79
g19
I00
sg20
I389
sg21
I290
sa(dp80
g17
Vcurve
p81
sg19
I01
sg20
I389
sg21
I20
sa(dp82
g19
I00
sg20
I389
sg21
I7
sa(dp83
g19
I00
sg20
I398
sg21
I0
sa(dp84
g17
Vcurve
p85
sg19
I01
sg20
I414
sg21
I0
sa(dp86
g17
Vline
p87
sg19
I01
sg20
I499
sg21
I0
sa(dp88
g19
I00
sg20
I516
sg21
I0
sa(dp89
g19
I00
sg20
I524
sg21
I9
sa(dp90
g17
Vcurve
p91
sg19
I01
sg20
I524
sg21
I25
sasasVlib
p92
(dp93
sVname
p94
VM
p95
sVunicodes
p96
(lp97
sVwidth
p98
I575
sss."
EndChar

StartChar: N
Encoding: 78 78 69
GlifName: N_
Width: 575
VWidth: 0
Flags: HW
AnchorPoint: "top" 288 700 basechar 0
AnchorPoint: "bottom" 288 0 basechar 0
LayerCount: 2
Fore
SplineSet
446 725 m 258
 480 725 l 258
 500 725 516 709 516 689 c 258
 516 35 l 258
 516 13 502 0 479 0 c 258
 463 0 l 258
 432 0 409 13 395 41 c 258
 164 515 l 257
 164 36 l 258
 164 15 149 0 129 0 c 258
 95 0 l 258
 75 0 59 16 59 36 c 258
 59 690 l 258
 59 712 73 725 96 725 c 258
 112 725 l 258
 144 725 166 711 180 683 c 258
 411 201 l 257
 411 689 l 258
 411 710 426 725 446 725 c 258
EndSplineSet
PickledDataWithLists: "(dp0
Vcom.schriftgestaltung.Glyphs.lastChange
p1
V2016-06-09 18:35:33 +0000
p2
sVcom.typemytype.robofont.layerData
p3
(dp4
VBold Aug 24 14, 22:51
p5
(dp6
Vanchors
p7
(lp8
(dp9
Vname
p10
Vtop
p11
sVx
p12
I288
sVy
p13
I700
sa(dp14
g10
Vbottom
p15
sg12
I288
sg13
I0
sasVcomponents
p16
(lp17
sVcontours
p18
(lp19
(dp20
Vpoints
p21
(lp22
(dp23
VsegmentType
p24
Vline
p25
sVsmooth
p26
I01
sg12
I507
sg13
I675
sa(dp27
g26
I00
sg12
I507
sg13
I691
sa(dp28
g26
I00
sg12
I499
sg13
I700
sa(dp29
g24
Vcurve
p30
sg26
I01
sg12
I482
sg13
I700
sa(dp31
g24
Vline
p32
sg26
I01
sg12
I397
sg13
I700
sa(dp33
g26
I00
sg12
I381
sg13
I700
sa(dp34
g26
I00
sg12
I372
sg13
I691
sa(dp35
g24
Vcurve
p36
sg26
I01
sg12
I372
sg13
I675
sa(dp37
g26
I00
sg12
I372
sg13
I443
sa(dp38
g26
I00
sg12
I374
sg13
I323
sa(dp39
g24
Vcurve
p40
sg26
I00
sg12
I377
sg13
I266
sa(dp41
g24
Vline
p42
sg26
I01
sg12
I160
sg13
I658
sa(dp43
g26
I00
sg12
I142
sg13
I692
sa(dp44
g26
I00
sg12
I130
sg13
I705
sa(dp45
g24
Vcurve
p46
sg26
I01
sg12
I88
sg13
I705
sa(dp47
g26
I00
sg12
I75
sg13
I705
sa(dp48
g26
I00
sg12
I68
sg13
I697
sa(dp49
g24
Vcurve
p50
sg26
I01
sg12
I68
sg13
I680
sa(dp51
g24
Vline
p52
sg26
I01
sg12
I68
sg13
I25
sa(dp53
g26
I00
sg12
I68
sg13
I9
sa(dp54
g26
I00
sg12
I77
sg13
I0
sa(dp55
g24
Vcurve
p56
sg26
I01
sg12
I93
sg13
I0
sa(dp57
g24
Vline
p58
sg26
I01
sg12
I178
sg13
I0
sa(dp59
g26
I00
sg12
I194
sg13
I0
sa(dp60
g26
I00
sg12
I203
sg13
I9
sa(dp61
g24
Vcurve
p62
sg26
I01
sg12
I203
sg13
I25
sa(dp63
g26
I00
sg12
I203
sg13
I291
sa(dp64
g26
I00
sg12
I202
sg13
I352
sa(dp65
g24
Vcurve
p66
sg26
I00
sg12
I199
sg13
I422
sa(dp67
g24
Vline
p68
sg26
I01
sg12
I415
sg13
I30
sa(dp69
g26
I00
sg12
I433
sg13
I-2
sa(dp70
g26
I00
sg12
I447
sg13
I-5
sa(dp71
g24
Vcurve
p72
sg26
I01
sg12
I487
sg13
I-5
sa(dp73
g26
I00
sg12
I500
sg13
I-5
sa(dp74
g26
I00
sg12
I507
sg13
I4
sa(dp75
g24
Vcurve
p76
sg26
I01
sg12
I507
sg13
I20
sasasVlib
p77
(dp78
sg10
VN
p79
sVunicodes
p80
(lp81
sVwidth
p82
I575
sss."
EndChar

StartChar: O
Encoding: 79 79 74
GlifName: O_
Width: 575
VWidth: 0
Flags: HW
AnchorPoint: "top" 288 700 basechar 0
LayerCount: 2
Fore
SplineSet
65 253 m 257
 65 467 l 257
 65 617 140 730 288 730 c 257
 437 730 510 615 510 467 c 257
 510 253 l 257
 510 104 435 -10 288 -10 c 257
 138 -10 65 106 65 253 c 257
405 253 m 257
 405 467 l 257
 405 558 372 634 288 634 c 257
 203 634 170 557 170 467 c 257
 170 253 l 257
 170 163 203 87 288 87 c 257
 372 87 405 163 405 253 c 257
EndSplineSet
PickledDataWithLists: "(dp0
Vcom.schriftgestaltung.Glyphs.lastChange
p1
V2016-06-09 18:35:33 +0000
p2
s."
EndChar

StartChar: OE
Encoding: 338 338 75
GlifName: O_E_
Width: 575
VWidth: 0
Flags: HW
LayerCount: 2
Fore
SplineSet
383 97 m 257
 493 97 l 257
 514 97 528 82 528 62 c 257
 528 35 l 257
 528 15 514 0 493 0 c 257
 288 0 l 257
 138 0 75 116 75 263 c 257
 75 457 l 257
 75 607 140 720 288 720 c 257
 482 720 l 257
 502 720 517 706 517 685 c 257
 517 659 l 257
 517 638 502 624 482 624 c 257
 383 624 l 257
 383 423 l 257
 475 423 l 257
 495 423 510 408 510 388 c 257
 510 361 l 257
 510 341 495 326 475 326 c 257
 383 326 l 257
 383 97 l 257
278 97 m 257
 278 624 l 257
 202 618 180 544 180 457 c 257
 180 263 l 257
 180 176 202 103 278 97 c 257
EndSplineSet
PickledDataWithLists: "(dp0
Vcom.schriftgestaltung.Glyphs.lastChange
p1
V2016-06-09 18:35:33 +0000
p2
s."
EndChar

StartChar: P
Encoding: 80 80 85
GlifName: P_
Width: 575
VWidth: 0
Flags: HW
LayerCount: 2
Fore
SplineSet
110 720 m 258
 245 720 l 258
 414 720 527 627 527 490 c 256
 527 352 415 260 245 260 c 258
 180 260 l 257
 180 35 l 258
 180 13 167 0 145 0 c 258
 110 0 l 258
 89 0 75 14 75 35 c 258
 75 685 l 258
 75 706 89 720 110 720 c 258
180 356 m 257
 245 356 l 258
 354 356 422 408 422 490 c 256
 422 571 353 624 245 624 c 258
 180 624 l 257
 180 356 l 257
EndSplineSet
PickledDataWithLists: "(dp0
Vcom.schriftgestaltung.Glyphs.lastChange
p1
V2016-06-09 18:35:33 +0000
p2
s."
EndChar

StartChar: Phi
Encoding: 934 934 86
GlifName: P_hi
Width: 575
VWidth: 0
Flags: HW
LayerCount: 2
Fore
SplineSet
564 659 m 258
 564 638 550 624 529 624 c 258
 340 624 l 257
 340 569 l 257
 465 553 540 475 540 360 c 256
 540 247 465 169 340 151 c 257
 340 96 l 257
 529 96 l 258
 550 96 564 82 564 61 c 258
 564 35 l 258
 564 13 551 0 529 0 c 258
 47 0 l 258
 25 0 12 13 12 35 c 258
 12 61 l 258
 12 83 25 96 46 96 c 258
 235 96 l 257
 235 151 l 257
 111 167 35 246 35 360 c 256
 35 473 110 551 235 568 c 257
 235 624 l 257
 46 624 l 258
 25 624 12 637 12 659 c 258
 12 685 l 258
 12 707 25 720 47 720 c 258
 529 720 l 258
 551 720 564 707 564 685 c 258
 564 659 l 258
  PathStart: -2
235 470 m 257
 174 455 140 416 140 360 c 256
 140 304 175 264 235 250 c 257
 235 470 l 257
  PathStart: -2
340 250 m 257
 401 265 435 304 435 360 c 256
 435 416 400 456 340 470 c 257
 340 250 l 257
  PathStart: -2
EndSplineSet
PickledDataWithLists: "(dp0
Vcom.schriftgestaltung.Glyphs.lastChange
p1
V2015-12-22 12:22:42 +0000
p2
s."
EndChar

StartChar: Pi
Encoding: 928 928 87
GlifName: P_i
Width: 575
VWidth: 0
Flags: HW
LayerCount: 2
Fore
SplineSet
110 720 m 258
 465 720 l 258
 487 720 500 707 500 685 c 258
 500 35 l 258
 500 13 487 0 465 0 c 258
 430 0 l 258
 409 0 395 14 395 35 c 258
 395 624 l 257
 180 624 l 257
 180 35 l 258
 180 13 167 0 145 0 c 258
 110 0 l 258
 89 0 75 14 75 35 c 258
 75 685 l 258
 75 707 88 720 110 720 c 258
EndSplineSet
PickledDataWithLists: "(dp0
Vcom.schriftgestaltung.Glyphs.lastChange
p1
V2015-12-22 12:20:26 +0000
p2
s."
EndChar

StartChar: Psi
Encoding: 936 936 88
GlifName: P_si
Width: 575
VWidth: 0
Flags: HW
LayerCount: 2
Fore
SplineSet
440 710 m 258
 465 710 l 258
 487 710 500 697 500 675 c 258
 500 433 l 258
 500 308 445 243 340 234 c 257
 340 25 l 258
 340 3 327 -10 305 -10 c 258
 270 -10 l 258
 249 -10 235 4 235 25 c 258
 235 234 l 257
 131 243 75 309 75 433 c 258
 75 675 l 258
 75 696 89 710 110 710 c 258
 135 710 l 258
 157 710 170 697 170 675 c 258
 170 433 l 258
 170 373 203 323 245 318 c 257
 245 675 l 258
 245 696 259 710 280 710 c 258
 295 710 l 258
 317 710 330 697 330 675 c 258
 330 318 l 257
 376 325 405 374 405 433 c 258
 405 675 l 258
 405 696 419 710 440 710 c 258
EndSplineSet
PickledDataWithLists: "(dp0
Vcom.schriftgestaltung.Glyphs.lastChange
p1
V2015-12-22 12:24:48 +0000
p2
s."
EndChar

StartChar: Q
Encoding: 81 81 89
GlifName: Q_
Width: 575
VWidth: 0
Flags: HW
LayerCount: 2
Fore
SplineSet
544 -128 m 258
 555 -154 l 258
 563 -173 556 -193 535 -199 c 257
 502 -212 463 -220 427 -220 c 256
 329 -220 235 -163 235 4 c 258
 235 63 l 257
 341 63 l 257
 341 4 l 258
 341 -97 374 -122 427 -122 c 256
 451 -122 472 -118 498 -109 c 257
 517 -101 536 -109 544 -128 c 258
EndSplineSet
Refer: 74 79 N 1 0 0 1 0 0 2
PickledDataWithLists: "(dp0
Vcom.schriftgestaltung.Glyphs.lastChange
p1
V2016-06-09 18:35:33 +0000
p2
s."
EndChar

StartChar: R
Encoding: 82 82 90
GlifName: R_
Width: 575
VWidth: 0
Flags: HW
AnchorPoint: "top" 288 700 basechar 0
AnchorPoint: "bottom" 288 0 basechar 0
LayerCount: 2
Fore
SplineSet
411 341 m 257
 560 44 l 258
 572 20 560 0 533 0 c 258
 491 0 l 258
 474 0 461 8 453 24 c 258
 309 312 l 257
 180 312 l 257
 180 35 l 258
 180 14 166 0 145 0 c 258
 110 0 l 258
 89 0 75 14 75 35 c 258
 75 685 l 258
 75 707 88 720 110 720 c 258
 268 720 l 258
 415 720 510 640 510 516 c 256
 510 442 472 375 411 341 c 257
180 409 m 257
 268 409 l 258
 350 409 405 453 405 516 c 256
 405 580 350 624 268 624 c 258
 180 624 l 257
 180 409 l 257
EndSplineSet
PickledDataWithLists: "(dp0
Vcom.schriftgestaltung.Glyphs.lastChange
p1
V2016-06-09 18:35:33 +0000
p2
s."
EndChar

StartChar: S
Encoding: 83 83 94
GlifName: S_
Width: 575
VWidth: 0
Flags: HW
AnchorPoint: "top" 288 700 basechar 0
AnchorPoint: "bottom" 288 0 basechar 0
LayerCount: 2
Fore
SplineSet
476 659 m 258
 467 632 l 258
 461 611 443 604 424 612 c 256
 382 627 347 634 316 634 c 256
 237 634 178 591 178 534 c 256
 178 481 223 438 294 423 c 256
 439 393 524 312 524 205 c 256
 524 82 405 -10 250 -10 c 256
 198 -10 142 1 97 21 c 256
 78 29 71 46 79 67 c 258
 89 91 l 258
 97 111 114 118 134 110 c 256
 166 97 214 89 255 89 c 256
 351 89 418 135 418 200 c 256
 418 257 369 300 282 318 c 256
 149 346 72 424 72 531 c 256
 72 649 173 730 316 730 c 256
 365 730 421 719 460 702 c 256
 479 693 483 681 476 659 c 258
EndSplineSet
PickledDataWithLists: "(dp0
Vcom.schriftgestaltung.Glyphs.lastChange
p1
V2016-06-09 18:35:33 +0000
p2
s."
EndChar

StartChar: T
Encoding: 84 84 100
GlifName: T_
Width: 575
VWidth: 0
Flags: HW
AnchorPoint: "center" 288 350 basechar 0
AnchorPoint: "bottom" 288 0 basechar 0
AnchorPoint: "top" 288 700 basechar 0
LayerCount: 2
Fore
SplineSet
564 685 m 257
 564 659 l 257
 564 639 549 624 529 624 c 257
 340 624 l 257
 340 35 l 257
 340 15 326 0 305 0 c 257
 270 0 l 257
 250 0 235 15 235 35 c 257
 235 624 l 257
 46 624 l 257
 26 624 12 639 12 659 c 257
 12 685 l 257
 12 705 26 720 47 720 c 257
 529 720 l 257
 549 720 564 706 564 685 c 257
EndSplineSet
PickledDataWithLists: "(dp0
Vcom.schriftgestaltung.Glyphs.lastChange
p1
V2016-06-09 18:35:33 +0000
p2
s."
EndChar

StartChar: Theta
Encoding: 920 920 104
GlifName: T_heta
Width: 575
VWidth: 0
Flags: HW
LayerCount: 2
Fore
SplineSet
246 347 m 258
 246 374 l 258
 246 390 255 399 271 399 c 258
 300 399 l 258
 316 399 325 390 325 374 c 258
 325 347 l 258
 325 331 316 322 300 322 c 258
 271 322 l 258
 255 322 246 331 246 347 c 258
EndSplineSet
Refer: 74 79 N 1 0 0 1 0 0 2
PickledDataWithLists: "(dp0
Vcom.schriftgestaltung.Glyphs.lastChange
p1
V2016-05-30 08:32:14 +0000
p2
s."
EndChar

StartChar: Thorn
Encoding: 222 222 105
GlifName: T_horn
Width: 575
VWidth: 0
Flags: HW
LayerCount: 2
Fore
SplineSet
180 685 m 257
 180 658 l 257
 212 661 239 662 259 662 c 256
 430 662 500 583 500 392 c 256
 500 200 430 121 259 121 c 256
 241 121 213 122 180 125 c 257
 180 35 l 258
 180 14 166 0 145 0 c 258
 110 0 l 258
 89 0 75 14 75 35 c 258
 75 685 l 258
 75 706 89 720 110 720 c 258
 145 720 l 258
 166 720 180 706 180 685 c 257
180 563 m 257
 180 221 l 257
 213 219 241 218 259 218 c 256
 363 218 395 259 395 392 c 256
 395 524 363 565 259 565 c 256
 242 565 214 565 180 563 c 257
EndSplineSet
PickledDataWithLists: "(dp0
Vcom.schriftgestaltung.Glyphs.lastChange
p1
V2016-06-09 18:35:33 +0000
p2
s."
EndChar

StartChar: U
Encoding: 85 85 106
GlifName: U_
Width: 575
VWidth: 0
Flags: HW
AnchorPoint: "ogonek" 518 5 basechar 0
AnchorPoint: "top" 288 700 basechar 0
LayerCount: 2
Fore
SplineSet
405 223 m 258
 405 685 l 258
 405 706 419 720 440 720 c 258
 475 720 l 258
 496 720 510 706 510 685 c 258
 510 223 l 258
 510 68 429 -10 288 -10 c 256
 147 -10 65 69 65 223 c 258
 65 685 l 258
 65 706 79 720 100 720 c 258
 135 720 l 258
 156 720 170 706 170 685 c 258
 170 223 l 258
 170 120 208 86 288 86 c 256
 368 86 405 120 405 223 c 258
EndSplineSet
PickledDataWithLists: "(dp0
Vcom.schriftgestaltung.Glyphs.lastChange
p1
V2016-06-09 18:35:33 +0000
p2
s."
EndChar

StartChar: V
Encoding: 86 86 117
GlifName: V_
Width: 575
VWidth: 0
Flags: HW
LayerCount: 2
Fore
SplineSet
568 680 m 257
 420 87 l 258
 405 27 355 -10 288 -10 c 256
 222 -10 171 27 155 87 c 258
 7 680 l 258
 2 703 15 720 39 720 c 258
 74 720 l 258
 94 720 108 709 112 690 c 257
 259 105 l 258
 261 94 273 86 288 86 c 256
 303 86 315 94 317 105 c 258
 463 691 l 258
 468 710 482 720 501 720 c 258
 537 720 l 258
 561 720 574 702 568 680 c 257
EndSplineSet
PickledDataWithLists: "(dp0
Vcom.schriftgestaltung.Glyphs.lastChange
p1
V2016-06-09 18:35:33 +0000
p2
sVcom.typemytype.robofont.layerData
p3
(dp4
VBold Aug 24 14, 22:52
p5
(dp6
Vanchors
p7
(lp8
sVcomponents
p9
(lp10
sVcontours
p11
(lp12
(dp13
Vpoints
p14
(lp15
(dp16
VsegmentType
p17
Vline
p18
sVsmooth
p19
I01
sVx
p20
I558
sVy
p21
I672
sa(dp22
g19
I00
sg20
I563
sg21
I690
sa(dp23
g19
I00
sg20
I554
sg21
I700
sa(dp24
g17
Vcurve
p25
sg19
I01
sg20
I537
sg21
I700
sa(dp26
g17
Vline
p27
sg19
I01
sg20
I451
sg21
I700
sa(dp28
g19
I00
sg20
I436
sg21
I700
sa(dp29
g19
I00
sg20
I426
sg21
I693
sa(dp30
g17
Vcurve
p31
sg19
I01
sg20
I423
sg21
I679
sa(dp32
g17
Vline
p33
sg19
I01
sg20
I327
sg21
I93
sa(dp34
g19
I00
sg20
I324
sg21
I76
sa(dp35
g19
I00
sg20
I309
sg21
I67
sa(dp36
g17
Vcurve
p37
sg19
I01
sg20
I288
sg21
I67
sa(dp38
g19
I00
sg20
I267
sg21
I67
sa(dp39
g19
I00
sg20
I252
sg21
I76
sa(dp40
g17
Vcurve
p41
sg19
I01
sg20
I249
sg21
I93
sa(dp42
g17
Vline
p43
sg19
I01
sg20
I152
sg21
I679
sa(dp44
g19
I00
sg20
I150
sg21
I693
sa(dp45
g19
I00
sg20
I139
sg21
I700
sa(dp46
g17
Vcurve
p47
sg19
I01
sg20
I124
sg21
I700
sa(dp48
g17
Vline
p49
sg19
I01
sg20
I39
sg21
I700
sa(dp50
g19
I00
sg20
I21
sg21
I700
sa(dp51
g19
I00
sg20
I13
sg21
I690
sa(dp52
g17
Vcurve
p53
sg19
I01
sg20
I17
sg21
I672
sa(dp54
g17
Vline
p55
sg19
I01
sg20
I165
sg21
I80
sa(dp56
g19
I00
sg20
I180
sg21
I22
sa(dp57
g19
I00
sg20
I223
sg21
I-10
sa(dp58
g17
Vcurve
p59
sg19
I01
sg20
I288
sg21
I-10
sa(dp60
g19
I00
sg20
I352
sg21
I-10
sa(dp61
g19
I00
sg20
I396
sg21
I22
sa(dp62
g17
Vcurve
p63
sg19
I01
sg20
I410
sg21
I80
sasasVlib
p64
(dp65
sVname
p66
VV
p67
sVunicodes
p68
(lp69
sVwidth
p70
I575
sss."
EndChar

StartChar: X
Encoding: 88 88 123
GlifName: X_
Width: 575
VWidth: 0
Flags: HW
LayerCount: 2
Fore
SplineSet
537 677 m 257
 402 396 l 258
 397 385 387 375 376 367 c 257
 387 360 397 349 402 339 c 258
 544 44 l 257
 554 21 542 0 517 0 c 258
 486 0 l 258
 469 0 454 9 447 24 c 258
 309 301 l 258
 300 319 294 325 288 325 c 256
 281 325 275 319 267 301 c 257
 128 24 l 258
 121 9 107 0 90 0 c 258
 59 0 l 258
 35 0 21 21 31 44 c 257
 174 339 l 258
 179 349 188 360 199 367 c 257
 188 375 179 385 174 396 c 258
 38 677 l 258
 28 698 40 720 66 720 c 258
 97 720 l 258
 114 720 128 712 135 696 c 257
 267 433 l 258
 275 416 281 410 288 410 c 256
 294 410 300 415 309 433 c 258
 440 696 l 257
 447 712 463 720 479 720 c 258
 510 720 l 258
 534 720 549 699 537 677 c 257
EndSplineSet
PickledDataWithLists: "(dp0
Vcom.schriftgestaltung.Glyphs.lastChange
p1
V2016-06-09 18:35:33 +0000
p2
sVcom.typemytype.robofont.layerData
p3
(dp4
VBold Aug 24 14, 22:52
p5
(dp6
Vanchors
p7
(lp8
sVcomponents
p9
(lp10
sVcontours
p11
(lp12
(dp13
Vpoints
p14
(lp15
(dp16
VsegmentType
p17
Vline
p18
sVsmooth
p19
I01
sVx
p20
I510
sVy
p21
I675
sa(dp22
g19
I00
sg20
I510
sg21
I691
sa(dp23
g19
I00
sg20
I502
sg21
I700
sa(dp24
g17
Vcurve
p25
sg19
I01
sg20
I486
sg21
I700
sa(dp26
g17
Vline
p27
sg19
I01
sg20
I400
sg21
I700
sa(dp28
g19
I00
sg20
I384
sg21
I700
sa(dp29
g19
I00
sg20
I375
sg21
I692
sa(dp30
g17
Vcurve
p31
sg19
I01
sg20
I375
sg21
I676
sa(dp32
g17
Vline
p33
sg19
I01
sg20
I375
sg21
I615
sa(dp34
g19
I00
sg20
I375
sg21
I573
sa(dp35
g19
I00
sg20
I367
sg21
I539
sa(dp36
g17
Vcurve
p37
sg19
I01
sg20
I345
sg21
I504
sa(dp38
g17
Vline
p39
sg19
I00
sg20
I288
sg21
I412
sa(dp40
g17
Vline
p41
sg19
I01
sg20
I226
sg21
I504
sa(dp42
g19
I00
sg20
I203
sg21
I538
sa(dp43
g19
I00
sg20
I200
sg21
I573
sa(dp44
g17
Vcurve
p45
sg19
I01
sg20
I200
sg21
I615
sa(dp46
g17
Vline
p47
sg19
I01
sg20
I200
sg21
I676
sa(dp48
g19
I00
sg20
I200
sg21
I692
sa(dp49
g19
I00
sg20
I191
sg21
I700
sa(dp50
g17
Vcurve
p51
sg19
I01
sg20
I175
sg21
I700
sa(dp52
g17
Vline
p53
sg19
I01
sg20
I90
sg21
I700
sa(dp54
g19
I00
sg20
I74
sg21
I700
sa(dp55
g19
I00
sg20
I65
sg21
I691
sa(dp56
g17
Vcurve
p57
sg19
I01
sg20
I65
sg21
I675
sa(dp58
g17
Vline
p59
sg19
I01
sg20
I65
sg21
I615
sa(dp60
g19
I00
sg20
I65
sg21
I561
sa(dp61
g19
I00
sg20
I97
sg21
I508
sa(dp62
g17
Vcurve
p63
sg19
I01
sg20
I141
sg21
I455
sa(dp64
g17
Vline
p65
sg19
I00
sg20
I221
sg21
I360
sa(dp66
g17
Vline
p67
sg19
I01
sg20
I141
sg21
I265
sa(dp68
g19
I00
sg20
I97
sg21
I212
sa(dp69
g19
I00
sg20
I65
sg21
I160
sa(dp70
g17
Vcurve
p71
sg19
I01
sg20
I65
sg21
I107
sa(dp72
g17
Vline
p73
sg19
I01
sg20
I65
sg21
I25
sa(dp74
g19
I00
sg20
I65
sg21
I9
sa(dp75
g19
I00
sg20
I74
sg21
I0
sa(dp76
g17
Vcurve
p77
sg19
I01
sg20
I90
sg21
I0
sa(dp78
g17
Vline
p79
sg19
I01
sg20
I175
sg21
I0
sa(dp80
g19
I00
sg20
I191
sg21
I0
sa(dp81
g19
I00
sg20
I200
sg21
I9
sa(dp82
g17
Vcurve
p83
sg19
I01
sg20
I200
sg21
I25
sa(dp84
g17
Vline
p85
sg19
I01
sg20
I200
sg21
I107
sa(dp86
g19
I00
sg20
I200
sg21
I148
sa(dp87
g19
I00
sg20
I209
sg21
I181
sa(dp88
g17
Vcurve
p89
sg19
I01
sg20
I231
sg21
I217
sa(dp90
g17
Vline
p91
sg19
I00
sg20
I288
sg21
I309
sa(dp92
g17
Vline
p93
sg19
I01
sg20
I345
sg21
I217
sa(dp94
g19
I00
sg20
I367
sg21
I181
sa(dp95
g19
I00
sg20
I375
sg21
I148
sa(dp96
g17
Vcurve
p97
sg19
I01
sg20
I375
sg21
I107
sa(dp98
g17
Vline
p99
sg19
I01
sg20
I375
sg21
I25
sa(dp100
g19
I00
sg20
I375
sg21
I9
sa(dp101
g19
I00
sg20
I384
sg21
I0
sa(dp102
g17
Vcurve
p103
sg19
I01
sg20
I400
sg21
I0
sa(dp104
g17
Vline
p105
sg19
I01
sg20
I486
sg21
I0
sa(dp106
g19
I00
sg20
I502
sg21
I0
sa(dp107
g19
I00
sg20
I510
sg21
I9
sa(dp108
g17
Vcurve
p109
sg19
I01
sg20
I510
sg21
I25
sa(dp110
g17
Vline
p111
sg19
I01
sg20
I510
sg21
I107
sa(dp112
g19
I00
sg20
I510
sg21
I160
sa(dp113
g19
I00
sg20
I479
sg21
I212
sa(dp114
g17
Vcurve
p115
sg19
I01
sg20
I434
sg21
I265
sa(dp116
g17
Vline
p117
sg19
I00
sg20
I354
sg21
I360
sa(dp118
g17
Vline
p119
sg19
I01
sg20
I434
sg21
I455
sa(dp120
g19
I00
sg20
I479
sg21
I508
sa(dp121
g19
I00
sg20
I510
sg21
I561
sa(dp122
g17
Vcurve
p123
sg19
I01
sg20
I510
sg21
I615
sasasVlib
p124
(dp125
sVname
p126
VX
p127
sVunicodes
p128
(lp129
sVwidth
p130
I575
sss."
EndChar

StartChar: Xi
Encoding: 926 926 124
GlifName: X_i
Width: 575
VWidth: 0
Flags: HW
LayerCount: 2
Fore
SplineSet
469 624 m 258
 106 624 l 258
 84 624 71 637 71 659 c 258
 71 685 l 258
 71 707 84 720 106 720 c 258
 469 720 l 258
 491 720 504 707 504 685 c 258
 504 659 l 258
 504 637 491 624 469 624 c 258
127 423 m 258
 448 423 l 258
 469 423 483 409 483 388 c 258
 483 361 l 258
 483 340 469 326 448 326 c 258
 127 326 l 258
 106 326 92 340 92 361 c 258
 92 388 l 258
 92 409 106 423 127 423 c 258
84 97 m 258
 491 97 l 258
 512 97 526 83 526 62 c 258
 526 35 l 258
 526 14 512 0 491 0 c 258
 84 0 l 258
 63 0 49 14 49 35 c 258
 49 62 l 258
 49 83 63 97 84 97 c 258
EndSplineSet
PickledDataWithLists: "(dp0
Vcom.schriftgestaltung.Glyphs.lastChange
p1
V2015-12-22 12:18:54 +0000
p2
s."
EndChar

StartChar: Y
Encoding: 89 89 125
GlifName: Y_
Width: 575
VWidth: 0
Flags: HW
AnchorPoint: "top" 288 700 basechar 0
LayerCount: 2
Fore
SplineSet
496 720 m 257
 532 720 l 257
 558 720 570 698 559 677 c 257
 414 386 l 257
 398 353 372 329 340 318 c 257
 340 35 l 257
 340 15 325 0 305 0 c 257
 270 0 l 257
 250 0 235 15 235 35 c 257
 235 318 l 257
 203 329 177 353 161 386 c 257
 16 676 l 257
 4 699 19 720 43 720 c 257
 80 720 l 257
 97 720 111 712 118 696 c 257
 254 425 l 257
 263 408 273 400 288 400 c 257
 303 400 313 408 321 424 c 257
 457 696 l 257
 464 712 480 720 496 720 c 257
EndSplineSet
PickledDataWithLists: "(dp0
Vcom.schriftgestaltung.Glyphs.lastChange
p1
V2016-06-09 18:35:33 +0000
p2
s."
EndChar

StartChar: Z
Encoding: 90 90 130
GlifName: Z_
Width: 575
VWidth: 0
Flags: HW
AnchorPoint: "top" 288 700 basechar 0
LayerCount: 2
Fore
SplineSet
441 458 m 257
 203 220 l 257
 179 196 165 154 161 97 c 257
 485 97 l 257
 505 97 520 82 520 62 c 257
 520 35 l 257
 520 15 505 0 485 0 c 257
 90 0 l 257
 70 0 55 15 55 35 c 257
 55 65 l 257
 55 154 83 232 134 282 c 257
 373 521 l 257
 395 543 409 578 413 624 c 257
 121 624 l 257
 101 624 86 639 86 659 c 257
 86 685 l 257
 86 706 101 720 121 720 c 257
 485 720 l 257
 506 720 520 706 520 685 c 257
 520 655 l 257
 520 580 492 508 441 458 c 257
EndSplineSet
PickledDataWithLists: "(dp0
Vcom.schriftgestaltung.Glyphs.lastChange
p1
V2016-06-09 18:35:33 +0000
p2
s."
EndChar

StartChar: a
Encoding: 97 97 135
GlifName: a
Width: 575
VWidth: 0
Flags: HW
AnchorPoint: "ogonek" 524 5 basechar 0
AnchorPoint: "top" 291 570 basechar 0
LayerCount: 2
Fore
SplineSet
381 237 m 257
 291 237 l 257
 213 237 173 203 173 163 c 257
 172 121 213 85 294 85 c 257
 320 85 351 87 381 90 c 257
 381 237 l 257
486 329 m 257
 486 39 l 257
 486 19 473 5 453 2 c 257
 395 -5 337 -10 288 -10 c 257
 149 -10 69 58 67 162 c 257
 67 267 148 334 291 334 c 257
 381 334 l 257
 381 339 l 257
 381 404 350 434 277 434 c 257
 254 434 206 432 165 425 c 257
 146 422 126 431 123 452 c 257
 120 479 l 257
 118 498 126 515 147 519 c 257
 185 526 231 530 277 530 c 257
 420 530 486 468 486 329 c 257
EndSplineSet
PickledDataWithLists: "(dp0
Vcom.schriftgestaltung.Glyphs.lastChange
p1
V2016-06-09 18:35:33 +0000
p2
sVcom.typemytype.robofont.layerData
p3
(dp4
Vbackground
p5
(dp6
Vanchors
p7
(lp8
sVcomponents
p9
(lp10
sVcontours
p11
(lp12
(dp13
Vpoints
p14
(lp15
(dp16
VsegmentType
p17
Vline
p18
sVsmooth
p19
I01
sVx
p20
I458
sVy
p21
I319
sa(dp22
g19
I00
sg20
I458
sg21
I456
sa(dp23
g19
I00
sg20
I400
sg21
I510
sa(dp24
g17
Vcurve
p25
sg19
I01
sg20
I262
sg21
I510
sa(dp26
g19
I00
sg20
I216
sg21
I510
sa(dp27
g19
I00
sg20
I174
sg21
I506
sa(dp28
g17
Vcurve
p29
sg19
I01
sg20
I137
sg21
I499
sa(dp30
g19
I00
sg20
I121
sg21
I496
sa(dp31
g19
I00
sg20
I115
sg21
I485
sa(dp32
g17
Vcurve
p33
sg19
I01
sg20
I118
sg21
I470
sa(dp34
g17
Vline
p35
sg19
I01
sg20
I130
sg21
I418
sa(dp36
g19
I00
sg20
I133
sg21
I403
sa(dp37
g19
I00
sg20
I147
sg21
I390
sa(dp38
g17
Vcurve
p39
sg19
I01
sg20
I160
sg21
I400
sa(dp40
g19
I00
sg20
I202
sg21
I432
sa(dp41
g19
I00
sg20
I239
sg21
I434
sa(dp42
g17
Vcurve
p43
sg19
I01
sg20
I262
sg21
I434
sa(dp44
g19
I00
sg20
I312
sg21
I434
sa(dp45
g19
I00
sg20
I333
sg21
I397
sa(dp46
g17
Vcurve
p47
sg19
I00
sg20
I333
sg21
I309
sa(dp48
g17
Vline
p49
sg19
I01
sg20
I276
sg21
I309
sa(dp50
g19
I00
sg20
I139
sg21
I309
sa(dp51
g19
I00
sg20
I65
sg21
I253
sa(dp52
g17
Vcurve
p53
sg19
I01
sg20
I65
sg21
I149
sa(dp54
g19
I00
sg20
I67
sg21
I44
sa(dp55
g19
I00
sg20
I146
sg21
I-10
sa(dp56
g17
Vcurve
p57
sg19
I01
sg20
I225
sg21
I-10
sa(dp58
g19
I00
sg20
I284
sg21
I-10
sa(dp59
g19
I00
sg20
I343
sg21
I21
sa(dp60
g17
Vcurve
p61
sg19
I00
sg20
I367
sg21
I85
sa(dp62
g19
I00
sg20
I389
sg21
I4
sa(dp63
g19
I00
sg20
I454
sg21
I0
sa(dp64
g17
Vcurve
p65
sg19
I01
sg20
I523
sg21
I0
sa(dp66
g19
I00
sg20
I536
sg21
I0
sa(dp67
g19
I00
sg20
I543
sg21
I9
sa(dp68
g17
Vcurve
p69
sg19
I01
sg20
I543
sg21
I25
sa(dp70
g17
Vline
p71
sg19
I01
sg20
I543
sg21
I52
sa(dp72
g19
I00
sg20
I543
sg21
I68
sa(dp73
g19
I00
sg20
I538
sg21
I77
sa(dp74
g17
Vcurve
p75
sg19
I01
sg20
I530
sg21
I77
sa(dp76
g19
I00
sg20
I468
sg21
I77
sa(dp77
g19
I00
sg20
I458
sg21
I101
sa(dp78
g17
Vcurve
p79
sg19
I01
sg20
I458
sg21
I162
sasa(dp80
g14
(lp81
(dp82
g17
Vline
p83
sg19
I00
sg20
I333
sg21
I232
sa(dp84
g17
Vline
p85
sg19
I01
sg20
I333
sg21
I182
sa(dp86
g19
I00
sg20
I333
sg21
I106
sa(dp87
g19
I00
sg20
I283
sg21
I65
sa(dp88
g17
Vcurve
p89
sg19
I01
sg20
I241
sg21
I65
sa(dp90
g19
I00
sg20
I201
sg21
I65
sa(dp91
g19
I00
sg20
I179
sg21
I100
sa(dp92
g17
Vcurve
p93
sg19
I01
sg20
I179
sg21
I138
sa(dp94
g19
I00
sg20
I179
sg21
I183
sa(dp95
g19
I00
sg20
I209
sg21
I232
sa(dp96
g17
Vcurve
p97
sg19
I01
sg20
I276
sg21
I232
sasasVlib
p98
(dp99
sVname
p100
Va
p101
sVunicodes
p102
(lp103
sVwidth
p104
I575
sss."
EndChar

StartChar: a.hex
Encoding: 65543 -1 136
GlifName: a.hex
Width: 575
VWidth: 0
Flags: HW
LayerCount: 2
Fore
SplineSet
114 875 m 258
 114 829 l 258
 114 812 105 804 89 804 c 258
 54 804 l 258
 37 804 29 813 29 829 c 258
 29 875 l 258
 29 891 38 900 54 900 c 258
 89 900 l 258
 105 900 114 891 114 875 c 258
402 875 m 258
 402 829 l 258
 402 812 393 804 377 804 c 258
 342 804 l 258
 325 804 317 813 317 829 c 258
 317 875 l 258
 317 891 326 900 342 900 c 258
 377 900 l 258
 393 900 402 891 402 875 c 258
EndSplineSet
Refer: 135 97 N 1 0 0 1 0 0 2
PickledDataWithLists: "(dp0
Vcom.schriftgestaltung.Glyphs.lastChange
p1
V2016-06-09 18:35:34 +0000
p2
s."
EndChar

StartChar: acute
Encoding: 180 180 140
GlifName: acute
Width: 575
VWidth: 0
Flags: HW
AnchorPoint: "top" 288 500 mark 0
LayerCount: 2
Fore
SplineSet
185 544 m 257
 177 562 l 257
 171 577 175 588 190 595 c 258
 400 696 l 258
 414 703 426 699 433 684 c 258
 454 638 l 258
 461 623 456 611 440 606 c 258
 219 531 l 258
 204 526 193 530 185 544 c 257
185 544 m 257
 193 530 204 526 219 531 c 258
 440 606 l 258
 456 611 461 623 454 638 c 258
 433 684 l 258
 426 699 414 703 400 696 c 258
 190 595 l 258
 175 588 171 577 177 562 c 257
 185 544 l 257
EndSplineSet
PickledDataWithLists: "(dp0
Vcom.schriftgestaltung.Glyphs.lastChange
p1
V2015-12-22 16:32:39 +0000
p2
s."
EndChar

StartChar: ae
Encoding: 230 230 142
GlifName: ae
Width: 575
VWidth: 0
Flags: HW
LayerCount: 2
Fore
SplineSet
115 450 m 257
 108 478 l 257
 103 498 115 515 135 519 c 257
 173 526 216 530 252 530 c 257
 423 530 494 425 494 280 c 257
 494 257 l 257
 494 237 479 222 459 222 c 257
 335 222 l 257
 335 88 l 257
 357 89 382 92 410 96 c 257
 430 100 447 89 452 69 c 257
 458 43 l 257
 463 23 451 5 430 1 c 257
 375 -9 362 -9 290 -10 c 257
 121 -10 57 52 55 159 c 257
 55 255 120 307 230 317 c 257
 230 433 l 257
 209 431 183 429 157 425 c 257
 137 421 120 432 115 450 c 257
335 319 m 257
 388 319 l 257
 384 358 371 395 335 411 c 257
 335 319 l 257
230 89 m 257
 230 219 l 257
 185 211 161 190 160 150 c 257
 160 118 188 96 230 89 c 257
EndSplineSet
PickledDataWithLists: "(dp0
Vcom.schriftgestaltung.Glyphs.lastChange
p1
V2016-06-09 18:35:33 +0000
p2
s."
EndChar

StartChar: alpha
Encoding: 945 945 144
GlifName: alpha
Width: 575
VWidth: 0
Flags: HW
LayerCount: 2
Fore
SplineSet
479 520 m 258
 506 520 l 258
 532 520 544 505 539 479 c 256
 536 464 528 365 494 260 c 257
 528 155 536 56 539 41 c 256
 544 15 532 0 506 0 c 258
 479 0 l 258
 459 0 448 9 443 30 c 256
 441 39 439 66 433 103 c 257
 385 28 324 -10 252 -10 c 256
 113 -10 35 88 35 260 c 256
 35 432 113 530 252 530 c 256
 324 530 385 492 433 417 c 257
 439 454 441 481 443 490 c 256
 448 511 459 520 479 520 c 258
140 260 m 256
 140 151 181 87 252 87 c 256
 324 87 369 167 410 260 c 257
 369 353 324 433 252 433 c 256
 181 433 140 369 140 260 c 256
  PathStart: -2
EndSplineSet
PickledDataWithLists: "(dp0
Vcom.schriftgestaltung.Glyphs.lastChange
p1
V2015-12-22 12:26:38 +0000
p2
sVcom.typemytype.robofont.layerData
p3
(dp4
Vbackground
p5
(dp6
Vanchors
p7
(lp8
sVcomponents
p9
(lp10
(dp11
VbaseGlyph
p12
Vc
p13
sVtransformation
p14
(lp15
I1
aI0
aI0
aI1
aI0
aI0
asasVcontours
p16
(lp17
sVlib
p18
(dp19
sVname
p20
Valpha
p21
sVunicodes
p22
(lp23
sVwidth
p24
I575
sss."
EndChar

StartChar: ampersand
Encoding: 38 38 146
GlifName: ampersand
Width: 575
VWidth: 0
Flags: HW
LayerCount: 2
Fore
SplineSet
503 0 m 258
 471 0 l 258
 452 0 440 9 434 28 c 257
 433 28 l 257
 429 44 422 61 413 78 c 257
 363 23 300 -7 233 -7 c 256
 117 -7 42 71 42 190 c 256
 42 267 81 338 150 391 c 257
 99 445 73 500 73 551 c 256
 73 645 148 717 248 717 c 256
 349 717 426 643 426 544 c 256
 426 498 407 453 372 418 c 256
 358 404 339 404 324 420 c 258
 304 440 l 258
 288 455 288 474 302 488 c 256
 317 503 325 522 325 542 c 256
 325 585 292 618 247 618 c 256
 208 618 178 590 178 552 c 256
 178 521 198 485 238 445 c 256
 297 386 355 325 401 268 c 257
 404 277 406 286 408 297 c 256
 414 317 429 327 450 323 c 258
 483 317 l 258
 504 313 515 296 510 275 c 256
 500 236 488 201 473 170 c 257
 503 122 523 80 535 39 c 257
 540 16 527 0 503 0 c 258
146 190 m 256
 146 124 177 89 233 89 c 256
 277 89 320 117 355 167 c 257
 319 213 274 264 219 321 c 257
 173 286 146 239 146 190 c 256
  PathStart: -2
EndSplineSet
PickledDataWithLists: "(dp0
Vcom.schriftgestaltung.Glyphs.lastChange
p1
V2015-12-22 14:24:01 +0000
p2
s."
EndChar

StartChar: asciicircum
Encoding: 94 94 150
GlifName: asciicircum
Width: 575
VWidth: 0
Flags: HW
LayerCount: 2
Fore
SplineSet
22 516 m 258
 211 699 l 258
 232 719 254 739 288 739 c 256
 322 739 344 718 364 699 c 258
 553 516 l 258
 568 501 568 479 552 466 c 257
 530 446 l 258
 515 432 495 432 480 447 c 258
 295 637 l 257
 291 642 291 642 288 642 c 256
 285 642 282 639 279 636 c 258
 95 447 l 258
 81 432 61 432 46 445 c 258
 23 466 l 258
 8 479 7 501 22 516 c 258
EndSplineSet
PickledDataWithLists: "(dp0
Vcom.schriftgestaltung.Glyphs.lastChange
p1
V2015-12-22 14:26:04 +0000
p2
s."
EndChar

StartChar: asciitilde
Encoding: 126 126 151
GlifName: asciitilde
Width: 575
VWidth: 0
Flags: HW
LayerCount: 2
Fore
SplineSet
486 328 m 257
 515 328 l 257
 534 328 548 313 548 292 c 257
 548 196 497 140 412 140 c 257
 365 140 309 171 254 226 c 257
 215 265 184 284 164 284 c 257
 140 284 126 265 126 225 c 257
 126 207 111 193 89 193 c 257
 61 193 l 257
 42 193 27 208 27 229 c 257
 27 324 77 381 164 381 c 257
 210 381 267 349 322 294 c 257
 360 256 391 236 412 236 c 257
 435 236 449 256 449 296 c 257
 449 315 465 328 486 328 c 257
EndSplineSet
PickledDataWithLists: "(dp0
Vcom.schriftgestaltung.Glyphs.lastChange
p1
V2015-12-22 16:32:54 +0000
p2
s."
EndChar

StartChar: asterisk
Encoding: 42 42 152
GlifName: asterisk
Width: 575
VWidth: 0
Flags: HW
LayerCount: 2
Fore
SplineSet
529 358 m 257
 539 324 l 257
 546 305 536 287 517 280 c 257
 389 239 l 257
 481 110 l 257
 492 93 489 72 474 61 c 258
 445 41 l 257
 429 28 408 32 396 48 c 258
 287 199 l 257
 179 48 l 257
 165 32 146 28 129 40 c 258
 100 61 l 257
 83 72 82 94 93 110 c 258
 187 239 l 257
 58 281 l 258
 39 287 29 305 35 324 c 258
 47 358 l 258
 53 377 71 387 91 380 c 258
 235 333 l 257
 235 485 l 258
 235 506 250 520 270 520 c 258
 305 520 l 258
 325 520 340 506 340 485 c 258
 340 333 l 257
 484 381 l 258
 504 387 522 377 529 358 c 257
EndSplineSet
PickledDataWithLists: "(dp0
Vcom.schriftgestaltung.Glyphs.lastChange
p1
V2015-12-22 20:53:16 +0000
p2
s."
EndChar

StartChar: at
Encoding: 64 64 153
GlifName: at
Width: 575
VWidth: 0
Flags: HW
LayerCount: 2
Fore
SplineSet
41 98 m 257
 41 474 l 257
 41 641 127 730 288 730 c 257
 448 730 534 641 534 474 c 257
 534 122 l 257
 534 102 519 87 499 87 c 257
 439 87 l 257
 320 87 268 158 268 286 c 257
 268 410 317 481 429 485 c 257
 426 584 379 634 288 634 c 257
 194 634 146 581 146 474 c 257
 146 98 l 257
 146 -9 194 -62 288 -62 c 257
 320 -62 345 -56 377 -45 c 257
 396 -37 415 -46 422 -64 c 257
 433 -91 l 257
 442 -110 433 -130 414 -136 c 257
 375 -151 335 -158 288 -158 c 257
 127 -158 41 -69 41 98 c 257
EndSplineSet
PickledDataWithLists: "(dp0
Vcom.schriftgestaltung.Glyphs.lastChange
p1
V2016-02-01 22:12:54 +0000
p2
s."
EndChar

StartChar: b
Encoding: 98 98 155
GlifName: b
Width: 575
VWidth: 0
Flags: HW
LayerCount: 2
Fore
SplineSet
75 50 m 258
 75 735 l 258
 75 755 90 770 110 770 c 258
 145 770 l 258
 165 770 180 755 180 735 c 258
 180 524 l 257
 202 528 225 530 247 530 c 256
 376 530 500 456 500 260 c 256
 500 64 376 -10 247 -10 c 256
 195 -10 142 0 94 20 c 256
 83 25 75 38 75 50 c 258
180 431 m 257
 180 95 l 257
 202 90 223 88 247 88 c 256
 331 88 394 131 394 260 c 256
 394 397 321 436 237 436 c 256
 218 436 199 434 180 431 c 257
EndSplineSet
PickledDataWithLists: "(dp0
Vcom.schriftgestaltung.Glyphs.lastChange
p1
V2016-06-09 18:35:33 +0000
p2
s."
EndChar

StartChar: b.hex
Encoding: 65545 -1 156
GlifName: b.hex
Width: 575
VWidth: 0
Flags: HW
LayerCount: 2
Fore
SplineSet
114 875 m 258
 114 829 l 258
 114 812 105 804 89 804 c 258
 54 804 l 258
 37 804 29 813 29 829 c 258
 29 875 l 258
 29 891 38 900 54 900 c 258
 89 900 l 258
 105 900 114 891 114 875 c 258
402 875 m 258
 402 829 l 258
 402 812 393 804 377 804 c 258
 342 804 l 258
 325 804 317 813 317 829 c 258
 317 875 l 258
 317 891 326 900 342 900 c 258
 377 900 l 258
 393 900 402 891 402 875 c 258
546 875 m 258
 546 829 l 258
 546 812 537 804 521 804 c 258
 486 804 l 258
 469 804 461 813 461 829 c 258
 461 875 l 258
 461 891 470 900 486 900 c 258
 521 900 l 258
 537 900 546 891 546 875 c 258
EndSplineSet
Refer: 155 98 N 1 0 0 1 0 0 2
PickledDataWithLists: "(dp0
Vcom.schriftgestaltung.Glyphs.lastChange
p1
V2016-06-09 18:35:34 +0000
p2
s."
EndChar

StartChar: backslash
Encoding: 92 92 157
GlifName: backslash
Width: 575
VWidth: 0
Flags: HW
LayerCount: 2
Fore
SplineSet
129 686 m 257
 542 -140 l 257
 551 -157 544 -177 526 -186 c 257
 494 -202 l 257
 477 -211 457 -204 448 -186 c 257
 35 640 l 257
 26 657 33 677 51 686 c 257
 83 702 l 257
 100 711 120 704 129 686 c 257
EndSplineSet
PickledDataWithLists: "(dp0
Vcom.schriftgestaltung.Glyphs.lastChange
p1
V2015-12-22 16:32:37 +0000
p2
s."
EndChar

StartChar: bar
Encoding: 124 124 158
GlifName: bar
Width: 575
VWidth: 0
Flags: HW
LayerCount: 2
Fore
SplineSet
270 770 m 257
 305 770 l 257
 325 770 340 756 340 735 c 257
 340 -143 l 257
 340 -163 326 -178 305 -178 c 257
 270 -178 l 257
 250 -178 235 -164 235 -143 c 257
 235 735 l 257
 235 755 250 770 270 770 c 257
EndSplineSet
PickledDataWithLists: "(dp0
Vcom.schriftgestaltung.Glyphs.lastChange
p1
V2015-12-22 16:32:56 +0000
p2
s."
EndChar

StartChar: beta
Encoding: 946 946 159
GlifName: beta
Width: 575
VWidth: 0
Flags: HW
LayerCount: 2
Fore
SplineSet
92 504 m 258
 92 644 163 720 294 720 c 256
 415 720 483 660 483 551 c 256
 483 505 457 464 437 432 c 256
 422 409 412 392 412 380 c 256
 412 366 421 355 449 332 c 256
 481 306 524 271 523 202 c 256
 522 77 387 -67 197 11 c 257
 197 -165 l 258
 197 -187 184 -200 162 -200 c 258
 127 -200 l 258
 106 -200 92 -186 92 -165 c 258
 92 504 l 258
  PathStart: -2
383 543 m 256
 383 596 353 624 294 624 c 256
 229 624 197 584 197 504 c 257
 197 103 l 257
 366 29 422 131 422 207 c 256
 422 243 397 260 369 281 c 257
 340 301 307 325 307 373 c 256
 307 415 333 453 354 484 c 256
 370 508 383 526 383 543 c 256
  PathStart: -2
EndSplineSet
PickledDataWithLists: "(dp0
Vcom.schriftgestaltung.Glyphs.lastChange
p1
V2015-12-22 12:27:37 +0000
p2
s."
EndChar

StartChar: block
Encoding: 9608 9608 160
GlifName: block
Width: 575
VWidth: 0
Flags: HW
LayerCount: 2
Fore
SplineSet
0 -250 m 257
 0 900 l 257
 575 900 l 257
 575 -250 l 257
 0 -250 l 257
EndSplineSet
PickledDataWithLists: "(dp0
Vcom.schriftgestaltung.Glyphs.lastChange
p1
V2016-06-10 08:26:49 +0000
p2
s."
EndChar

StartChar: braceleft
Encoding: 123 123 161
GlifName: braceleft
Width: 575
VWidth: 0
Flags: HW
LayerCount: 2
Fore
SplineSet
340 595 m 258
 340 419 l 258
 340 369 333 326 285 296 c 257
 333 266 340 220 340 174 c 258
 340 -3 l 258
 340 -62 358 -82 410 -82 c 258
 491 -82 l 258
 512 -82 526 -96 526 -117 c 258
 526 -143 l 258
 526 -165 513 -178 491 -178 c 258
 410 -178 l 258
 287 -178 235 -126 235 -3 c 258
 235 174 l 258
 235 229 217 248 165 248 c 258
 85 248 l 258
 64 248 50 262 50 283 c 258
 50 309 l 258
 50 331 63 344 85 344 c 258
 165 344 l 258
 217 344 235 364 235 419 c 258
 235 595 l 258
 235 718 287 770 410 770 c 258
 491 770 l 258
 512 770 526 756 526 735 c 258
 526 709 l 258
 526 687 513 674 491 674 c 258
 410 674 l 258
 358 674 340 654 340 595 c 258
EndSplineSet
PickledDataWithLists: "(dp0
Vcom.schriftgestaltung.Glyphs.lastChange
p1
V2016-04-11 09:42:36 +0000
p2
sVcom.typemytype.robofont.layerData
p3
(dp4
VBold Nov 25 14, 07:50
p5
(dp6
Vanchors
p7
(lp8
sVcomponents
p9
(lp10
sVcontours
p11
(lp12
(dp13
Vpoints
p14
(lp15
(dp16
VsegmentType
p17
Vline
p18
sVsmooth
p19
I01
sVx
p20
I355
sVy
p21
I585
sa(dp22
g19
I00
sg20
I357
sg21
I648
sa(dp23
g19
I00
sg20
I373
sg21
I674
sa(dp24
g17
Vcurve
p25
sg19
I01
sg20
I410
sg21
I674
sa(dp26
g17
Vline
p27
sg19
I01
sg20
I491
sg21
I674
sa(dp28
g19
I00
sg20
I507
sg21
I674
sa(dp29
g19
I00
sg20
I516
sg21
I682
sa(dp30
g17
Vcurve
p31
sg19
I01
sg20
I516
sg21
I699
sa(dp32
g17
Vline
p33
sg19
I01
sg20
I516
sg21
I725
sa(dp34
g19
I00
sg20
I516
sg21
I741
sa(dp35
g19
I00
sg20
I507
sg21
I750
sa(dp36
g17
Vcurve
p37
sg19
I01
sg20
I491
sg21
I750
sa(dp38
g17
Vline
p39
sg19
I01
sg20
I410
sg21
I750
sa(dp40
g19
I00
sg20
I276
sg21
I750
sa(dp41
g19
I00
sg20
I220
sg21
I702
sa(dp42
g17
Vcurve
p43
sg19
I01
sg20
I220
sg21
I585
sa(dp44
g17
Vline
p45
sg19
I01
sg20
I220
sg21
I409
sa(dp46
g19
I00
sg20
I220
sg21
I349
sa(dp47
g19
I00
sg20
I204
sg21
I324
sa(dp48
g17
Vcurve
p49
sg19
I01
sg20
I165
sg21
I324
sa(dp50
g17
Vline
p51
sg19
I01
sg20
I85
sg21
I324
sa(dp52
g19
I00
sg20
I69
sg21
I324
sa(dp53
g19
I00
sg20
I60
sg21
I316
sa(dp54
g17
Vcurve
p55
sg19
I01
sg20
I60
sg21
I299
sa(dp56
g17
Vline
p57
sg19
I01
sg20
I60
sg21
I273
sa(dp58
g19
I00
sg20
I60
sg21
I257
sa(dp59
g19
I00
sg20
I69
sg21
I248
sa(dp60
g17
Vcurve
p61
sg19
I01
sg20
I85
sg21
I248
sa(dp62
g17
Vline
p63
sg19
I01
sg20
I165
sg21
I248
sa(dp64
g19
I00
sg20
I204
sg21
I248
sa(dp65
g19
I00
sg20
I220
sg21
I223
sa(dp66
g17
Vcurve
p67
sg19
I01
sg20
I220
sg21
I164
sa(dp68
g17
Vline
p69
sg19
I01
sg20
I220
sg21
I-13
sa(dp70
g19
I00
sg20
I220
sg21
I-130
sa(dp71
g19
I00
sg20
I276
sg21
I-178
sa(dp72
g17
Vcurve
p73
sg19
I01
sg20
I410
sg21
I-178
sa(dp74
g17
Vline
p75
sg19
I01
sg20
I491
sg21
I-178
sa(dp76
g19
I00
sg20
I507
sg21
I-178
sa(dp77
g19
I00
sg20
I516
sg21
I-170
sa(dp78
g17
Vcurve
p79
sg19
I01
sg20
I516
sg21
I-153
sa(dp80
g17
Vline
p81
sg19
I01
sg20
I516
sg21
I-127
sa(dp82
g19
I00
sg20
I516
sg21
I-111
sa(dp83
g19
I00
sg20
I507
sg21
I-102
sa(dp84
g17
Vcurve
p85
sg19
I01
sg20
I491
sg21
I-102
sa(dp86
g17
Vline
p87
sg19
I01
sg20
I410
sg21
I-102
sa(dp88
g19
I00
sg20
I371
sg21
I-102
sa(dp89
g19
I00
sg20
I355
sg21
I-76
sa(dp90
g17
Vcurve
p91
sg19
I01
sg20
I355
sg21
I-13
sa(dp92
g17
Vline
p93
sg19
I01
sg20
I355
sg21
I164
sa(dp94
g19
I00
sg20
I355
sg21
I214
sa(dp95
g19
I00
sg20
I343
sg21
I259
sa(dp96
g17
Vcurve
p97
sg19
I00
sg20
I264
sg21
I286
sa(dp98
g19
I00
sg20
I342
sg21
I314
sa(dp99
g19
I00
sg20
I355
sg21
I355
sa(dp100
g17
Vcurve
p101
sg19
I01
sg20
I355
sg21
I409
sasasVlib
p102
(dp103
sVname
p104
Vbraceleft
p105
sVunicodes
p106
(lp107
sVwidth
p108
I575
sss."
EndChar

StartChar: braceright
Encoding: 125 125 162
GlifName: braceright
Width: 575
VWidth: 0
Flags: HW
LayerCount: 2
Fore
SplineSet
290 296 m 257
 242 326 235 369 235 419 c 258
 235 595 l 258
 235 654 217 674 165 674 c 258
 84 674 l 258
 62 674 49 687 49 709 c 258
 49 735 l 258
 49 756 63 770 84 770 c 258
 165 770 l 258
 288 770 340 718 340 595 c 258
 340 419 l 258
 340 364 358 344 410 344 c 258
 490 344 l 258
 512 344 525 331 525 309 c 258
 525 283 l 258
 525 262 511 248 490 248 c 258
 410 248 l 258
 358 248 340 229 340 174 c 258
 340 -3 l 258
 340 -126 288 -178 165 -178 c 258
 84 -178 l 258
 62 -178 49 -165 49 -143 c 258
 49 -117 l 258
 49 -96 63 -82 84 -82 c 258
 165 -82 l 258
 217 -82 235 -62 235 -3 c 258
 235 174 l 258
 235 220 242 266 290 296 c 257
  PathStart: -2
EndSplineSet
PickledDataWithLists: "(dp0
Vcom.schriftgestaltung.Glyphs.lastChange
p1
V2016-06-03 09:15:51 +0000
p2
s."
EndChar

StartChar: bracketleft
Encoding: 91 91 163
GlifName: bracketleft
Width: 575
VWidth: 0
Flags: HW
LayerCount: 2
Fore
SplineSet
245 -82 m 257
 470 -82 l 257
 490 -82 505 -97 505 -117 c 257
 505 -143 l 257
 505 -164 491 -178 470 -178 c 257
 175 -178 l 257
 155 -178 140 -164 140 -143 c 257
 140 735 l 257
 140 755 155 770 175 770 c 257
 470 770 l 257
 490 770 505 756 505 735 c 257
 505 709 l 257
 505 688 491 674 470 674 c 257
 245 674 l 257
 245 -82 l 257
EndSplineSet
PickledDataWithLists: "(dp0
Vcom.schriftgestaltung.Glyphs.lastChange
p1
V2015-12-22 13:51:23 +0000
p2
s."
EndChar

StartChar: bracketright
Encoding: 93 93 164
GlifName: bracketright
Width: 575
VWidth: 0
Flags: HW
LayerCount: 2
Fore
SplineSet
105 770 m 257
 400 770 l 257
 420 770 435 756 435 735 c 257
 435 -143 l 257
 435 -163 421 -178 400 -178 c 257
 105 -178 l 257
 85 -178 70 -164 70 -143 c 257
 70 -117 l 257
 70 -96 85 -82 105 -82 c 257
 330 -82 l 257
 330 674 l 257
 105 674 l 257
 85 674 70 689 70 709 c 257
 70 735 l 257
 70 756 85 770 105 770 c 257
EndSplineSet
PickledDataWithLists: "(dp0
Vcom.schriftgestaltung.Glyphs.lastChange
p1
V2015-12-22 13:51:43 +0000
p2
s."
EndChar

StartChar: breve
Encoding: 728 728 165
GlifName: breve
Width: 575
VWidth: 0
Flags: HW
LayerCount: 2
Fore
SplineSet
423 696 m 258
 451 691 l 258
 467 688 475 678 470 662 c 256
 448 583 384 539 288 538 c 256
 192 539 127 583 105 662 c 256
 101 678 109 688 125 691 c 258
 153 696 l 258
 168 699 177 692 182 676 c 256
 197 626 234 598 288 598 c 256
 341 598 378 626 394 676 c 256
 398 692 407 699 423 696 c 258
EndSplineSet
PickledDataWithLists: "(dp0
Vcom.schriftgestaltung.Glyphs.lastChange
p1
V2015-12-22 16:32:39 +0000
p2
s."
EndChar

StartChar: brokenbar
Encoding: 166 166 166
GlifName: brokenbar
Width: 575
VWidth: 0
Flags: HW
LayerCount: 2
Fore
SplineSet
305 -178 m 257
 270 -178 l 257
 250 -178 235 -164 235 -143 c 257
 235 178 l 257
 235 199 250 213 270 213 c 257
 305 213 l 257
 325 213 340 199 340 178 c 257
 340 -143 l 257
 340 -163 326 -178 305 -178 c 257
305 379 m 257
 270 379 l 257
 250 379 235 394 235 414 c 257
 235 735 l 257
 235 755 250 770 270 770 c 257
 305 770 l 257
 326 770 340 756 340 735 c 257
 340 414 l 257
 340 394 325 379 305 379 c 257
EndSplineSet
PickledDataWithLists: "(dp0
Vcom.schriftgestaltung.Glyphs.lastChange
p1
V2015-12-22 14:22:08 +0000
p2
s."
EndChar

StartChar: bullet
Encoding: 8226 8226 167
GlifName: bullet
Width: 575
VWidth: 0
Flags: HW
LayerCount: 2
Fore
SplineSet
470 335 m 257
 470 233 388 150 288 150 c 257
 187 150 105 233 105 335 c 257
 105 437 187 520 288 520 c 257
 388 520 470 437 470 335 c 257
  PathStart: -2
EndSplineSet
PickledDataWithLists: "(dp0
Vcom.schriftgestaltung.Glyphs.lastChange
p1
V2015-12-22 16:32:38 +0000
p2
s."
EndChar

StartChar: c
Encoding: 99 99 168
GlifName: c
Width: 575
VWidth: 0
Flags: HW
AnchorPoint: "top" 288 570 basechar 0
AnchorPoint: "bottom" 288 0 basechar 0
LayerCount: 2
Fore
SplineSet
500 453 m 257
 490 429 l 257
 483 411 464 402 446 410 c 257
 402 425 368 432 328 432 c 257
 244 432 181 389 181 260 c 257
 181 131 244 88 328 88 c 257
 368 88 401 95 445 110 c 257
 464 118 483 109 490 91 c 257
 500 67 l 257
 508 48 501 28 482 21 c 257
 434 0 380 -10 328 -10 c 257
 199 -10 75 64 75 260 c 257
 75 456 199 530 328 530 c 257
 380 530 434 520 482 499 c 257
 501 492 508 472 500 453 c 257
EndSplineSet
PickledDataWithLists: "(dp0
Vcom.schriftgestaltung.Glyphs.lastChange
p1
V2016-06-09 18:35:33 +0000
p2
s."
EndChar

StartChar: c.hex
Encoding: 65548 -1 169
GlifName: c.hex
Width: 575
VWidth: 0
Flags: HW
LayerCount: 2
Fore
SplineSet
114 875 m 258
 114 829 l 258
 114 812 105 804 89 804 c 258
 54 804 l 258
 37 804 29 813 29 829 c 258
 29 875 l 258
 29 891 38 900 54 900 c 258
 89 900 l 258
 105 900 114 891 114 875 c 258
258 875 m 258
 258 829 l 258
 258 812 249 804 233 804 c 258
 198 804 l 258
 181 804 173 813 173 829 c 258
 173 875 l 258
 173 891 182 900 198 900 c 258
 233 900 l 258
 249 900 258 891 258 875 c 258
EndSplineSet
Refer: 168 99 N 1 0 0 1 0 0 2
PickledDataWithLists: "(dp0
Vcom.schriftgestaltung.Glyphs.lastChange
p1
V2016-06-09 18:35:34 +0000
p2
s."
EndChar

StartChar: caron
Encoding: 711 711 171
GlifName: caron
Width: 575
VWidth: 0
Flags: HW
LayerCount: 2
Fore
SplineSet
113 685 m 258
 130 708 l 258
 140 721 152 723 165 714 c 258
 267 643 l 258
 275 637 278 634 288 634 c 256
 298 634 301 638 309 643 c 258
 411 714 l 258
 424 723 436 721 445 708 c 258
 462 685 l 258
 472 672 470 659 456 650 c 258
 352 585 l 258
 332 572 311 562 288 562 c 256
 265 562 245 571 224 584 c 258
 120 650 l 258
 106 659 103 672 113 685 c 258
EndSplineSet
PickledDataWithLists: "(dp0
Vcom.schriftgestaltung.Glyphs.lastChange
p1
V2016-05-18 20:16:32 +0000
p2
s."
EndChar

StartChar: cedilla
Encoding: 184 184 175
GlifName: cedilla
Width: 575
VWidth: 0
Flags: HW
AnchorPoint: "bottom" 302 0 mark 0
LayerCount: 2
Fore
SplineSet
313 -17 m 258
 290 -68 l 257
 313 -63 333 -61 351 -61 c 256
 426 -61 463 -96 463 -135 c 256
 463 -187 400 -246 275 -246 c 256
 250 -246 225 -242 197 -235 c 256
 181 -230 175 -218 181 -203 c 258
 185 -192 l 258
 190 -177 201 -172 216 -175 c 256
 237 -179 259 -181 275 -181 c 256
 336 -181 366 -160 366 -142 c 256
 366 -129 351 -119 321 -119 c 256
 313 -119 304 -120 294 -121 c 256
 281 -123 271 -121 261 -111 c 258
 233 -82 l 258
 223 -72 221 -61 227 -48 c 258
 247 -5 l 258
 253 8 262 14 277 13 c 258
 295 13 l 258
 314 12 321 1 313 -17 c 258
EndSplineSet
PickledDataWithLists: "(dp0
Vcom.schriftgestaltung.Glyphs.lastChange
p1
V2015-12-22 16:32:40 +0000
p2
s."
EndChar

StartChar: cent
Encoding: 162 162 176
GlifName: cent
Width: 575
VWidth: 0
Flags: HW
LayerCount: 2
Fore
SplineSet
248 455 m 257
 248 653 l 257
 248 674 263 688 283 688 c 257
 318 688 l 257
 338 688 353 674 353 653 c 257
 353 471 l 257
 248 455 l 257
353 40 m 257
 353 -153 l 257
 353 -174 338 -188 318 -188 c 257
 283 -188 l 257
 263 -188 248 -174 248 -153 c 257
 248 56 l 257
 353 40 l 257
EndSplineSet
Refer: 168 99 N 1 0 0 1 0 0 2
PickledDataWithLists: "(dp0
Vcom.schriftgestaltung.Glyphs.lastChange
p1
V2015-12-22 14:01:47 +0000
p2
s."
EndChar

StartChar: chi
Encoding: 967 967 177
GlifName: chi
Width: 575
VWidth: 0
Flags: HW
LayerCount: 2
Fore
SplineSet
389 124 m 258
 429 21 461 -22 494 -22 c 256
 499 -22 503 -22 509 -21 c 256
 530 -18 545 -30 548 -52 c 258
 551 -76 l 258
 554 -98 543 -113 521 -115 c 257
 512 -115 503 -116 494 -116 c 256
 407 -116 348 -55 292 89 c 258
 288 100 l 257
 145 -117 l 258
 133 -134 114 -138 97 -126 c 257
 77 -114 l 257
 60 -102 56 -83 68 -66 c 257
 245 209 l 257
 217 282 l 258
 177 385 145 428 112 428 c 256
 107 428 103 428 97 427 c 257
 75 426 61 437 58 458 c 258
 55 482 l 258
 52 504 63 519 85 521 c 257
 94 521 103 522 112 522 c 256
 199 522 258 461 314 317 c 257
 432 499 l 257
 440 513 453 520 470 520 c 258
 509 520 l 258
 537 520 549 498 533 475 c 258
 357 206 l 257
 389 124 l 258
  PathStart: -2
EndSplineSet
PickledDataWithLists: "(dp0
Vcom.schriftgestaltung.Glyphs.lastChange
p1
V2015-12-22 12:54:05 +0000
p2
s."
EndChar

StartChar: circumflex
Encoding: 710 710 178
GlifName: circumflex
Width: 575
VWidth: 0
Flags: HW
AnchorPoint: "top" 288 500 mark 0
LayerCount: 2
Fore
SplineSet
129 552 m 257
 113 576 l 258
 103 590 106 602 120 611 c 258
 224 677 l 258
 245 691 265 700 288 700 c 256
 311 700 332 689 352 677 c 258
 456 611 l 258
 470 602 472 590 462 576 c 258
 445 553 l 258
 436 540 424 538 411 547 c 258
 309 619 l 258
 301 624 298 628 288 628 c 256
 278 628 275 624 267 619 c 258
 165 547 l 258
 152 538 140 540 129 552 c 257
EndSplineSet
PickledDataWithLists: "(dp0
Vcom.schriftgestaltung.Glyphs.lastChange
p1
V2015-12-22 16:32:40 +0000
p2
s."
EndChar

StartChar: colon
Encoding: 58 58 179
GlifName: colon
Width: 575
VWidth: 0
Flags: HW
LayerCount: 2
Fore
SplineSet
238 520 m 257
 338 520 l 257
 358 520 373 506 373 485 c 257
 373 395 l 257
 373 375 358 360 338 360 c 257
 238 360 l 257
 218 360 203 375 203 395 c 257
 203 485 l 257
 203 506 217 520 238 520 c 257
238 160 m 257
 338 160 l 257
 358 160 373 146 373 125 c 257
 373 35 l 257
 373 15 358 0 338 0 c 257
 238 0 l 257
 218 0 203 15 203 35 c 257
 203 125 l 257
 203 146 217 160 238 160 c 257
EndSplineSet
PickledDataWithLists: "(dp0
Vcom.schriftgestaltung.Glyphs.lastChange
p1
V2015-12-22 20:53:35 +0000
p2
s."
EndChar

StartChar: comma
Encoding: 44 44 180
GlifName: comma
Width: 575
VWidth: 0
Flags: HW
LayerCount: 2
Fore
SplineSet
238 160 m 258
 338 160 l 258
 360 160 373 147 373 125 c 258
 373 8 l 258
 373 -176 302 -247 118 -247 c 256
 96 -247 83 -234 83 -213 c 258
 83 -186 l 258
 83 -164 96 -151 117 -151 c 256
 227 -151 267 -112 268 0 c 257
 238 0 l 258
 217 0 203 14 203 35 c 258
 203 125 l 258
 203 147 216 160 238 160 c 258
EndSplineSet
PickledDataWithLists: "(dp0
Vcom.schriftgestaltung.Glyphs.lastChange
p1
V2015-12-22 20:53:49 +0000
p2
s."
EndChar

StartChar: copyright
Encoding: 169 169 181
GlifName: copyright
Width: 575
VWidth: 0
Flags: HW
LayerCount: 2
Fore
SplineSet
376 468 m 258
 366 459 l 258
 355 448 345 450 331 458 c 256
 319 465 304 469 289 469 c 258
 288 469 l 258
 265 469 241 458 225 440 c 256
 210 423 201 399 201 375 c 256
 201 352 210 328 225 310 c 256
 241 293 265 282 288 281 c 258
 289 281 l 258
 304 281 319 286 331 293 c 256
 345 301 355 302 366 291 c 258
 376 282 l 258
 388 271 389 257 375 247 c 256
 351 229 320 219 290 219 c 258
 287 219 l 258
 247 220 208 237 181 267 c 256
 154 296 138 335 138 375 c 256
 138 415 154 455 181 484 c 256
 208 513 247 531 287 531 c 257
 290 532 l 257
 320 532 351 521 375 503 c 256
 389 493 388 479 376 468 c 258
102 190 m 256
 54 238 26 307 26 375 c 256
 26 444 54 512 102 561 c 256
 151 609 219 637 288 637 c 256
 356 637 425 609 473 561 c 256
 522 512 550 444 550 375 c 256
 550 307 522 238 473 190 c 256
 425 141 356 113 288 113 c 256
 219 113 151 141 102 190 c 256
  PathStart: -2
429 234 m 256
 466 271 487 323 487 375 c 256
 487 427 466 479 429 516 c 256
 392 553 340 575 288 575 c 256
 236 575 184 553 147 516 c 256
 110 479 88 427 88 375 c 256
 88 323 110 271 147 234 c 256
 184 197 236 176 288 176 c 256
 340 176 392 197 429 234 c 256
  PathStart: -2
EndSplineSet
PickledDataWithLists: "(dp0
Vcom.schriftgestaltung.Glyphs.lastChange
p1
V2015-12-22 14:24:21 +0000
p2
s."
EndChar

StartChar: currency
Encoding: 164 164 182
GlifName: currency
Width: 575
VWidth: 0
Flags: HW
LayerCount: 2
Fore
SplineSet
543 435 m 257
 467 358 l 257
 486 326 497 288 497 250 c 257
 497 213 486 174 467 142 c 257
 543 66 l 257
 558 51 558 30 542 17 c 257
 519 -4 l 257
 504 -18 484 -18 470 -3 c 257
 396 71 l 257
 364 52 325 41 288 41 c 257
 250 41 212 52 180 71 c 257
 106 -3 l 257
 91 -18 71 -18 56 -4 c 257
 33 17 l 257
 18 31 18 51 32 66 c 257
 108 142 l 257
 89 175 79 213 79 250 c 257
 79 288 89 326 108 358 c 257
 32 435 l 257
 18 449 18 470 33 485 c 257
 56 504 l 257
 71 518 91 518 106 504 c 257
 180 430 l 257
 212 449 250 459 288 459 c 257
 325 459 363 449 396 430 c 257
 470 504 l 257
 484 518 504 518 519 505 c 257
 541 485 l 257
 558 471 558 449 543 435 c 257
175 250 m 257
 175 188 226 138 288 138 c 257
 350 138 400 188 400 250 c 257
 400 312 350 363 288 363 c 257
 226 363 175 312 175 250 c 257
  PathStart: -2
EndSplineSet
PickledDataWithLists: "(dp0
Vcom.schriftgestaltung.Glyphs.lastChange
p1
V2015-12-22 14:02:18 +0000
p2
s."
EndChar

StartChar: d
Encoding: 100 100 183
GlifName: d
Width: 575
VWidth: 0
Flags: HW
AnchorPoint: "center" 288 250 basechar 0
AnchorPoint: "top" 409 520 basechar 0
AnchorPoint: "topright" 565 500 basechar 0
LayerCount: 2
Fore
SplineSet
500 735 m 257
 500 50 l 257
 500 38 492 25 481 20 c 257
 481 20 l 257
 433 0 380 -10 328 -10 c 257
 199 -10 75 64 75 260 c 257
 75 456 199 530 328 530 c 257
 350 530 373 528 395 524 c 257
 395 735 l 257
 395 755 410 770 430 770 c 257
 465 770 l 257
 485 770 500 755 500 735 c 257
395 95 m 257
 395 431 l 257
 376 434 357 436 338 436 c 257
 254 436 181 397 181 260 c 257
 181 131 244 88 328 88 c 257
 352 88 372 90 395 95 c 257
EndSplineSet
PickledDataWithLists: "(dp0
Vcom.schriftgestaltung.Glyphs.lastChange
p1
V2016-06-09 18:35:33 +0000
p2
s."
EndChar

StartChar: d.hex
Encoding: 65549 -1 184
GlifName: d.hex
Width: 575
VWidth: 0
Flags: HW
LayerCount: 2
Fore
SplineSet
114 875 m 258
 114 829 l 258
 114 812 105 804 89 804 c 258
 54 804 l 258
 37 804 29 813 29 829 c 258
 29 875 l 258
 29 891 38 900 54 900 c 258
 89 900 l 258
 105 900 114 891 114 875 c 258
258 875 m 258
 258 829 l 258
 258 812 249 804 233 804 c 258
 198 804 l 258
 181 804 173 813 173 829 c 258
 173 875 l 258
 173 891 182 900 198 900 c 258
 233 900 l 258
 249 900 258 891 258 875 c 258
546 875 m 258
 546 829 l 258
 546 812 537 804 521 804 c 258
 486 804 l 258
 469 804 461 813 461 829 c 258
 461 875 l 258
 461 891 470 900 486 900 c 258
 521 900 l 258
 537 900 546 891 546 875 c 258
EndSplineSet
Refer: 183 100 N 1 0 0 1 0 0 2
PickledDataWithLists: "(dp0
Vcom.schriftgestaltung.Glyphs.lastChange
p1
V2016-06-09 18:35:34 +0000
p2
s."
EndChar

StartChar: dagger
Encoding: 8224 8224 185
GlifName: dagger
Width: 575
VWidth: 0
Flags: HW
LayerCount: 2
Fore
SplineSet
534 574 m 257
 534 547 l 257
 534 527 520 512 499 512 c 257
 340 512 l 257
 340 -114 l 257
 340 -134 326 -149 305 -149 c 257
 270 -149 l 257
 250 -149 235 -134 235 -114 c 257
 235 512 l 257
 76 512 l 257
 56 512 41 527 41 547 c 257
 41 573 l 257
 41 594 56 609 76 609 c 257
 235 609 l 257
 235 784 l 257
 235 804 250 819 270 819 c 257
 305 819 l 257
 326 819 340 805 340 784 c 257
 340 609 l 257
 499 609 l 257
 520 609 534 594 534 574 c 257
EndSplineSet
PickledDataWithLists: "(dp0
Vcom.schriftgestaltung.Glyphs.lastChange
p1
V2015-12-22 14:26:24 +0000
p2
s."
EndChar

StartChar: daggerdbl
Encoding: 8225 8225 186
GlifName: daggerdbl
Width: 575
VWidth: 0
Flags: HW
LayerCount: 2
Fore
SplineSet
499 512 m 257
 340 512 l 257
 340 158 l 257
 499 158 l 257
 520 158 534 144 534 123 c 257
 534 97 l 257
 534 77 520 62 499 62 c 257
 340 62 l 257
 340 -114 l 257
 340 -135 326 -149 305 -149 c 257
 270 -149 l 257
 250 -149 235 -134 235 -114 c 257
 235 62 l 257
 76 62 l 257
 56 62 41 77 41 97 c 257
 41 123 l 257
 41 144 56 158 76 158 c 257
 235 158 l 257
 235 512 l 257
 76 512 l 257
 56 512 41 527 41 547 c 257
 41 573 l 257
 41 594 56 609 76 609 c 257
 235 609 l 257
 235 784 l 257
 235 804 250 819 270 819 c 257
 305 819 l 257
 326 819 340 805 340 784 c 257
 340 609 l 257
 499 609 l 257
 520 609 534 594 534 574 c 257
 534 547 l 257
 534 527 520 512 499 512 c 257
EndSplineSet
PickledDataWithLists: "(dp0
Vcom.schriftgestaltung.Glyphs.lastChange
p1
V2015-12-22 14:32:11 +0000
p2
s."
EndChar

StartChar: degree
Encoding: 176 176 189
GlifName: degree
Width: 575
VWidth: 0
Flags: HW
LayerCount: 2
Fore
SplineSet
95 538 m 256
 95 647 179 730 291 730 c 256
 399 730 480 647 480 538 c 256
 480 429 399 346 291 346 c 256
 179 346 95 429 95 538 c 256
  PathStart: -2
200 538 m 256
 200 483 238 443 288 443 c 256
 338 443 375 484 375 538 c 256
 375 592 338 633 288 633 c 256
 238 633 200 593 200 538 c 256
  PathStart: -2
EndSplineSet
PickledDataWithLists: "(dp0
Vcom.schriftgestaltung.Glyphs.lastChange
p1
V2016-05-30 08:37:06 +0000
p2
s."
EndChar

StartChar: delta
Encoding: 948 948 190
GlifName: delta
Width: 575
VWidth: 0
Flags: HW
LayerCount: 2
Fore
SplineSet
160 248 m 256
 160 145 208 82 285 82 c 256
 372 82 415 138 415 253 c 256
 415 295 405 339 385 383 c 257
 351 390 318 393 285 393 c 256
 208 393 160 338 160 248 c 256
  PathStart: -2
477 623 m 258
 296 623 l 257
 434 521 520 379 520 251 c 257
 520 76 439 -15 285 -15 c 256
 144 -15 55 86 55 248 c 256
 55 397 143 491 285 491 c 256
 295 491 305 491 314 490 c 257
 270 539 217 582 156 615 c 257
 140 623 132 636 132 653 c 258
 132 685 l 258
 132 706 146 720 167 720 c 258
 477 720 l 258
 498 720 512 706 512 685 c 258
 512 658 l 258
 512 637 498 623 477 623 c 258
EndSplineSet
PickledDataWithLists: "(dp0
Vcom.schriftgestaltung.Glyphs.lastChange
p1
V2016-05-30 08:32:37 +0000
p2
s."
EndChar

StartChar: dieresis
Encoding: 168 168 191
GlifName: dieresis
Width: 575
VWidth: 0
Flags: HW
AnchorPoint: "top" 288 500 mark 0
LayerCount: 2
Fore
SplineSet
227 675 m 258
 227 629 l 258
 227 612 219 604 202 604 c 258
 167 604 l 258
 151 604 142 613 142 629 c 258
 142 675 l 258
 142 691 151 700 167 700 c 258
 202 700 l 258
 219 700 227 691 227 675 c 258
434 675 m 258
 434 629 l 258
 434 612 425 604 409 604 c 258
 374 604 l 258
 357 604 349 613 349 629 c 258
 349 675 l 258
 349 691 358 700 374 700 c 258
 409 700 l 258
 425 700 434 691 434 675 c 258
EndSplineSet
PickledDataWithLists: "(dp0
Vcom.schriftgestaltung.Glyphs.lastChange
p1
V2015-12-22 16:32:41 +0000
p2
s."
EndChar

StartChar: divide
Encoding: 247 247 192
GlifName: divide
Width: 575
VWidth: 0
Flags: HW
LayerCount: 2
Fore
SplineSet
340 495 m 257
 340 449 l 257
 340 428 326 414 305 414 c 257
 270 414 l 257
 250 414 235 429 235 449 c 257
 235 495 l 257
 235 515 250 530 270 530 c 257
 305 530 l 257
 326 530 340 515 340 495 c 257
340 72 m 257
 340 25 l 257
 340 4 326 -10 305 -10 c 257
 270 -10 l 257
 250 -10 235 4 235 25 c 257
 235 72 l 257
 235 92 250 107 270 107 c 257
 305 107 l 257
 326 107 340 92 340 72 c 257
75 247 m 257
 75 273 l 257
 75 294 90 309 110 309 c 257
 465 309 l 257
 486 309 500 294 500 274 c 257
 500 247 l 257
 500 227 486 212 465 212 c 257
 110 212 l 257
 90 212 75 227 75 247 c 257
EndSplineSet
PickledDataWithLists: "(dp0
Vcom.schriftgestaltung.Glyphs.lastChange
p1
V2015-12-22 14:06:58 +0000
p2
s."
EndChar

StartChar: dkshade
Encoding: 9619 9619 193
GlifName: dkshade
Width: 575
VWidth: 0
Flags: HW
LayerCount: 2
Fore
SplineSet
0 -250 m 257
 0 -194 l 257
 28 -250 l 257
 0 -250 l 257
71 -250 m 257
 0 -108 l 257
 0 -52 l 257
 99 -250 l 257
 71 -250 l 257
142 -250 m 257
 0 34 l 257
 0 90 l 257
 170 -250 l 257
 142 -250 l 257
213 -250 m 257
 0 176 l 257
 0 232 l 257
 241 -250 l 257
 213 -250 l 257
284 -250 m 257
 0 318 l 257
 0 374 l 257
 312 -250 l 257
 284 -250 l 257
355 -250 m 257
 0 460 l 257
 0 516 l 257
 383 -250 l 257
 355 -250 l 257
426 -250 m 257
 0 602 l 257
 0 658 l 257
 454 -250 l 257
 426 -250 l 257
497 -250 m 257
 0 744 l 257
 0 800 l 257
 525 -250 l 257
 497 -250 l 257
575 -250 m 257
 0 900 l 257
 28 900 l 257
 575 -194 l 257
 575 -250 l 257
575 -108 m 257
 71 900 l 257
 99 900 l 257
 575 -52 l 257
 575 -108 l 257
575 34 m 257
 142 900 l 257
 170 900 l 257
 575 90 l 257
 575 34 l 257
575 176 m 257
 213 900 l 257
 241 900 l 257
 575 232 l 257
 575 176 l 257
575 318 m 257
 284 900 l 257
 312 900 l 257
 575 374 l 257
 575 318 l 257
575 460 m 257
 355 900 l 257
 383 900 l 257
 575 516 l 257
 575 460 l 257
575 602 m 257
 426 900 l 257
 454 900 l 257
 575 658 l 257
 575 602 l 257
575 744 m 257
 497 900 l 257
 525 900 l 257
 575 800 l 257
 575 744 l 257
EndSplineSet
PickledDataWithLists: "(dp0
Vcom.schriftgestaltung.Glyphs.lastChange
p1
V2016-06-10 08:26:49 +0000
p2
s."
EndChar

StartChar: dnblock
Encoding: 9604 9604 194
GlifName: dnblock
Width: 575
VWidth: 0
Flags: HW
LayerCount: 2
Fore
SplineSet
0 -250 m 257
 0 325 l 257
 575 325 l 257
 575 -250 l 257
 0 -250 l 257
EndSplineSet
PickledDataWithLists: "(dp0
Vcom.schriftgestaltung.Glyphs.lastChange
p1
V2016-06-10 08:26:49 +0000
p2
s."
EndChar

StartChar: dollar
Encoding: 36 36 195
GlifName: dollar
Width: 575
VWidth: 0
Flags: HW
LayerCount: 2
Fore
SplineSet
289 363 m 256
 441 346 528 285 528 176 c 256
 528 77 461 14 340 -4 c 257
 340 -165 l 258
 340 -185 326 -200 305 -200 c 258
 270 -200 l 258
 250 -200 235 -186 235 -165 c 258
 235 -10 l 257
 195 -9 135 -6 80 3 c 257
 60 7 48 25 52 45 c 258
 58 71 l 258
 63 91 80 101 99 99 c 257
 100 99 l 257
 160 88 230 87 259 87 c 256
 366 87 422 122 422 182 c 256
 422 226 376 257 287 266 c 256
 138 282 50 327 50 448 c 256
 50 549 117 611 235 626 c 257
 235 785 l 258
 235 806 250 820 270 820 c 258
 305 820 l 258
 325 820 340 806 340 785 c 258
 340 629 l 257
 374 628 417 625 456 618 c 257
 476 613 488 595 483 574 c 258
 476 548 l 258
 471 530 454 519 434 523 c 256
 384 532 321 534 297 534 c 256
 203 534 155 504 155 449 c 256
 155 393 203 373 289 363 c 256
  PathStart: -2
EndSplineSet
PickledDataWithLists: "(dp0
Vcom.schriftgestaltung.Glyphs.lastChange
p1
V2015-12-22 14:03:19 +0000
p2
s."
EndChar

StartChar: dotaccent
Encoding: 729 729 196
GlifName: dotaccent
Width: 575
VWidth: 0
Flags: HW
AnchorPoint: "top" 285 500 mark 0
LayerCount: 2
Fore
SplineSet
347 675 m 258
 347 608 l 258
 347 592 339 583 322 583 c 258
 247 583 l 258
 231 583 222 592 222 608 c 258
 222 675 l 258
 222 691 231 700 247 700 c 258
 322 700 l 258
 339 700 347 691 347 675 c 258
EndSplineSet
PickledDataWithLists: "(dp0
Vcom.schriftgestaltung.Glyphs.lastChange
p1
V2015-12-22 16:32:41 +0000
p2
s."
EndChar

StartChar: dotbelowcomb
Encoding: 803 803 197
GlifName: dotbelowcomb
Width: 575
VWidth: 0
Flags: HW
LayerCount: 2
Fore
SplineSet
200 -169 m 258
 200 -81 l 258
 200 -60 214 -46 235 -46 c 258
 340 -46 l 258
 362 -46 375 -59 375 -81 c 258
 375 -169 l 258
 375 -191 362 -204 340 -204 c 258
 235 -204 l 258
 214 -204 200 -190 200 -169 c 258
EndSplineSet
PickledDataWithLists: "(dp0
Vcom.schriftgestaltung.Glyphs.lastChange
p1
V2015-12-22 14:33:09 +0000
p2
s."
EndChar

StartChar: dotlessi
Encoding: 305 305 198
GlifName: dotlessi
Width: 575
VWidth: 0
Flags: HW
AnchorPoint: "ogonek" 517 10 basechar 0
AnchorPoint: "bottom" 288 0 basechar 0
AnchorPoint: "top" 268 570 basechar 0
LayerCount: 2
Back
SplineSet
340 97 m 257
 340 485 l 257
 340 506 325 520 305 520 c 257
 143 520 l 257
 123 520 108 506 108 485 c 257
 108 459 l 257
 108 439 123 424 143 424 c 257
 235 424 l 257
 235 97 l 257
 110 97 l 257
 90 97 75 82 75 62 c 257
 75 35 l 257
 75 15 90 0 110 0 c 257
 465 0 l 257
 485 0 500 15 500 35 c 257
 500 62 l 257
 500 82 485 97 465 97 c 257
 340 97 l 257
EndSplineSet
Fore
SplineSet
504 44 m 257
 503 45 l 257
 511 26 501 5 479 0 c 256
 441 -9 409 -10 389 -10 c 256
 271 -10 215 46 215 160 c 258
 215 424 l 257
 113 424 l 258
 93 424 78 439 78 459 c 258
 78 485 l 258
 78 506 93 520 113 520 c 258
 285 520 l 258
 305 520 320 506 320 485 c 258
 320 160 l 258
 320 107 336 88 389 87 c 256
 405 87 428 88 452 94 c 257
 471 97 488 89 495 71 c 257
 496 70 l 257
 504 44 l 257
EndSplineSet
PickledDataWithLists: "(dp0
Vcom.schriftgestaltung.Glyphs.lastChange
p1
V2016-06-09 18:35:33 +0000
p2
s."
EndChar

StartChar: e
Encoding: 101 101 199
GlifName: e
Width: 575
VWidth: 0
Flags: HW
AnchorPoint: "ogonek" 518 5 basechar 0
AnchorPoint: "bottom" 288 0 basechar 0
AnchorPoint: "top" 288 570 basechar 0
LayerCount: 2
Fore
SplineSet
495 91 m 258
 505 67 l 258
 513 46 506 29 487 21 c 256
 439 1 381 -10 328 -10 c 256
 170 -10 65 91 65 260 c 256
 65 420 164 530 292 530 c 256
 412 530 510 432 510 295 c 258
 510 272 l 258
 510 251 496 237 475 237 c 258
 171 237 l 257
 178 138 237 88 328 88 c 256
 367 88 406 95 450 110 c 257
 470 118 487 111 495 91 c 258
405 334 m 257
 399 392 347 434 293 434 c 256
 241 434 189 393 179 334 c 257
 405 334 l 257
  PathStart: -2
EndSplineSet
PickledDataWithLists: "(dp0
Vcom.schriftgestaltung.Glyphs.lastChange
p1
V2016-06-09 18:35:33 +0000
p2
s."
EndChar

StartChar: e.hex
Encoding: 65550 -1 200
GlifName: e.hex
Width: 575
VWidth: 0
Flags: HW
LayerCount: 2
Fore
SplineSet
114 875 m 258
 114 829 l 258
 114 812 105 804 89 804 c 258
 54 804 l 258
 37 804 29 813 29 829 c 258
 29 875 l 258
 29 891 38 900 54 900 c 258
 89 900 l 258
 105 900 114 891 114 875 c 258
402 875 m 258
 402 829 l 258
 402 812 393 804 377 804 c 258
 342 804 l 258
 325 804 317 813 317 829 c 258
 317 875 l 258
 317 891 326 900 342 900 c 258
 377 900 l 258
 393 900 402 891 402 875 c 258
258 875 m 258
 258 829 l 258
 258 812 249 804 233 804 c 258
 198 804 l 258
 181 804 173 813 173 829 c 258
 173 875 l 258
 173 891 182 900 198 900 c 258
 233 900 l 258
 249 900 258 891 258 875 c 258
EndSplineSet
Refer: 199 101 N 1 0 0 1 0 0 2
PickledDataWithLists: "(dp0
Vcom.schriftgestaltung.Glyphs.lastChange
p1
V2016-06-09 18:35:34 +0000
p2
s."
EndChar

StartChar: eight
Encoding: 56 56 207
GlifName: eight
Width: 575
VWidth: 0
Flags: HW
LayerCount: 2
Fore
SplineSet
506 558 m 256
 506 488 467 424 391 370 c 257
 463 328 529 274 529 179 c 257
 529 62 436 -10 288 -10 c 256
 151 -10 47 68 47 173 c 256
 47 244 95 308 192 367 c 257
 108 415 70 472 70 551 c 256
 70 656 160 730 288 730 c 256
 415 730 506 658 506 558 c 256
  PathStart: -2
288 634 m 256
 223 634 175 598 175 550 c 256
 175 502 219 456 307 414 c 257
 362 454 400 510 400 553 c 256
 400 599 352 634 288 634 c 256
  PathStart: -2
152 181 m 256
 152 124 205 87 288 87 c 256
 371 87 424 124 424 181 c 256
 424 236 378 280 278 325 c 257
 192 275 152 230 152 181 c 256
  PathStart: -2
EndSplineSet
PickledDataWithLists: "(dp0
Vcom.schriftgestaltung.Glyphs.lastChange
p1
V2015-12-22 20:52:45 +0000
p2
s."
EndChar

StartChar: eight.dnom
Encoding: 65551 -1 208
GlifName: eight.dnom
Width: 250
VWidth: 0
Flags: HW
LayerCount: 2
Fore
SplineSet
260 274 m 257
 260 239 240 207 206 181 c 257
 241 159 272 131 272 85 c 257
 272 22 226 -15 144 -15 c 257
 63 -15 17 21 17 84 c 257
 17 123 41 151 85 179 c 257
 54 198 28 226 28 273 c 257
 28 331 70 365 144 365 c 257
 218 365 260 332 260 274 c 257
  PathStart: -2
144 307 m 257
 110 307 95 295 95 273 c 257
 95 243 119 227 152 209 c 257
 177 230 193 251 193 273 c 257
 193 295 178 307 144 307 c 257
  PathStart: -2
83 88 m 257
 83 59 102 44 144 44 c 257
 186 44 205 59 205 87 c 257
 205 121 176 135 140 151 c 257
 103 131 83 114 83 88 c 257
  PathStart: -2
EndSplineSet
PickledDataWithLists: "(dp0
Vcom.schriftgestaltung.Glyphs.Export
p1
I00
sVcom.schriftgestaltung.Glyphs.lastChange
p2
V2015-12-22 13:07:21 +0000
p3
s."
EndChar

StartChar: eight.hex
Encoding: 65552 -1 209
GlifName: eight.hex
Width: 575
VWidth: 0
Flags: HW
LayerCount: 2
Fore
SplineSet
114 875 m 258
 114 829 l 258
 114 812 105 804 89 804 c 258
 54 804 l 258
 37 804 29 813 29 829 c 258
 29 875 l 258
 29 891 38 900 54 900 c 258
 89 900 l 258
 105 900 114 891 114 875 c 258
EndSplineSet
Refer: 207 56 N 1 0 0 1 0 0 2
PickledDataWithLists: "(dp0
Vcom.schriftgestaltung.Glyphs.lastChange
p1
V2016-02-10 13:40:53 +0000
p2
s."
EndChar

StartChar: emdash
Encoding: 8212 8212 213
GlifName: emdash
Width: 575
VWidth: 0
Flags: HW
LayerCount: 2
Fore
SplineSet
0 247 m 258
 0 273 l 258
 0 295 13 309 35 309 c 258
 540 309 l 258
 561 309 575 295 575 274 c 258
 575 247 l 258
 575 226 561 212 540 212 c 258
 35 212 l 258
 14 212 0 226 0 247 c 258
EndSplineSet
PickledDataWithLists: "(dp0
Vcom.schriftgestaltung.Glyphs.lastChange
p1
V2016-05-22 17:00:36 +0000
p2
s."
EndChar

StartChar: emptyset
Encoding: 8709 8709 214
GlifName: emptyset
Width: 575
VWidth: 0
Flags: HW
LayerCount: 2
Fore
SplineSet
566 474 m 257
 488 395 l 257
 508 361 520 319 520 275 c 257
 520 145 416 40 288 40 c 257
 243 40 201 52 166 74 c 257
 92 0 l 257
 78 -15 58 -15 43 0 c 257
 15 28 l 257
 1 43 1 63 15 77 c 257
 89 151 l 257
 67 186 55 230 55 275 c 257
 55 405 159 510 288 510 c 257
 334 510 377 497 412 474 c 257
 489 551 l 257
 504 566 524 566 538 551 c 257
 566 523 l 257
 581 509 581 489 566 474 c 257
167 229 m 257
 334 396 l 257
 320 402 305 405 288 405 c 257
 217 405 159 347 159 275 c 257
 159 258 162 243 167 229 c 257
409 317 m 257
 245 152 l 257
 258 148 272 146 288 146 c 257
 359 146 416 203 416 275 c 257
 416 290 414 304 409 317 c 257
EndSplineSet
PickledDataWithLists: "(dp0
Vcom.schriftgestaltung.Glyphs.lastChange
p1
V2015-12-22 14:07:55 +0000
p2
s."
EndChar

StartChar: endash
Encoding: 8211 8211 215
GlifName: endash
Width: 575
VWidth: 0
Flags: HW
LayerCount: 2
Fore
SplineSet
150 247 m 258
 150 273 l 258
 150 295 163 309 185 309 c 258
 390 309 l 258
 411 309 425 295 425 274 c 258
 425 247 l 258
 425 226 411 212 390 212 c 258
 185 212 l 258
 164 212 150 226 150 247 c 258
EndSplineSet
PickledDataWithLists: "(dp0
Vcom.schriftgestaltung.Glyphs.lastChange
p1
V2016-05-22 12:19:24 +0000
p2
s."
EndChar

StartChar: epsilon
Encoding: 949 949 217
GlifName: epsilon
Width: 575
VWidth: 0
Flags: HW
LayerCount: 2
Fore
SplineSet
508 39 m 257
 508 38 l 257
 512 15 501 -1 480 -4 c 256
 443 -10 394 -13 342 -13 c 256
 167 -13 75 37 75 137 c 256
 75 193 113 235 182 259 c 257
 118 281 85 322 85 380 c 256
 85 474 182 530 342 530 c 256
 394 530 443 527 479 521 c 256
 501 518 512 502 508 479 c 257
 508 478 l 257
 501 451 l 257
 495 432 481 422 460 425 c 257
 459 425 l 257
 435 430 394 433 342 434 c 256
 246 434 190 413 190 380 c 256
 190 339 254 307 342 307 c 256
 363 307 377 293 377 272 c 258
 377 245 l 258
 377 224 363 210 342 210 c 256
 252 210 180 176 180 137 c 256
 180 102 235 83 342 83 c 256
 394 84 435 87 459 92 c 257
 460 92 l 257
 481 95 495 85 501 66 c 257
 508 39 l 257
EndSplineSet
PickledDataWithLists: "(dp0
Vcom.schriftgestaltung.Glyphs.lastChange
p1
V2016-05-30 08:32:45 +0000
p2
s."
EndChar

StartChar: equal
Encoding: 61 61 218
GlifName: equal
Width: 575
VWidth: 0
Flags: HW
LayerCount: 2
Fore
SplineSet
41 362 m 257
 41 388 l 257
 41 409 56 424 76 424 c 257
 499 424 l 257
 520 424 534 409 534 389 c 257
 534 362 l 257
 534 342 520 327 499 327 c 257
 76 327 l 257
 56 327 41 342 41 362 c 257
41 132 m 257
 41 158 l 257
 41 179 56 194 76 194 c 257
 499 194 l 257
 520 194 534 179 534 159 c 257
 534 132 l 257
 534 112 520 97 499 97 c 257
 76 97 l 257
 56 97 41 112 41 132 c 257
EndSplineSet
PickledDataWithLists: "(dp0
Vcom.schriftgestaltung.Glyphs.lastChange
p1
V2015-12-22 14:08:13 +0000
p2
sVcom.typemytype.robofont.layerData
p3
(dp4
VBold Apr 12 15, 11:11
p5
(dp6
Vanchors
p7
(lp8
sVcomponents
p9
(lp10
sVcontours
p11
(lp12
(dp13
Vpoints
p14
(lp15
(dp16
VsegmentType
p17
Vline
p18
sVsmooth
p19
I00
sVx
p20
I41
sVy
p21
I362
sa(dp22
g19
I00
sg20
I41
sg21
I342
sa(dp23
g19
I00
sg20
I56
sg21
I327
sa(dp24
g17
Vcurve
p25
sg19
I00
sg20
I76
sg21
I327
sa(dp26
g17
Vline
p27
sg19
I00
sg20
I499
sg21
I327
sa(dp28
g19
I00
sg20
I520
sg21
I327
sa(dp29
g19
I00
sg20
I534
sg21
I342
sa(dp30
g17
Vcurve
p31
sg19
I00
sg20
I534
sg21
I362
sa(dp32
g17
Vline
p33
sg19
I00
sg20
I534
sg21
I389
sa(dp34
g19
I00
sg20
I534
sg21
I409
sa(dp35
g19
I00
sg20
I520
sg21
I424
sa(dp36
g17
Vcurve
p37
sg19
I00
sg20
I499
sg21
I424
sa(dp38
g17
Vline
p39
sg19
I00
sg20
I76
sg21
I424
sa(dp40
g19
I00
sg20
I56
sg21
I424
sa(dp41
g19
I00
sg20
I41
sg21
I409
sa(dp42
g17
Vcurve
p43
sg19
I00
sg20
I41
sg21
I388
sasa(dp44
g14
(lp45
(dp46
g17
Vline
p47
sg19
I00
sg20
I41
sg21
I132
sa(dp48
g19
I00
sg20
I41
sg21
I112
sa(dp49
g19
I00
sg20
I56
sg21
I97
sa(dp50
g17
Vcurve
p51
sg19
I00
sg20
I76
sg21
I97
sa(dp52
g17
Vline
p53
sg19
I00
sg20
I499
sg21
I97
sa(dp54
g19
I00
sg20
I520
sg21
I97
sa(dp55
g19
I00
sg20
I534
sg21
I112
sa(dp56
g17
Vcurve
p57
sg19
I00
sg20
I534
sg21
I132
sa(dp58
g17
Vline
p59
sg19
I00
sg20
I534
sg21
I159
sa(dp60
g19
I00
sg20
I534
sg21
I179
sa(dp61
g19
I00
sg20
I520
sg21
I194
sa(dp62
g17
Vcurve
p63
sg19
I00
sg20
I499
sg21
I194
sa(dp64
g17
Vline
p65
sg19
I00
sg20
I76
sg21
I194
sa(dp66
g19
I00
sg20
I56
sg21
I194
sa(dp67
g19
I00
sg20
I41
sg21
I179
sa(dp68
g17
Vcurve
p69
sg19
I00
sg20
I41
sg21
I158
sasasVlib
p70
(dp71
sVname
p72
Vequal
p73
sVunicodes
p74
(lp75
sVwidth
p76
I575
sss."
EndChar

StartChar: equivalence
Encoding: 8801 8801 219
GlifName: equivalence
Width: 575
VWidth: 0
Flags: HW
LayerCount: 2
Fore
SplineSet
480 60 m 257
 95 60 l 257
 75 60 60 75 60 95 c 257
 60 122 l 257
 60 142 75 157 95 157 c 257
 480 157 l 257
 501 157 515 142 515 122 c 257
 515 95 l 257
 515 75 501 60 480 60 c 257
480 212 m 257
 95 212 l 257
 75 212 60 227 60 247 c 257
 60 274 l 257
 60 294 75 309 95 309 c 257
 480 309 l 257
 501 309 515 294 515 274 c 257
 515 247 l 257
 515 227 501 212 480 212 c 257
480 363 m 257
 95 363 l 257
 75 363 60 378 60 398 c 257
 60 425 l 257
 60 445 75 460 95 460 c 257
 480 460 l 257
 501 460 515 445 515 425 c 257
 515 398 l 257
 515 378 501 363 480 363 c 257
EndSplineSet
PickledDataWithLists: "(dp0
Vcom.schriftgestaltung.Glyphs.lastChange
p1
V2015-12-22 14:08:32 +0000
p2
s."
EndChar

StartChar: eta
Encoding: 951 951 220
GlifName: eta
Width: 575
VWidth: 0
Flags: HW
LayerCount: 2
Fore
SplineSet
85 25 m 258
 85 471 l 258
 85 486 93 495 108 498 c 256
 181 509 245 510 278 510 c 256
 426 510 490 454 490 308 c 258
 490 -225 l 258
 490 -241 482 -250 465 -250 c 258
 430 -250 l 258
 414 -250 405 -241 405 -225 c 258
 405 308 l 258
 405 402 369 434 278 434 c 256
 254 434 215 433 170 430 c 257
 170 25 l 258
 170 9 162 0 145 0 c 258
 110 0 l 258
 94 0 85 9 85 25 c 258
EndSplineSet
PickledDataWithLists: "(dp0
Vcom.schriftgestaltung.Glyphs.lastChange
p1
V2016-05-30 08:32:52 +0000
p2
s."
EndChar

StartChar: eth
Encoding: 240 240 221
GlifName: eth
Width: 575
VWidth: 0
Flags: HW
LayerCount: 2
Fore
SplineSet
541 636 m 258
 550 611 l 258
 557 591 549 573 529 567 c 257
 487 551 l 257
 517 482 532 399 532 306 c 256
 532 103 447 -10 292 -10 c 256
 161 -10 69 84 69 220 c 256
 69 351 164 449 290 449 c 256
 335 449 377 437 419 412 c 257
 414 452 406 487 394 517 c 257
 301 484 l 257
 281 476 264 484 256 504 c 257
 256 505 l 257
 248 528 l 258
 240 550 248 568 268 574 c 257
 339 600 l 257
 318 617 293 627 266 631 c 257
 245 632 233 645 233 666 c 258
 234 695 l 258
 234 717 248 730 271 729 c 257
 336 722 393 690 437 636 c 257
 496 657 l 257
 516 665 533 657 541 636 c 258
175 220 m 256
 175 137 218 88 289 88 c 256
 373 88 425 168 426 302 c 257
 368 349 321 351 294 351 c 256
 224 351 175 298 175 220 c 256
  PathStart: -2
EndSplineSet
Refer: 281 175 N 0.1 0 0 0.1 0 0 2
PickledDataWithLists: "(dp0
Vcom.schriftgestaltung.Glyphs.lastChange
p1
V2016-06-09 18:35:33 +0000
p2
s."
EndChar

StartChar: exclam
Encoding: 33 33 222
GlifName: exclam
Width: 575
VWidth: 0
Flags: HW
LayerCount: 2
Fore
SplineSet
260 720 m 257
 315 720 l 257
 336 720 350 705 350 685 c 257
 340 240 l 257
 340 220 324 205 304 205 c 257
 271 205 l 257
 251 205 236 220 236 240 c 257
 225 685 l 257
 225 705 240 720 260 720 c 257
340 72 m 257
 340 25 l 257
 340 4 326 -10 305 -10 c 257
 270 -10 l 257
 250 -10 235 4 235 25 c 257
 235 72 l 257
 235 92 250 107 270 107 c 257
 305 107 l 257
 326 107 340 92 340 72 c 257
EndSplineSet
PickledDataWithLists: "(dp0
Vcom.schriftgestaltung.Glyphs.lastChange
p1
V2016-02-14 11:57:10 +0000
p2
s."
EndChar

StartChar: f
Encoding: 102 102 225
GlifName: f
Width: 575
VWidth: 0
Flags: HW
LayerCount: 2
Fore
SplineSet
506 717 m 257
 495 691 l 257
 487 672 468 664 450 672 c 257
 423 681 402 685 378 685 c 257
 326 685 292 660 292 559 c 257
 292 520 l 257
 445 520 l 257
 465 520 480 505 480 485 c 257
 480 459 l 257
 480 439 465 424 445 424 c 257
 291 424 l 257
 291 35 l 257
 291 15 276 0 256 0 c 257
 221 0 l 257
 200 0 186 15 186 35 c 257
 186 424 l 257
 100 424 l 257
 80 424 65 438 65 459 c 257
 65 485 l 257
 65 505 80 520 100 520 c 257
 186 520 l 257
 186 559 l 257
 186 726 280 783 378 783 c 257
 414 783 453 775 486 763 c 257
 507 756 514 736 506 717 c 257
EndSplineSet
PickledDataWithLists: "(dp0
Vcom.schriftgestaltung.Glyphs.lastChange
p1
V2016-06-09 18:35:33 +0000
p2
s."
EndChar

StartChar: f.hex
Encoding: 65557 -1 226
GlifName: f.hex
Width: 575
VWidth: 0
Flags: HW
LayerCount: 2
Fore
SplineSet
114 875 m 258
 114 829 l 258
 114 812 105 804 89 804 c 258
 54 804 l 258
 37 804 29 813 29 829 c 258
 29 875 l 258
 29 891 38 900 54 900 c 258
 89 900 l 258
 105 900 114 891 114 875 c 258
402 875 m 258
 402 829 l 258
 402 812 393 804 377 804 c 258
 342 804 l 258
 325 804 317 813 317 829 c 258
 317 875 l 258
 317 891 326 900 342 900 c 258
 377 900 l 258
 393 900 402 891 402 875 c 258
258 875 m 258
 258 829 l 258
 258 812 249 804 233 804 c 258
 198 804 l 258
 181 804 173 813 173 829 c 258
 173 875 l 258
 173 891 182 900 198 900 c 258
 233 900 l 258
 249 900 258 891 258 875 c 258
546 875 m 258
 546 829 l 258
 546 812 537 804 521 804 c 258
 486 804 l 258
 469 804 461 813 461 829 c 258
 461 875 l 258
 461 891 470 900 486 900 c 258
 521 900 l 258
 537 900 546 891 546 875 c 258
EndSplineSet
Refer: 225 102 N 1 0 0 1 0 0 2
PickledDataWithLists: "(dp0
Vcom.schriftgestaltung.Glyphs.lastChange
p1
V2016-06-09 18:35:34 +0000
p2
s."
EndChar

StartChar: five
Encoding: 53 53 227
GlifName: five
Width: 575
VWidth: 0
Flags: HW
LayerCount: 2
Fore
SplineSet
221 451 m 257
 263 451 l 257
 419 451 503 371 503 221 c 257
 503 71 414 -10 246 -10 c 257
 203 -10 160 -5 123 4 c 257
 102 10 93 29 98 48 c 257
 106 76 l 257
 112 95 130 104 149 99 c 257
 179 92 211 88 246 88 c 257
 347 88 397 133 397 221 c 257
 397 310 352 354 263 354 c 257
 198 354 l 257
 148 361 l 257
 127 364 116 380 117 400 c 257
 139 688 l 257
 140 707 156 720 176 720 c 257
 431 720 l 257
 452 720 466 706 466 685 c 257
 466 659 l 257
 466 639 452 624 431 624 c 257
 234 624 l 257
 221 451 l 257
EndSplineSet
PickledDataWithLists: "(dp0
Vcom.schriftgestaltung.Glyphs.lastChange
p1
V2015-12-22 20:52:19 +0000
p2
s."
EndChar

StartChar: five.dnom
Encoding: 65558 -1 228
GlifName: five.dnom
Width: 250
VWidth: 0
Flags: HW
LayerCount: 2
Fore
SplineSet
107 216 m 257
 127 216 l 258
 211 216 259 174 259 101 c 256
 259 27 210 -15 123 -15 c 256
 101 -15 78 -13 60 -8 c 256
 46 -4 40 9 42 21 c 258
 46 35 l 258
 49 45 64 53 77 50 c 256
 92 46 106 44 123 44 c 256
 170 44 192 63 192 101 c 256
 192 139 171 157 127 157 c 258
 95 157 l 258
 85 157 76 162 71 167 c 257
 50 191 l 257
 43 198 39 206 40 215 c 258
 58 340 l 258
 60 352 72 360 84 360 c 258
 221 360 l 258
 235 360 245 350 245 338 c 258
 245 325 l 258
 245 314 235 302 221 302 c 258
 120 302 l 257
 107 216 l 257
EndSplineSet
PickledDataWithLists: "(dp0
Vcom.schriftgestaltung.Glyphs.Export
p1
I00
sVcom.schriftgestaltung.Glyphs.lastChange
p2
V2015-12-22 13:06:15 +0000
p3
s."
EndChar

StartChar: five.hex
Encoding: 65559 -1 229
GlifName: five.hex
Width: 575
VWidth: 0
Flags: HW
LayerCount: 2
Fore
SplineSet
258 875 m 258
 258 829 l 258
 258 812 249 804 233 804 c 258
 198 804 l 258
 181 804 173 813 173 829 c 258
 173 875 l 258
 173 891 182 900 198 900 c 258
 233 900 l 258
 249 900 258 891 258 875 c 258
546 875 m 258
 546 891 537 900 521 900 c 258
 486 900 l 258
 470 900 461 891 461 875 c 258
 461 829 l 258
 461 813 469 804 486 804 c 258
 521 804 l 258
 537 804 546 812 546 829 c 258
 546 875 l 258
258 875 m 258
 258 891 249 900 233 900 c 258
 198 900 l 258
 182 900 173 891 173 875 c 258
 173 829 l 258
 173 813 181 804 198 804 c 258
 233 804 l 258
 249 804 258 812 258 829 c 258
 258 875 l 258
546 875 m 258
 546 829 l 258
 546 812 537 804 521 804 c 258
 486 804 l 258
 469 804 461 813 461 829 c 258
 461 875 l 258
 461 891 470 900 486 900 c 258
 521 900 l 258
 537 900 546 891 546 875 c 258
EndSplineSet
Refer: 227 53 N 1 0 0 1 0 0 2
PickledDataWithLists: "(dp0
Vcom.schriftgestaltung.Glyphs.lastChange
p1
V2016-02-10 13:20:16 +0000
p2
s."
EndChar

StartChar: florin
Encoding: 402 402 232
GlifName: florin
Width: 575
VWidth: 0
Flags: HW
LayerCount: 2
Fore
SplineSet
182 520 m 257
 197 611 l 258
 218 732 282 780 401 780 c 256
 429 780 474 778 524 769 c 256
 545 765 554 746 545 725 c 258
 534 699 l 258
 527 681 509 672 490 674 c 257
 446 682 409 684 388 684 c 256
 334 684 313 667 302 607 c 258
 287 520 l 257
 439 520 l 258
 460 520 473 504 469 483 c 258
 465 457 l 258
 461 438 446 424 425 424 c 258
 269 424 l 257
 183 -66 l 257
 180 -88 163 -100 144 -100 c 258
 109 -100 l 258
 88 -100 76 -85 78 -63 c 257
 164 424 l 257
 81 424 l 258
 61 424 46 439 50 461 c 258
 55 487 l 258
 59 506 74 520 94 520 c 258
 182 520 l 257
EndSplineSet
PickledDataWithLists: "(dp0
Vcom.schriftgestaltung.Glyphs.lastChange
p1
V2015-12-22 12:14:05 +0000
p2
s."
EndChar

StartChar: four
Encoding: 52 52 233
GlifName: four
Width: 575
VWidth: 0
Flags: HW
LayerCount: 2
Fore
SplineSet
441 241 m 257
 485 241 l 257
 506 241 520 226 520 206 c 257
 520 180 l 257
 520 160 506 145 485 145 c 257
 440 145 l 257
 440 35 l 257
 440 15 426 0 405 0 c 257
 370 0 l 257
 350 0 336 15 336 35 c 257
 336 145 l 257
 97 145 l 257
 77 145 63 159 63 179 c 257
 63 219 l 257
 63 232 66 243 71 254 c 257
 289 691 l 257
 298 711 312 720 335 720 c 257
 371 720 l 257
 396 720 411 699 399 676 c 257
 181 241 l 257
 336 241 l 257
 336 402 l 257
 336 422 351 437 371 437 c 257
 406 437 l 257
 426 437 441 422 441 402 c 257
 441 241 l 257
EndSplineSet
PickledDataWithLists: "(dp0
Vcom.schriftgestaltung.Glyphs.lastChange
p1
V2015-12-22 20:52:10 +0000
p2
sVcom.typemytype.robofont.layerData
p3
(dp4
VBold Aug 26 14, 22:57
p5
(dp6
Vanchors
p7
(lp8
sVcomponents
p9
(lp10
sVcontours
p11
(lp12
(dp13
Vpoints
p14
(lp15
(dp16
VsegmentType
p17
Vline
p18
sVsmooth
p19
I00
sVx
p20
I456
sVy
p21
I214
sa(dp22
g17
Vline
p23
sg19
I01
sg20
I456
sg21
I446
sa(dp24
g19
I00
sg20
I456
sg21
I471
sa(dp25
g19
I00
sg20
I438
sg21
I475
sa(dp26
g17
Vcurve
p27
sg19
I01
sg20
I427
sg21
I453
sa(dp28
g17
Vline
p29
sg19
I00
sg20
I307
sg21
I214
sa(dp30
g17
Vline
p31
sg19
I00
sg20
I222
sg21
I214
sa(dp32
g17
Vline
p33
sg19
I01
sg20
I449
sg21
I671
sa(dp34
g19
I00
sg20
I458
sg21
I688
sa(dp35
g19
I00
sg20
I450
sg21
I700
sa(dp36
g17
Vcurve
p37
sg19
I01
sg20
I431
sg21
I700
sa(dp38
g17
Vline
p39
sg19
I01
sg20
I310
sg21
I700
sa(dp40
g19
I00
sg20
I290
sg21
I700
sa(dp41
g19
I00
sg20
I281
sg21
I694
sa(dp42
g17
Vcurve
p43
sg19
I01
sg20
I273
sg21
I677
sa(dp44
g17
Vline
p45
sg19
I01
sg20
I94
sg21
I319
sa(dp46
g19
I00
sg20
I81
sg21
I293
sa(dp47
g19
I00
sg20
I76
sg21
I272
sa(dp48
g17
Vcurve
p49
sg19
I01
sg20
I76
sg21
I242
sa(dp50
g17
Vline
p51
sg19
I01
sg20
I76
sg21
I162
sa(dp52
g19
I00
sg20
I76
sg21
I146
sa(dp53
g19
I00
sg20
I84
sg21
I138
sa(dp54
g17
Vcurve
p55
sg19
I01
sg20
I100
sg21
I138
sa(dp56
g17
Vline
p57
sg19
I00
sg20
I287
sg21
I138
sa(dp58
g17
Vline
p59
sg19
I01
sg20
I287
sg21
I-25
sa(dp60
g19
I00
sg20
I286
sg21
I-41
sa(dp61
g19
I00
sg20
I295
sg21
I-50
sa(dp62
g17
Vcurve
p63
sg19
I01
sg20
I311
sg21
I-50
sa(dp64
g17
Vline
p65
sg19
I01
sg20
I431
sg21
I-50
sa(dp66
g19
I00
sg20
I448
sg21
I-50
sa(dp67
g19
I00
sg20
I456
sg21
I-41
sa(dp68
g17
Vcurve
p69
sg19
I01
sg20
I456
sg21
I-25
sa(dp70
g17
Vline
p71
sg19
I00
sg20
I456
sg21
I138
sa(dp72
g17
Vline
p73
sg19
I01
sg20
I486
sg21
I138
sa(dp74
g19
I00
sg20
I503
sg21
I138
sa(dp75
g19
I00
sg20
I511
sg21
I147
sa(dp76
g17
Vcurve
p77
sg19
I01
sg20
I511
sg21
I163
sa(dp78
g17
Vline
p79
sg19
I01
sg20
I511
sg21
I189
sa(dp80
g19
I00
sg20
I511
sg21
I205
sa(dp81
g19
I00
sg20
I503
sg21
I214
sa(dp82
g17
Vcurve
p83
sg19
I01
sg20
I486
sg21
I214
sasasVlib
p84
(dp85
sVname
p86
Vfour
p87
sVunicodes
p88
(lp89
sVwidth
p90
I575
sss."
EndChar

StartChar: four.dnom
Encoding: 65561 -1 234
GlifName: four.dnom
Width: 250
VWidth: 0
Flags: HW
LayerCount: 2
Fore
SplineSet
228 121 m 257
 243 121 l 257
 257 121 267 109 267 98 c 257
 267 85 l 257
 267 73 257 63 243 63 c 257
 227 63 l 257
 227 13 l 257
 227 2 217 -10 203 -10 c 257
 185 -10 l 257
 171 -10 161 2 161 13 c 257
 161 63 l 257
 49 63 l 257
 35 63 25 73 25 85 c 257
 25 105 l 257
 25 112 26 118 29 124 c 257
 29 124 l 257
 138 343 l 257
 143 353 154 360 168 360 c 257
 186 360 l 257
 203 360 213 344 206 331 c 257
 101 121 l 257
 161 121 l 257
 161 196 l 257
 161 208 172 219 186 219 c 257
 203 219 l 257
 217 219 228 208 228 196 c 257
 228 121 l 257
EndSplineSet
PickledDataWithLists: "(dp0
Vcom.schriftgestaltung.Glyphs.Export
p1
I00
sVcom.schriftgestaltung.Glyphs.lastChange
p2
V2015-12-22 13:05:53 +0000
p3
s."
EndChar

StartChar: four.hex
Encoding: 65562 -1 235
GlifName: four.hex
Width: 575
VWidth: 0
Flags: HW
LayerCount: 2
Fore
SplineSet
258 875 m 258
 258 829 l 258
 258 812 249 804 233 804 c 258
 198 804 l 258
 181 804 173 813 173 829 c 258
 173 875 l 258
 173 891 182 900 198 900 c 258
 233 900 l 258
 249 900 258 891 258 875 c 258
EndSplineSet
Refer: 233 52 N 1 0 0 1 0 0 2
PickledDataWithLists: "(dp0
Vcom.schriftgestaltung.Glyphs.lastChange
p1
V2016-02-10 13:19:53 +0000
p2
s."
EndChar

StartChar: g
Encoding: 103 103 238
GlifName: g
Width: 575
VWidth: 0
Flags: HW
AnchorPoint: "top" 288 570 basechar 0
LayerCount: 2
Fore
SplineSet
182 118 m 256
 182 92 217 81 320 81 c 256
 487 81 585 24 585 -77 c 256
 584 -183 482 -248 320 -248 c 256
 142 -248 41 -197 41 -103 c 256
 41 -55 69 -8 112 21 c 257
 88 40 77 65 77 99 c 256
 77 139 103 180 141 203 c 257
 101 237 76 286 77 341 c 256
 76 450 165 530 288 530 c 256
 314 530 338 527 360 520 c 257
 510 520 l 258
 532 520 545 507 545 485 c 258
 545 469 l 258
 545 448 531 434 510 434 c 258
 475 434 l 257
 490 407 499 376 499 341 c 256
 499 231 411 152 288 152 c 256
 262 152 238 156 215 163 c 257
 195 152 182 135 182 118 c 256
  PathStart: -2
394 341 m 256
 394 394 349 434 288 434 c 256
 227 434 182 394 182 341 c 256
 182 289 227 249 288 249 c 256
 349 249 394 289 394 341 c 256
  PathStart: -2
140 -78 m 257
 142 -124 201 -151 310 -151 c 256
 412 -151 480 -120 480 -77 c 256
 479 -39 418 -16 310 -16 c 256
 265 -16 227 -14 196 -9 c 257
 162 -23 140 -49 140 -78 c 257
  PathStart: -2
EndSplineSet
PickledDataWithLists: "(dp0
Vcom.schriftgestaltung.Glyphs.lastChange
p1
V2016-06-09 18:35:33 +0000
p2
s."
EndChar

StartChar: gamma
Encoding: 947 947 239
GlifName: gamma
Width: 575
VWidth: 0
Flags: HW
LayerCount: 2
Fore
SplineSet
56 479 m 258
 50 502 63 520 87 520 c 258
 123 520 l 258
 142 520 155 510 161 491 c 257
 263 83 l 257
 286 83 l 258
 302 83 312 90 315 105 c 257
 412 491 l 257
 416 510 430 520 449 520 c 258
 485 520 l 258
 510 520 522 504 517 480 c 257
 419 87 l 258
 402 25 355 -10 286 -10 c 257
 301 -72 312 -147 315 -215 c 257
 315 -236 301 -250 280 -250 c 258
 252 -250 l 258
 231 -250 218 -238 217 -217 c 257
 213 -170 200 -96 179 -13 c 258
 56 479 l 258
  PathStart: -2
EndSplineSet
PickledDataWithLists: "(dp0
Vcom.schriftgestaltung.Glyphs.lastChange
p1
V2016-05-30 08:32:29 +0000
p2
s."
EndChar

StartChar: germandbls
Encoding: 223 223 241
GlifName: germandbls
Width: 575
VWidth: 0
Flags: HW
LayerCount: 2
Fore
SplineSet
197 494 m 257
 197 25 l 257
 197 5 183 -10 162 -10 c 258
 127 -10 l 258
 107 -10 92 5 92 25 c 258
 92 494 l 258
 92 635 166 710 294 710 c 256
 414 710 483 648 483 541 c 256
 483 495 457 454 437 422 c 256
 422 399 412 382 412 370 c 256
 412 353 427 340 449 322 c 256
 481 296 524 261 523 192 c 256
 522 56 419 -3 291 -9 c 256
 269 -10 254 5 254 26 c 258
 254 52 l 258
 254 72 269 86 288 88 c 257
 366 93 422 123 422 197 c 256
 422 233 397 250 369 271 c 257
 340 291 307 315 307 363 c 256
 307 405 333 443 354 474 c 256
 370 498 383 516 383 533 c 256
 383 586 352 614 294 614 c 256
 232 614 197 575 197 494 c 257
EndSplineSet
PickledDataWithLists: "(dp0
Vcom.schriftgestaltung.Glyphs.lastChange
p1
V2016-06-09 18:35:34 +0000
p2
s."
EndChar

StartChar: grave
Encoding: 96 96 242
GlifName: grave
Width: 575
VWidth: 0
Flags: HW
AnchorPoint: "top" 288 500 mark 0
LayerCount: 2
Fore
SplineSet
385 595 m 258
 400 588 404 577 399 562 c 257
 390 544 l 257
 382 530 371 526 357 531 c 258
 135 606 l 258
 119 611 114 623 121 638 c 258
 143 684 l 258
 149 699 161 703 176 696 c 258
 385 595 l 258
  PathStart: -2
EndSplineSet
PickledDataWithLists: "(dp0
Vcom.schriftgestaltung.Glyphs.lastChange
p1
V2015-12-22 16:32:42 +0000
p2
s."
EndChar

StartChar: greater
Encoding: 62 62 243
GlifName: greater
Width: 575
VWidth: 0
Flags: HW
LayerCount: 2
Fore
SplineSet
140 570 m 258
 465 326 l 258
 493 305 510 277 510 250 c 256
 510 223 493 195 465 174 c 258
 141 -70 l 258
 124 -83 104 -81 91 -64 c 258
 72 -41 l 258
 59 -24 61 -5 78 8 c 258
 399 250 l 257
 78 492 l 258
 61 505 59 524 72 541 c 258
 91 564 l 257
 104 581 123 583 140 570 c 258
EndSplineSet
PickledDataWithLists: "(dp0
Vcom.schriftgestaltung.Glyphs.lastChange
p1
V2016-06-09 12:12:14 +0000
p2
s."
EndChar

StartChar: greaterequal
Encoding: 8805 8805 244
GlifName: greaterequal
Width: 575
VWidth: 0
Flags: HW
LayerCount: 2
Fore
SplineSet
117 664 m 258
 463 492 l 258
 496 475 529 452 529 410 c 256
 529 376 508 351 462 329 c 258
 117 156 l 258
 99 147 81 153 71 172 c 257
 71 171 l 257
 57 195 l 257
 47 215 52 233 72 243 c 258
 406 410 l 257
 72 577 l 257
 71 577 l 257
 52 588 47 606 57 625 c 257
 71 649 l 257
 80 668 98 674 117 664 c 258
41 35 m 258
 41 62 l 258
 41 83 55 97 76 97 c 258
 499 97 l 258
 521 97 534 84 534 62 c 258
 534 35 l 258
 534 13 521 0 499 0 c 258
 76 0 l 258
 55 0 41 14 41 35 c 258
EndSplineSet
PickledDataWithLists: "(dp0
Vcom.schriftgestaltung.Glyphs.lastChange
p1
V2015-12-22 14:10:07 +0000
p2
s."
EndChar

StartChar: guillemotleft
Encoding: 171 171 245
GlifName: guillemotleft
Width: 575
VWidth: 0
Flags: HW
LayerCount: 2
Fore
SplineSet
128 260 m 257
 308 80 l 258
 323 65 323 45 307 31 c 258
 283 9 l 257
 267 -4 250 -4 234 11 c 257
 58 188 l 258
 39 207 20 229 20 260 c 256
 20 285 31 306 58 333 c 258
 234 509 l 258
 250 525 268 525 284 511 c 258
 307 490 l 258
 323 476 323 456 308 440 c 257
 128 260 l 257
364 260 m 257
 544 80 l 257
 561 65 560 45 543 31 c 257
 519 9 l 257
 503 -4 485 -4 471 11 c 258
 294 188 l 258
 275 207 256 229 256 260 c 256
 256 285 267 306 294 333 c 258
 471 509 l 257
 485 525 504 525 520 511 c 258
 542 491 l 258
 560 476 560 456 544 440 c 258
 364 260 l 257
EndSplineSet
PickledDataWithLists: "(dp0
Vcom.schriftgestaltung.Glyphs.lastChange
p1
V2015-12-22 13:55:11 +0000
p2
s."
EndChar

StartChar: guilsinglleft
Encoding: 8249 8249 247
GlifName: guilsinglleft
Width: 575
VWidth: 0
Flags: HW
LayerCount: 2
Fore
SplineSet
246 260 m 257
 426 80 l 257
 441 66 441 44 425 31 c 257
 401 9 l 257
 387 -3 367 -3 353 11 c 257
 176 188 l 257
 157 207 138 229 138 260 c 257
 138 291 157 314 176 333 c 257
 353 509 l 257
 367 524 387 524 402 511 c 257
 424 491 l 257
 441 477 441 455 426 440 c 257
 246 260 l 257
EndSplineSet
PickledDataWithLists: "(dp0
Vcom.schriftgestaltung.Glyphs.lastChange
p1
V2015-12-22 13:57:17 +0000
p2
s."
EndChar

StartChar: h
Encoding: 104 104 249
GlifName: h
Width: 575
VWidth: 0
Flags: HW
AnchorPoint: "center" 288 250 basechar 0
AnchorPoint: "top" 388 620 basechar 0
LayerCount: 2
Fore
SplineSet
180 735 m 257
 180 526 l 257
 222 529 257 530 278 530 c 257
 430 530 500 469 500 318 c 257
 500 35 l 257
 500 15 486 0 465 0 c 257
 430 0 l 257
 410 0 395 15 395 35 c 257
 395 318 l 257
 395 405 363 434 278 434 c 257
 256 434 221 433 180 430 c 257
 180 35 l 257
 180 15 166 0 145 0 c 257
 110 0 l 257
 90 0 75 15 75 35 c 257
 75 736 l 257
 75 756 90 771 110 771 c 257
 145 770 l 257
 165 770 180 755 180 735 c 257
EndSplineSet
PickledDataWithLists: "(dp0
Vcom.schriftgestaltung.Glyphs.lastChange
p1
V2016-06-09 18:35:33 +0000
p2
s."
EndChar

StartChar: heart
Encoding: 9829 9829 251
GlifName: heart
Width: 575
VWidth: 0
Flags: HW
LayerCount: 2
Fore
SplineSet
175 530 m 256
 226 530 268 499 288 460 c 257
 308 499 351 530 400 530 c 256
 481 530 540 457 540 373 c 256
 540 251 445 120 288 -20 c 257
 126 124 36 255 36 373 c 256
 36 462 96 530 175 530 c 256
  PathStart: -2
EndSplineSet
PickledDataWithLists: "(dp0
Vcom.schriftgestaltung.Glyphs.lastChange
p1
V2016-06-10 08:28:00 +0000
p2
s."
Comment: "+AAoA    heart+AAoA  "
EndChar

StartChar: hungarumlaut
Encoding: 733 733 252
GlifName: hungarumlaut
Width: 575
VWidth: 0
Flags: HW
AnchorPoint: "top" 291 500 mark 0
LayerCount: 2
Fore
SplineSet
259 691 m 258
 291 659 l 258
 302 648 302 635 290 624 c 258
 187 532 l 258
 175 521 163 522 152 533 c 258
 132 553 l 258
 121 564 121 576 132 588 c 258
 224 690 l 258
 235 702 247 703 259 691 c 258
488 691 m 258
 519 659 l 258
 531 648 530 635 518 624 c 258
 416 532 l 258
 404 521 392 522 381 533 c 258
 361 553 l 258
 350 564 349 576 360 588 c 258
 453 690 l 258
 464 702 476 703 488 691 c 258
EndSplineSet
PickledDataWithLists: "(dp0
Vcom.schriftgestaltung.Glyphs.lastChange
p1
V2015-12-22 16:32:42 +0000
p2
s."
EndChar

StartChar: hyphen
Encoding: 45 45 253
GlifName: hyphen
Width: 575
VWidth: 0
Flags: HW
LayerCount: 2
Fore
SplineSet
42 237 m 257
 42 263 l 257
 42 284 57 299 77 299 c 257
 500 299 l 257
 520 299 535 284 535 264 c 257
 535 237 l 257
 535 217 520 202 500 202 c 257
 77 202 l 257
 57 202 42 217 42 237 c 257
EndSplineSet
PickledDataWithLists: "(dp0
Vcom.schriftgestaltung.Glyphs.lastChange
p1
V2015-12-22 16:32:53 +0000
p2
s."
EndChar

StartChar: i
Encoding: 105 105 254
GlifName: i
Width: 575
VWidth: 0
Flags: HW
LayerCount: 2
Fore
SplineSet
220 780 m 257
 285 780 l 257
 305 780 320 766 320 745 c 257
 320 679 l 257
 320 659 306 644 285 644 c 257
 220 644 l 257
 200 644 185 659 185 679 c 257
 185 745 l 257
 185 765 200 780 220 780 c 257
EndSplineSet
Refer: 198 305 N 1 0 0 1 0 0 2
PickledDataWithLists: "(dp0
Vcom.schriftgestaltung.Glyphs.lastChange
p1
V2016-06-09 18:35:33 +0000
p2
s."
EndChar

StartChar: ij
Encoding: 307 307 259
GlifName: ij
Width: 575
VWidth: 0
Flags: HW
LayerCount: 2
Fore
SplineSet
255 654 m 257
 220 654 l 257
 200 654 185 669 185 689 c 257
 185 735 l 257
 185 755 200 770 220 770 c 257
 255 770 l 257
 276 770 290 755 290 735 c 257
 290 689 l 257
 290 668 276 654 255 654 c 257
430 770 m 257
 465 770 l 257
 485 770 500 756 500 735 c 257
 500 689 l 257
 500 669 486 654 465 654 c 257
 430 654 l 257
 410 654 395 669 395 689 c 257
 395 735 l 257
 395 755 410 770 430 770 c 257
115 520 m 257
 470 520 l 257
 488 520 500 504 500 485 c 257
 500 34 l 257
 500 -157 407 -248 219 -248 c 257
 191 -248 149 -246 99 -237 c 257
 79 -233 67 -215 72 -194 c 257
 79 -169 l 257
 84 -149 101 -138 121 -142 c 257
 163 -150 197 -151 219 -151 c 257
 346 -151 395 -91 395 34 c 257
 395 424 l 257
 290 424 l 257
 290 35 l 257
 290 15 276 0 255 0 c 257
 220 0 l 257
 200 0 185 15 185 35 c 257
 185 424 l 257
 115 424 l 257
 95 424 80 439 80 459 c 257
 80 485 l 257
 80 506 95 520 115 520 c 257
EndSplineSet
PickledDataWithLists: "(dp0
Vcom.schriftgestaltung.Glyphs.lastChange
p1
V2016-06-09 18:35:33 +0000
p2
s."
EndChar

StartChar: infinity
Encoding: 8734 8734 261
GlifName: infinity
Width: 575
VWidth: 0
Flags: HW
LayerCount: 2
Fore
SplineSet
156 413 m 256
 204 413 246 386 282 334 c 257
 318 392 358 418 409 418 c 256
 491 418 543 352 543 249 c 256
 543 153 487 80 413 80 c 256
 366 80 323 109 285 167 c 257
 254 111 215 85 161 85 c 256
 84 85 33 151 33 249 c 256
 33 346 83 413 156 413 c 256
  PathStart: -2
124 249 m 256
 124 196 137 172 161 172 c 256
 191 172 218 202 242 261 c 257
 219 300 187 325 159 325 c 256
 136 325 124 301 124 249 c 256
  PathStart: -2
407 167 m 256
 437 167 452 193 452 249 c 256
 452 306 438 331 407 331 c 256
 376 331 349 304 321 243 c 257
 353 190 379 167 407 167 c 256
  PathStart: -2
EndSplineSet
PickledDataWithLists: "(dp0
Vcom.schriftgestaltung.Glyphs.lastChange
p1
V2015-12-22 14:13:58 +0000
p2
s."
EndChar

StartChar: integral
Encoding: 8747 8747 262
GlifName: integral
Width: 575
VWidth: 0
Flags: HW
LayerCount: 2
Fore
SplineSet
52 -106 m 258
 61 -80 l 258
 67 -61 85 -52 104 -57 c 257
 103 -57 l 257
 127 -62 150 -64 167 -64 c 256
 219 -63 235 -44 235 9 c 258
 235 511 l 258
 235 627 294 680 409 680 c 256
 429 680 461 679 499 670 c 257
 521 666 531 646 523 625 c 257
 524 626 l 257
 516 600 l 257
 515 599 l 257
 508 581 491 572 472 577 c 257
 448 582 425 584 409 584 c 256
 356 583 340 564 340 511 c 258
 340 9 l 258
 340 -107 282 -160 167 -160 c 256
 147 -160 114 -159 76 -150 c 257
 55 -146 45 -126 52 -106 c 258
EndSplineSet
PickledDataWithLists: "(dp0
Vcom.schriftgestaltung.Glyphs.lastChange
p1
V2015-12-22 14:14:22 +0000
p2
s."
EndChar

StartChar: iota
Encoding: 953 953 264
GlifName: iota
Width: 575
VWidth: 0
Flags: HW
LayerCount: 2
Fore
SplineSet
454 44 m 257
 453 45 l 257
 462 24 452 6 429 0 c 256
 391 -9 359 -10 339 -10 c 256
 220 -10 165 44 165 160 c 258
 165 485 l 257
 164 507 177 521 200 521 c 258
 235 521 l 258
 257 521 270 508 270 486 c 258
 270 160 l 258
 270 105 286 88 339 87 c 256
 362 87 383 89 402 94 c 257
 423 98 438 90 445 71 c 257
 446 70 l 257
 454 44 l 257
EndSplineSet
PickledDataWithLists: "(dp0
Vcom.schriftgestaltung.Glyphs.lastChange
p1
V2015-12-22 12:32:48 +0000
p2
s."
EndChar

StartChar: j
Encoding: 106 106 265
GlifName: j
Width: 575
VWidth: 0
Flags: HW
LayerCount: 2
Fore
SplineSet
400 780 m 257
 465 780 l 257
 485 780 500 766 500 745 c 257
 500 679 l 257
 500 659 486 644 465 644 c 257
 400 644 l 257
 380 644 365 659 365 679 c 257
 365 745 l 257
 365 765 380 780 400 780 c 257
125 520 m 257
 465 520 l 257
 485 520 500 505 500 485 c 257
 500 130 l 257
 500 -86 376 -160 247 -160 c 257
 195 -160 141 -150 93 -129 c 257
 74 -122 67 -102 75 -83 c 257
 85 -59 l 257
 92 -41 111 -32 129 -40 c 257
 173 -55 207 -62 247 -62 c 257
 331 -62 394 -19 394 130 c 257
 394 422 l 257
 125 422 l 257
 105 422 90 437 90 457 c 257
 90 485 l 257
 90 505 105 520 125 520 c 257
EndSplineSet
PickledDataWithLists: "(dp0
Vcom.schriftgestaltung.Glyphs.lastChange
p1
V2016-06-09 18:35:33 +0000
p2
s."
EndChar

StartChar: k
Encoding: 107 107 267
GlifName: k
Width: 575
VWidth: 0
Flags: HW
AnchorPoint: "top" 288 570 basechar 0
AnchorPoint: "bottom" 288 0 basechar 0
LayerCount: 2
Fore
SplineSet
307 250 m 257
 509 48 l 257
 530 27 519 0 489 0 c 257
 431 0 l 257
 416 0 403 6 393 16 c 257
 193 217 l 257
 188 222 183 226 180 229 c 257
 180 35 l 257
 180 15 165 0 145 0 c 257
 110 0 l 257
 90 0 75 15 75 35 c 257
 75 735 l 257
 75 755 90 770 110 770 c 257
 145 770 l 257
 165 770 180 755 180 735 c 257
 180 312 l 257
 183 315 188 319 193 324 c 257
 373 504 l 257
 383 514 396 520 411 520 c 257
 469 520 l 257
 499 520 510 493 489 472 c 257
 307 290 l 257
 301 284 294 277 280 270 c 257
 294 263 301 256 307 250 c 257
EndSplineSet
PickledDataWithLists: "(dp0
Vcom.schriftgestaltung.Glyphs.lastChange
p1
V2016-06-09 18:35:33 +0000
p2
s."
EndChar

StartChar: kappa
Encoding: 954 954 268
GlifName: kappa
Width: 575
VWidth: 0
Flags: HW
LayerCount: 2
Fore
SplineSet
307 250 m 258
 509 48 l 258
 532 26 521 0 489 0 c 258
 431 0 l 258
 416 0 404 5 393 16 c 258
 193 217 l 258
 188 221 184 225 180 229 c 257
 180 35 l 257
 180 14 166 0 145 0 c 258
 110 0 l 258
 89 0 75 14 75 35 c 258
 75 486 l 258
 75 507 89 521 110 521 c 258
 145 521 l 258
 166 521 180 507 180 486 c 258
 180 312 l 257
 184 316 188 320 193 324 c 258
 373 504 l 258
 384 515 396 520 411 520 c 258
 469 520 l 258
 501 520 512 494 489 472 c 258
 307 290 l 258
 301 284 294 277 280 270 c 257
 294 263 301 256 307 250 c 258
EndSplineSet
PickledDataWithLists: "(dp0
Vcom.schriftgestaltung.Glyphs.lastChange
p1
V2015-12-22 12:33:21 +0000
p2
s."
EndChar

StartChar: l
Encoding: 108 108 269
GlifName: l
Width: 575
VWidth: 0
Flags: HW
AnchorPoint: "top" 288 700 basechar 0
AnchorPoint: "bottom" 288 0 basechar 0
AnchorPoint: "topright" 565 500 basechar 0
LayerCount: 2
Fore
SplineSet
504 44 m 257
 503 45 l 257
 511 26 501 5 479 0 c 256
 441 -9 409 -10 389 -10 c 256
 271 -10 215 46 215 160 c 258
 215 674 l 257
 113 674 l 258
 93 674 78 689 78 709 c 258
 78 735 l 258
 78 756 93 770 113 770 c 258
 285 770 l 258
 305 770 320 756 320 735 c 258
 320 160 l 258
 320 107 336 88 389 87 c 256
 405 87 428 88 452 94 c 257
 471 97 488 89 495 71 c 257
 496 70 l 257
 504 44 l 257
EndSplineSet
PickledDataWithLists: "(dp0
Vcom.schriftgestaltung.Glyphs.lastChange
p1
V2016-06-09 18:35:33 +0000
p2
s."
EndChar

StartChar: lacute
Encoding: 314 314 270
GlifName: lacute
Width: 575
VWidth: 0
Flags: HW
AnchorPoint: "top" 288 700 basechar 0
AnchorPoint: "bottom" 288 0 basechar 0
AnchorPoint: "topright" 565 500 basechar 0
LayerCount: 2
Fore
SplineSet
504 44 m 257
 503 45 l 257
 511 26 501 5 479 0 c 256
 441 -9 409 -10 389 -10 c 256
 271 -10 215 46 215 160 c 258
 215 624 l 257
 113 624 l 258
 93 624 78 639 78 659 c 258
 78 685 l 258
 78 706 93 720 113 720 c 258
 285 720 l 258
 305 720 320 706 320 685 c 258
 320 160 l 258
 320 107 336 88 389 87 c 256
 405 87 428 88 452 94 c 257
 471 97 488 89 495 71 c 257
 496 70 l 257
 504 44 l 257
EndSplineSet
Refer: 140 180 N 1 0 0 1 -40 200 2
PickledDataWithLists: "(dp0
Vcom.schriftgestaltung.Glyphs.lastChange
p1
V2016-06-09 18:35:33 +0000
p2
s."
EndChar

StartChar: lambda
Encoding: 955 955 271
GlifName: lambda
Width: 575
VWidth: 0
Flags: HW
LayerCount: 2
Fore
SplineSet
83 672 m 258
 83 693 97 707 118 707 c 256
 211 707 279 646 334 514 c 258
 532 43 l 258
 542 18 528 0 503 0 c 258
 466 0 l 258
 448 0 434 9 428 25 c 258
 286 375 l 257
 147 25 l 258
 141 9 127 0 109 0 c 258
 72 0 l 258
 47 0 33 18 43 43 c 258
 231 492 l 257
 194 577 160 613 118 613 c 256
 97 613 83 627 83 648 c 258
 83 672 l 258
  PathStart: -2
EndSplineSet
PickledDataWithLists: "(dp0
Vcom.schriftgestaltung.Glyphs.lastChange
p1
V2016-05-30 08:32:58 +0000
p2
s."
EndChar

StartChar: lcaron
Encoding: 318 318 272
GlifName: lcaron
Width: 575
VWidth: 0
Flags: HW
AnchorPoint: "top" 288 700 basechar 0
AnchorPoint: "bottom" 288 0 basechar 0
AnchorPoint: "topright" 565 500 basechar 0
LayerCount: 2
Fore
SplineSet
504 44 m 257
 503 45 l 257
 511 26 501 5 479 0 c 256
 441 -9 409 -10 389 -10 c 256
 271 -10 215 46 215 160 c 258
 215 624 l 257
 113 624 l 258
 93 624 78 639 78 659 c 258
 78 685 l 258
 78 706 93 720 113 720 c 258
 285 720 l 258
 305 720 320 706 320 685 c 258
 320 160 l 258
 320 107 336 88 389 87 c 256
 405 87 428 88 452 94 c 257
 471 97 488 89 495 71 c 257
 496 70 l 257
 504 44 l 257
EndSplineSet
Refer: 171 711 N 1 0 0 1 -10 199 2
PickledDataWithLists: "(dp0
Vcom.schriftgestaltung.Glyphs.lastChange
p1
V2016-06-09 18:35:33 +0000
p2
s."
EndChar

StartChar: lfblock
Encoding: 9612 9612 276
GlifName: lfblock
Width: 575
VWidth: 0
Flags: HW
LayerCount: 2
Fore
SplineSet
0 -250 m 257
 0 900 l 257
 287 900 l 257
 287 -250 l 257
 0 -250 l 257
EndSplineSet
PickledDataWithLists: "(dp0
Vcom.schriftgestaltung.Glyphs.lastChange
p1
V2016-06-10 08:26:49 +0000
p2
s."
EndChar

StartChar: logicalnot
Encoding: 172 172 277
GlifName: logicalnot
Width: 575
VWidth: 0
Flags: HW
LayerCount: 2
Fore
SplineSet
110 434 m 257
 465 434 l 257
 485 434 500 419 500 399 c 257
 500 160 l 257
 500 140 486 125 465 125 c 257
 430 125 l 257
 410 125 395 140 395 160 c 257
 395 337 l 257
 110 337 l 257
 90 337 75 352 75 372 c 257
 75 399 l 257
 75 419 90 434 110 434 c 257
EndSplineSet
PickledDataWithLists: "(dp0
Vcom.schriftgestaltung.Glyphs.lastChange
p1
V2015-12-22 14:15:53 +0000
p2
s."
EndChar

StartChar: lslash
Encoding: 322 322 278
GlifName: lslash
Width: 575
VWidth: 0
Flags: HW
LayerCount: 2
Fore
SplineSet
127 332 m 258
 366 512 l 258
 377 520 392 517 400 507 c 258
 419 484 l 258
 429 471 427 455 415 446 c 258
 176 267 l 258
 165 259 150 261 142 271 c 258
 122 294 l 258
 112 306 115 323 127 332 c 258
EndSplineSet
Refer: 269 108 N 1 0 0 1 0 0 2
PickledDataWithLists: "(dp0
Vcom.schriftgestaltung.Glyphs.lastChange
p1
V2016-06-09 18:35:33 +0000
p2
s."
EndChar

StartChar: ltshade
Encoding: 9617 9617 279
GlifName: ltshade
Width: 575
VWidth: 0
Flags: HW
LayerCount: 2
Fore
SplineSet
0 -250 m 257
 0 -194 l 257
 28 -250 l 257
 0 -250 l 257
287 -250 m 257
 0 324 l 257
 0 380 l 257
 315 -250 l 257
 287 -250 l 257
575 -250 m 257
 0 900 l 257
 28 900 l 257
 575 -194 l 257
 575 -250 l 257
575 324 m 257
 287 900 l 257
 315 900 l 257
 575 380 l 257
 575 324 l 257
EndSplineSet
PickledDataWithLists: "(dp0
Vcom.schriftgestaltung.Glyphs.lastChange
p1
V2016-06-10 08:26:49 +0000
p2
s."
EndChar

StartChar: m
Encoding: 109 109 280
GlifName: m
Width: 575
VWidth: 0
Flags: HW
AnchorPoint: "top" 288 570 basechar 0
AnchorPoint: "bottom" 288 0 basechar 0
LayerCount: 2
Fore
SplineSet
285 506 m 257
 318 520 352 528 388 528 c 256
 490 528 534 477 534 362 c 258
 534 35 l 258
 534 14 520 0 499 0 c 258
 464 0 l 258
 443 0 429 14 429 35 c 258
 429 360 l 258
 429 415 413 432 364 432 c 256
 360 432 349 432 333 430 c 257
 339 406 340 383 340 360 c 258
 340 220 l 258
 340 198 327 185 305 185 c 258
 270 185 l 258
 249 185 235 199 235 220 c 258
 235 360 l 258
 235 415 219 432 170 432 c 256
 167 432 158 432 146 431 c 257
 146 35 l 257
 146 13 133 0 111 0 c 258
 76 0 l 258
 55 0 41 14 41 35 c 258
 41 478 l 258
 41 497 52 511 72 515 c 256
 122 524 159 528 189 528 c 256
 230 528 262 521 285 506 c 257
EndSplineSet
PickledDataWithLists: "(dp0
Vcom.schriftgestaltung.Glyphs.lastChange
p1
V2016-06-09 18:35:33 +0000
p2
s."
EndChar

StartChar: macron
Encoding: 175 175 281
GlifName: macron
Width: 575
VWidth: 0
Flags: HW
AnchorPoint: "top" 288 500 mark 0
LayerCount: 2
Fore
SplineSet
144 649 m 258
 144 675 l 258
 144 691 153 700 169 700 c 258
 407 700 l 258
 423 700 432 691 432 675 c 258
 432 648 l 258
 432 632 423 624 407 624 c 258
 169 624 l 258
 153 624 144 632 144 649 c 258
EndSplineSet
PickledDataWithLists: "(dp0
Vcom.schriftgestaltung.Glyphs.lastChange
p1
V2015-12-22 16:32:42 +0000
p2
s."
EndChar

StartChar: multiply
Encoding: 215 215 283
GlifName: multiply
Width: 575
VWidth: 0
Flags: HW
LayerCount: 2
Fore
SplineSet
351 272 m 257
 516 60 l 258
 529 44 525 22 509 11 c 258
 483 -8 l 257
 482 -8 l 257
 465 -19 445 -16 434 0 c 257
 288 190 l 257
 142 0 l 258
 130 -16 110 -20 93 -8 c 258
 67 11 l 257
 68 11 l 257
 50 22 46 44 59 60 c 258
 223 273 l 257
 79 461 l 258
 66 477 70 498 87 510 c 258
 113 528 l 258
 130 539 151 536 162 520 c 257
 287 355 l 257
 413 520 l 258
 425 536 445 540 462 528 c 258
 489 510 l 257
 505 498 509 477 496 461 c 258
 351 272 l 257
EndSplineSet
PickledDataWithLists: "(dp0
Vcom.schriftgestaltung.Glyphs.lastChange
p1
V2015-12-22 14:16:31 +0000
p2
sVcom.typemytype.robofont.layerData
p3
(dp4
Vbackground
p5
(dp6
Vanchors
p7
(lp8
sVcomponents
p9
(lp10
sVcontours
p11
(lp12
(dp13
Vpoints
p14
(lp15
(dp16
VsegmentType
p17
Vline
p18
sVsmooth
p19
I00
sVx
p20
I338
sVy
p21
I262
sa(dp22
g17
Vline
p23
sg19
I01
sg20
I488
sg21
I457
sa(dp24
g19
I00
sg20
I498
sg21
I470
sa(dp25
g19
I00
sg20
I496
sg21
I482
sa(dp26
g17
Vcurve
p27
sg19
I01
sg20
I483
sg21
I492
sa(dp28
g17
Vline
p29
sg19
I01
sg20
I456
sg21
I510
sa(dp30
g19
I00
sg20
I443
sg21
I519
sa(dp31
g19
I00
sg20
I431
sg21
I517
sa(dp32
g17
Vcurve
p33
sg19
I01
sg20
I421
sg21
I504
sa(dp34
g17
Vline
p35
sg19
I00
sg20
I287
sg21
I329
sa(dp36
g17
Vline
p37
sg19
I01
sg20
I154
sg21
I504
sa(dp38
g19
I00
sg20
I145
sg21
I517
sa(dp39
g19
I00
sg20
I132
sg21
I519
sa(dp40
g17
Vcurve
p41
sg19
I01
sg20
I119
sg21
I510
sa(dp42
g17
Vline
p43
sg19
I01
sg20
I93
sg21
I492
sa(dp44
g19
I00
sg20
I79
sg21
I482
sa(dp45
g19
I00
sg20
I77
sg21
I470
sa(dp46
g17
Vcurve
p47
sg19
I01
sg20
I87
sg21
I457
sa(dp48
g17
Vline
p49
sg19
I00
sg20
I236
sg21
I263
sa(dp50
g17
Vline
p51
sg19
I01
sg20
I67
sg21
I44
sa(dp52
g19
I00
sg20
I57
sg21
I31
sa(dp53
g19
I00
sg20
I59
sg21
I18
sa(dp54
g17
Vcurve
p55
sg19
I01
sg20
I73
sg21
I9
sa(dp56
g17
Vline
p57
sg19
I01
sg20
I99
sg21
I-10
sa(dp58
g19
I00
sg20
I112
sg21
I-19
sa(dp59
g19
I00
sg20
I124
sg21
I-17
sa(dp60
g17
Vcurve
p61
sg19
I01
sg20
I134
sg21
I-4
sa(dp62
g17
Vline
p63
sg19
I00
sg20
I288
sg21
I196
sa(dp64
g17
Vline
p65
sg19
I01
sg20
I442
sg21
I-4
sa(dp66
g19
I00
sg20
I451
sg21
I-17
sa(dp67
g19
I00
sg20
I463
sg21
I-19
sa(dp68
g17
Vcurve
p69
sg19
I01
sg20
I477
sg21
I-10
sa(dp70
g17
Vline
p71
sg19
I01
sg20
I503
sg21
I9
sa(dp72
g19
I00
sg20
I516
sg21
I18
sa(dp73
g19
I00
sg20
I518
sg21
I31
sa(dp74
g17
Vcurve
p75
sg19
I01
sg20
I508
sg21
I44
sasasVlib
p76
(dp77
sVname
p78
Vmultiply
p79
sVunicodes
p80
(lp81
sVwidth
p82
I575
sss."
EndChar

StartChar: n
Encoding: 110 110 284
GlifName: n
Width: 575
VWidth: 0
Flags: HW
AnchorPoint: "top" 288 570 basechar 0
AnchorPoint: "bottom" 288 0 basechar 0
LayerCount: 2
Fore
SplineSet
75 35 m 257
 75 481 l 257
 75 500 88 514 107 518 c 257
 180 529 245 530 278 530 c 257
 430 530 500 469 500 318 c 257
 500 35 l 257
 500 15 486 0 465 0 c 257
 430 0 l 257
 410 0 395 15 395 35 c 257
 395 318 l 257
 395 405 363 434 278 434 c 257
 256 434 221 433 180 431 c 257
 180 35 l 257
 180 15 166 0 145 0 c 257
 110 0 l 257
 90 0 75 15 75 35 c 257
EndSplineSet
PickledDataWithLists: "(dp0
Vcom.schriftgestaltung.Glyphs.lastChange
p1
V2016-06-09 18:35:33 +0000
p2
s."
EndChar

StartChar: nine.dnom
Encoding: 65570 -1 288
GlifName: nine.dnom
Width: 250
VWidth: 0
Flags: HW
LayerCount: 2
Fore
SplineSet
47 18 m 258
 50 32 l 258
 53 44 67 52 79 50 c 257
 92 47 103 46 114 46 c 256
 153 46 184 67 192 152 c 257
 169 146 146 143 125 143 c 256
 59 143 16 186 16 250 c 256
 16 325 58 367 135 367 c 256
 218 367 262 308 262 202 c 256
 262 38 196 -13 114 -13 c 256
 99 -13 82 -12 66 -9 c 257
 53 -6 44 6 47 18 c 258
194 215 m 257
 192 284 171 308 135 308 c 256
 97 308 83 294 83 250 c 256
 83 220 100 202 125 202 c 256
 147 202 168 206 194 215 c 257
  PathStart: -2
EndSplineSet
PickledDataWithLists: "(dp0
Vcom.schriftgestaltung.Glyphs.Export
p1
I00
sVcom.schriftgestaltung.Glyphs.lastChange
p2
V2015-12-22 13:07:35 +0000
p3
s."
EndChar

StartChar: nine.hex
Encoding: 65571 -1 289
GlifName: nine.hex
Width: 575
VWidth: 0
Flags: HW
LayerCount: 2
Fore
SplineSet
114 875 m 258
 114 829 l 258
 114 812 105 804 89 804 c 258
 54 804 l 258
 37 804 29 813 29 829 c 258
 29 875 l 258
 29 891 38 900 54 900 c 258
 89 900 l 258
 105 900 114 891 114 875 c 258
546 875 m 258
 546 829 l 258
 546 812 537 804 521 804 c 258
 486 804 l 258
 469 804 461 813 461 829 c 258
 461 875 l 258
 461 891 470 900 486 900 c 258
 521 900 l 258
 537 900 546 891 546 875 c 258
EndSplineSet
Refer: 287 57 N 1 0 0 1 0 0 2
PickledDataWithLists: "(dp0
Vcom.schriftgestaltung.Glyphs.lastChange
p1
V2016-02-10 13:40:56 +0000
p2
s."
EndChar

StartChar: notequal
Encoding: 8800 8800 291
GlifName: notequal
Width: 575
VWidth: 0
Flags: HW
LayerCount: 2
Fore
SplineSet
367 327 m 257
 301 194 l 257
 499 194 l 257
 520 194 534 179 534 159 c 257
 534 132 l 257
 534 112 520 97 499 97 c 257
 252 97 l 257
 176 -56 l 257
 169 -71 155 -80 138 -80 c 257
 96 -80 l 257
 71 -80 59 -58 69 -37 c 257
 136 97 l 257
 76 97 l 257
 56 97 41 112 41 132 c 257
 41 158 l 257
 41 179 56 194 76 194 c 257
 184 194 l 257
 251 327 l 257
 76 327 l 257
 56 327 41 342 41 362 c 257
 41 388 l 257
 41 409 56 424 76 424 c 257
 299 424 l 257
 375 576 l 257
 382 591 397 600 414 600 c 257
 455 600 l 257
 481 600 493 578 482 557 c 257
 416 424 l 257
 499 424 l 257
 520 424 534 409 534 389 c 257
 534 362 l 257
 534 342 520 327 499 327 c 257
 367 327 l 257
EndSplineSet
PickledDataWithLists: "(dp0
Vcom.schriftgestaltung.Glyphs.lastChange
p1
V2015-12-22 14:16:56 +0000
p2
s."
EndChar

StartChar: numbersign
Encoding: 35 35 294
GlifName: numbersign
Width: 575
VWidth: 0
Flags: HW
LayerCount: 2
Fore
SplineSet
443 290 m 257
 499 290 l 257
 519 290 534 275 534 255 c 257
 534 228 l 257
 534 208 519 193 499 193 c 257
 443 193 l 257
 443 35 l 257
 443 15 428 0 408 0 c 257
 373 0 l 257
 352 0 338 15 338 35 c 257
 338 193 l 257
 238 193 l 257
 238 35 l 257
 238 15 223 0 203 0 c 257
 168 0 l 257
 148 0 133 15 133 35 c 257
 133 193 l 257
 76 193 l 257
 56 193 41 208 41 228 c 257
 41 254 l 257
 41 275 56 290 76 290 c 257
 133 290 l 257
 133 424 l 257
 76 424 l 257
 56 424 41 439 41 459 c 257
 41 485 l 257
 41 506 56 521 76 521 c 257
 133 521 l 257
 133 685 l 257
 133 705 148 720 168 720 c 257
 203 720 l 257
 223 720 238 706 238 685 c 257
 238 521 l 257
 338 521 l 257
 338 685 l 257
 338 705 352 720 373 720 c 257
 408 720 l 257
 428 720 443 706 443 685 c 257
 443 521 l 257
 499 521 l 257
 519 521 534 506 534 486 c 257
 534 459 l 257
 534 439 519 424 499 424 c 257
 443 424 l 257
 443 290 l 257
238 424 m 257
 238 290 l 257
 338 290 l 257
 338 424 l 257
 238 424 l 257
EndSplineSet
PickledDataWithLists: "(dp0
Vcom.schriftgestaltung.Glyphs.lastChange
p1
V2015-12-23 09:14:39 +0000
p2
s."
EndChar

StartChar: o
Encoding: 111 111 295
GlifName: o
Width: 575
VWidth: 0
Flags: HW
AnchorPoint: "top" 288 570 basechar 0
LayerCount: 2
Fore
SplineSet
65 260 m 256
 65 426 159 532 291 532 c 256
 421 532 510 428 510 260 c 256
 510 92 421 -12 291 -12 c 256
 159 -12 65 94 65 260 c 256
  PathStart: -2
170 260 m 256
 170 151 222 85 288 85 c 256
 354 85 405 151 405 260 c 256
 405 369 354 435 288 435 c 256
 222 435 170 369 170 260 c 256
  PathStart: -2
EndSplineSet
PickledDataWithLists: "(dp0
Vcom.schriftgestaltung.Glyphs.lastChange
p1
V2016-06-09 18:35:33 +0000
p2
s."
EndChar

StartChar: oe
Encoding: 339 339 299
GlifName: oe
Width: 575
VWidth: 0
Flags: HW
LayerCount: 2
Fore
SplineSet
497 69 m 257
 503 43 l 257
 508 23 496 5 475 1 c 257
 434 -6 404 -10 391 -10 c 257
 355 -10 322 6 299 52 c 257
 276 5 245 -12 210 -12 c 257
 123 -12 75 89 75 260 c 257
 75 431 125 532 216 532 c 257
 248 532 277 516 299 476 c 257
 320 515 350 530 383 530 c 257
 471 530 520 437 520 280 c 257
 520 257 l 257
 520 237 505 222 485 222 c 257
 350 222 l 257
 352 132 369 87 391 87 c 257
 395 87 419 90 455 96 c 257
 475 100 492 89 497 69 c 257
180 260 m 257
 180 144 195 85 212 85 c 257
 230 85 245 144 245 260 c 257
 245 377 230 435 213 435 c 257
 195 435 180 377 180 260 c 257
  PathStart: -2
352 319 m 257
 414 319 l 257
 410 396 396 434 383 434 c 257
 370 434 357 396 352 319 c 257
EndSplineSet
PickledDataWithLists: "(dp0
Vcom.schriftgestaltung.Glyphs.lastChange
p1
V2016-06-09 18:35:34 +0000
p2
s."
EndChar

StartChar: ogonek
Encoding: 731 731 300
GlifName: ogonek
Width: 575
VWidth: 0
Flags: HW
AnchorPoint: "ogonek" 353 5 mark 0
LayerCount: 2
Fore
SplineSet
286 28 m 256
 298 36 307 37 317 34 c 256
 326 30 329 21 325 6 c 256
 321 -14 316 -37 316 -53 c 256
 316 -105 327 -131 345 -152 c 256
 355 -165 356 -176 345 -188 c 258
 324 -211 l 258
 314 -223 301 -224 289 -212 c 256
 255 -177 231 -131 231 -83 c 256
 231 -53 233 -13 286 28 c 256
  PathStart: -2
EndSplineSet
PickledDataWithLists: "(dp0
Vcom.schriftgestaltung.Glyphs.lastChange
p1
V2015-12-22 16:32:43 +0000
p2
s."
EndChar

StartChar: omega
Encoding: 969 969 304
GlifName: omega
Width: 575
VWidth: 0
Flags: HW
LayerCount: 2
Fore
SplineSet
415 467 m 257
 427 497 l 258
 434 517 451 526 471 519 c 257
 528 497 555 440 555 340 c 258
 555 180 l 258
 555 48 507 -10 395 -10 c 256
 343 -10 309 7 288 43 c 257
 266 7 231 -10 180 -10 c 256
 68 -10 20 48 20 180 c 258
 20 340 l 258
 20 440 47 497 105 519 c 257
 124 526 141 517 148 498 c 258
 160 466 l 257
 166 450 162 438 146 424 c 256
 132 411 125 385 125 340 c 258
 125 180 l 258
 125 112 141 87 180 87 c 256
 219 87 235 112 235 180 c 258
 235 315 l 258
 235 336 249 350 270 350 c 258
 305 350 l 258
 326 350 340 336 340 315 c 258
 340 180 l 258
 340 112 356 87 395 87 c 256
 434 87 450 112 450 180 c 258
 450 340 l 258
 450 385 443 411 429 424 c 256
 413 438 409 450 415 467 c 257
EndSplineSet
PickledDataWithLists: "(dp0
Vcom.schriftgestaltung.Glyphs.lastChange
p1
V2015-12-22 12:55:46 +0000
p2
s."
EndChar

StartChar: one
Encoding: 49 49 306
GlifName: one
Width: 575
VWidth: 0
Flags: HW
LayerCount: 2
Fore
SplineSet
372 97 m 257
 465 97 l 257
 486 97 500 82 500 62 c 257
 500 35 l 257
 500 15 486 0 465 0 c 257
 110 0 l 257
 90 0 75 15 75 35 c 257
 75 62 l 257
 75 82 90 97 110 97 c 257
 267 97 l 257
 267 520 l 257
 110 520 l 257
 90 520 75 535 75 555 c 257
 75 582 l 257
 75 602 90 617 110 617 c 257
 206 617 254 636 280 694 c 257
 287 711 301 720 318 720 c 257
 337 720 l 257
 357 720 372 705 372 685 c 257
 372 97 l 257
EndSplineSet
PickledDataWithLists: "(dp0
Vcom.schriftgestaltung.Glyphs.lastChange
p1
V2015-12-22 20:51:40 +0000
p2
s."
EndChar

StartChar: one.dnom
Encoding: 65573 -1 307
GlifName: one.dnom
Width: 250
VWidth: 0
Flags: HW
LayerCount: 2
Fore
SplineSet
193 49 m 257
 233 49 l 257
 247 49 257 37 257 26 c 257
 257 13 l 257
 257 2 247 -10 233 -10 c 257
 55 -10 l 257
 41 -10 31 2 31 13 c 257
 31 26 l 257
 31 37 41 49 55 49 c 257
 127 49 l 257
 127 250 l 257
 55 250 l 257
 41 250 31 262 31 273 c 257
 31 286 l 257
 31 297 41 309 55 309 c 257
 102 309 122 316 134 344 c 257
 138 353 147 360 159 360 c 257
 169 360 l 257
 183 360 193 350 193 338 c 257
 193 49 l 257
EndSplineSet
PickledDataWithLists: "(dp0
Vcom.schriftgestaltung.Glyphs.Export
p1
I00
sVcom.schriftgestaltung.Glyphs.lastChange
p2
V2015-12-22 13:04:47 +0000
p3
s."
EndChar

StartChar: one.hex
Encoding: 65574 -1 308
GlifName: one.hex
Width: 575
VWidth: 0
Flags: HW
LayerCount: 2
Fore
SplineSet
546 875 m 258
 546 829 l 258
 546 812 537 804 521 804 c 258
 486 804 l 258
 469 804 461 813 461 829 c 258
 461 875 l 258
 461 891 470 900 486 900 c 258
 521 900 l 258
 537 900 546 891 546 875 c 258
EndSplineSet
Refer: 306 49 N 1 0 0 1 0 0 2
PickledDataWithLists: "(dp0
Vcom.schriftgestaltung.Glyphs.lastChange
p1
V2016-02-10 13:18:28 +0000
p2
s."
EndChar

StartChar: onedotenleader
Encoding: 8228 8228 310
GlifName: onedotenleader
Width: 575
VWidth: 0
Flags: HW
LayerCount: 2
Fore
SplineSet
200 35 m 257
 200 122 l 257
 200 143 215 157 235 157 c 257
 340 157 l 257
 361 157 375 143 375 122 c 257
 375 35 l 257
 375 15 361 0 340 0 c 257
 235 0 l 257
 215 0 200 15 200 35 c 257
EndSplineSet
PickledDataWithLists: "(dp0
Vcom.schriftgestaltung.Glyphs.lastChange
p1
V2015-12-23 09:15:15 +0000
p2
s."
EndChar

StartChar: ordfeminine
Encoding: 170 170 314
GlifName: ordfeminine
Width: 575
VWidth: 0
Flags: HW
LayerCount: 2
Fore
SplineSet
421 596 m 258
 421 403 l 258
 421 384 409 371 390 368 c 256
 350 363 313 360 281 360 c 256
 183 360 127 400 126 473 c 256
 126 546 182 586 283 586 c 258
 331 586 l 257
 331 596 l 258
 331 641 317 656 274 656 c 256
 259 656 230 655 203 650 c 256
 183 647 166 659 163 677 c 257
 161 695 l 257
 160 715 169 729 187 733 c 257
 219 738 247 740 274 740 c 256
 374 740 421 694 421 596 c 258
331 501 m 257
 283 501 l 258
 238 501 217 491 217 473 c 257
 216 454 239 443 285 443 c 256
 300 443 315 444 331 446 c 257
 331 501 l 257
EndSplineSet
PickledDataWithLists: "(dp0
Vcom.schriftgestaltung.Glyphs.lastChange
p1
V2016-06-09 18:35:34 +0000
p2
s."
EndChar

StartChar: ordmasculine
Encoding: 186 186 315
GlifName: ordmasculine
Width: 575
VWidth: 0
Flags: HW
LayerCount: 2
Fore
SplineSet
136 540 m 256
 136 656 196 731 290 731 c 256
 382 731 439 658 439 540 c 256
 439 422 382 349 290 349 c 256
 196 349 136 424 136 540 c 256
  PathStart: -2
226 540 m 256
 226 473 250 433 288 433 c 256
 326 433 349 472 349 540 c 256
 349 608 326 647 288 647 c 256
 250 647 226 607 226 540 c 256
  PathStart: -2
EndSplineSet
PickledDataWithLists: "(dp0
Vcom.schriftgestaltung.Glyphs.lastChange
p1
V2016-06-09 18:35:34 +0000
p2
s."
EndChar

StartChar: oslash
Encoding: 248 248 316
GlifName: oslash
Width: 575
VWidth: 0
Flags: HW
LayerCount: 2
Fore
SplineSet
388 559 m 258
 396 574 406 579 421 573 c 258
 453 560 l 258
 469 554 475 542 467 527 c 258
 177 -72 l 258
 170 -87 160 -92 145 -86 c 258
 112 -73 l 258
 97 -67 91 -55 98 -40 c 258
 388 559 l 258
  PathStart: -2
EndSplineSet
Refer: 295 111 N 1 0 0 1 0 0 2
PickledDataWithLists: "(dp0
Vcom.schriftgestaltung.Glyphs.lastChange
p1
V2016-06-09 18:35:33 +0000
p2
s."
EndChar

StartChar: p
Encoding: 112 112 318
GlifName: p
Width: 575
VWidth: 0
Flags: HW
AnchorPoint: "top" 288 570 basechar 0
AnchorPoint: "bottom" 288 0 basechar 0
LayerCount: 2
Fore
SplineSet
75 -215 m 258
 75 470 l 258
 75 482 83 495 94 500 c 256
 142 520 195 530 247 530 c 256
 376 530 500 456 500 260 c 256
 500 64 376 -10 247 -10 c 256
 225 -10 202 -8 180 -4 c 257
 180 -215 l 258
 180 -235 165 -250 145 -250 c 258
 110 -250 l 258
 90 -250 75 -235 75 -215 c 258
180 425 m 257
 180 89 l 257
 199 86 218 84 237 84 c 256
 321 84 394 123 394 260 c 256
 394 389 331 432 247 432 c 256
 223 432 202 430 180 425 c 257
EndSplineSet
PickledDataWithLists: "(dp0
Vcom.schriftgestaltung.Glyphs.lastChange
p1
V2016-06-09 18:35:34 +0000
p2
s."
EndChar

StartChar: paragraph
Encoding: 182 182 319
GlifName: paragraph
Width: 575
VWidth: 0
Flags: HW
LayerCount: 2
Fore
SplineSet
250 720 m 258
 310 720 l 258
 332 720 345 707 345 685 c 258
 345 -65 l 258
 345 -87 332 -100 310 -100 c 258
 275 -100 l 258
 254 -100 240 -86 240 -65 c 258
 240 322 l 257
 116 326 49 395 49 521 c 256
 49 650 119 720 250 720 c 258
460 720 m 258
 495 720 l 258
 517 720 530 707 530 685 c 258
 530 -65 l 258
 530 -87 517 -100 495 -100 c 258
 460 -100 l 258
 439 -100 425 -86 425 -65 c 258
 425 685 l 258
 425 706 439 720 460 720 c 258
EndSplineSet
PickledDataWithLists: "(dp0
Vcom.schriftgestaltung.Glyphs.lastChange
p1
V2016-05-30 08:36:51 +0000
p2
s."
EndChar

StartChar: parenleft
Encoding: 40 40 320
GlifName: parenleft
Width: 575
VWidth: 0
Flags: HW
LayerCount: 2
Fore
SplineSet
181 285 m 257
 181 89 296 -56 454 -88 c 257
 474 -92 486 -110 481 -130 c 257
 475 -158 l 257
 471 -179 453 -188 433 -185 c 257
 223 -142 75 43 75 285 c 257
 75 527 223 712 433 755 c 257
 453 758 471 749 475 728 c 257
 481 700 l 257
 486 680 474 662 454 658 c 257
 296 626 181 481 181 285 c 257
  PathStart: -2
EndSplineSet
PickledDataWithLists: "(dp0
Vcom.schriftgestaltung.Glyphs.lastChange
p1
V2016-05-19 19:23:15 +0000
p2
s."
EndChar

StartChar: parenright
Encoding: 41 41 321
GlifName: parenright
Width: 575
VWidth: 0
Flags: HW
LayerCount: 2
Fore
SplineSet
89 -130 m 257
 84 -110 96 -92 116 -88 c 257
 274 -56 389 89 389 285 c 257
 389 481 274 626 116 658 c 257
 96 662 84 680 89 700 c 257
 95 728 l 257
 99 749 117 758 137 755 c 257
 347 712 495 527 495 285 c 257
 495 43 347 -142 137 -185 c 257
 117 -188 99 -179 95 -158 c 257
 89 -130 l 257
  PathStart: -2
EndSplineSet
PickledDataWithLists: "(dp0
Vcom.schriftgestaltung.Glyphs.lastChange
p1
V2016-05-19 19:22:51 +0000
p2
s."
EndChar

StartChar: partialdiff
Encoding: 8706 8706 322
GlifName: partialdiff
Width: 575
VWidth: 0
Flags: HW
LayerCount: 2
Fore
SplineSet
270 762 m 258
 297 777 l 258
 315 787 335 782 345 764 c 256
 445 593 500 418 500 270 c 256
 500 93 424 -11 288 -11 c 256
 152 -11 75 81 75 240 c 256
 75 424 162 529 317 530 c 257
 316 530 l 257
 325 531 337 530 350 529 c 257
 326 595 295 659 259 712 c 256
 246 730 251 752 270 762 c 258
317 434 m 256
 229 433 180 366 180 240 c 256
 180 144 217 91 282 87 c 256
 353 82 394 144 395 270 c 256
 395 322 390 378 378 429 c 257
 356 432 335 434 317 434 c 256
  PathStart: -2
EndSplineSet
PickledDataWithLists: "(dp0
Vcom.schriftgestaltung.Glyphs.lastChange
p1
V2015-12-22 14:17:42 +0000
p2
s."
EndChar

StartChar: percent
Encoding: 37 37 323
GlifName: percent
Width: 575
VWidth: 0
Flags: HW
LayerCount: 2
Fore
SplineSet
88 620 m 257
 188 620 l 257
 208 620 223 606 223 585 c 257
 223 495 l 257
 223 475 208 460 188 460 c 257
 88 460 l 257
 68 460 53 475 53 495 c 257
 53 585 l 257
 53 606 67 620 88 620 c 257
69 69 m 257
 46 90 l 257
 31 103 30 124 45 139 c 257
 457 551 l 257
 471 565 491 566 506 553 c 257
 530 531 l 257
 545 517 545 496 531 482 c 257
 118 69 l 257
 104 55 84 55 69 69 c 257
388 160 m 257
 488 160 l 257
 508 160 523 146 523 125 c 257
 523 35 l 257
 523 15 508 0 488 0 c 257
 388 0 l 257
 368 0 353 15 353 35 c 257
 353 125 l 257
 353 146 367 160 388 160 c 257
EndSplineSet
PickledDataWithLists: "(dp0
Vcom.schriftgestaltung.Glyphs.lastChange
p1
V2015-12-22 14:18:08 +0000
p2
s."
EndChar

StartChar: period
Encoding: 46 46 324
GlifName: period
Width: 575
VWidth: 0
Flags: HW
LayerCount: 2
Fore
SplineSet
237 160 m 257
 337 160 l 257
 357 160 372 146 372 125 c 257
 372 35 l 257
 372 15 358 0 337 0 c 257
 237 0 l 257
 217 0 202 15 202 35 c 257
 202 125 l 257
 202 146 217 160 237 160 c 257
EndSplineSet
PickledDataWithLists: "(dp0
Vcom.schriftgestaltung.Glyphs.lastChange
p1
V2015-12-23 09:15:27 +0000
p2
s."
EndChar

StartChar: periodcentered
Encoding: 183 183 325
GlifName: periodcentered
Width: 575
VWidth: 0
Flags: HW
LayerCount: 2
Fore
SplineSet
340 284 m 257
 340 237 l 257
 340 217 326 202 305 202 c 257
 270 202 l 257
 250 202 235 217 235 237 c 257
 235 283 l 257
 235 304 250 319 270 319 c 257
 305 319 l 257
 326 319 340 304 340 284 c 257
EndSplineSet
PickledDataWithLists: "(dp0
Vcom.schriftgestaltung.Glyphs.lastChange
p1
V2015-12-22 20:53:09 +0000
p2
s."
EndChar

StartChar: perthousand
Encoding: 8240 8240 326
GlifName: perthousand
Width: 575
VWidth: 0
Flags: HW
LayerCount: 2
Fore
SplineSet
34 69 m 257
 11 90 l 257
 -4 103 -5 124 10 139 c 257
 422 551 l 257
 436 565 456 566 471 553 c 257
 495 531 l 257
 510 517 510 496 496 482 c 257
 83 69 l 257
 69 55 49 55 34 69 c 257
88 620 m 257
 188 620 l 257
 208 620 223 606 223 585 c 257
 223 495 l 257
 223 475 208 460 188 460 c 257
 88 460 l 257
 68 460 53 475 53 495 c 257
 53 585 l 257
 53 606 67 620 88 620 c 257
253 160 m 257
 328 160 l 257
 348 160 363 146 363 125 c 257
 363 35 l 257
 363 15 348 0 328 0 c 257
 253 0 l 257
 233 0 218 15 218 35 c 257
 218 125 l 257
 218 146 232 160 253 160 c 257
458 160 m 257
 533 160 l 257
 553 160 568 146 568 125 c 257
 568 35 l 257
 568 15 553 0 533 0 c 257
 458 0 l 257
 438 0 423 15 423 35 c 257
 423 125 l 257
 423 146 437 160 458 160 c 257
EndSplineSet
PickledDataWithLists: "(dp0
Vcom.schriftgestaltung.Glyphs.lastChange
p1
V2015-12-22 14:18:32 +0000
p2
s."
EndChar

StartChar: phi
Encoding: 966 966 327
GlifName: phi
Width: 575
VWidth: 0
Flags: HW
LayerCount: 2
Fore
SplineSet
236 340 m 258
 236 472 284 530 395 530 c 256
 503 530 550 473 550 340 c 258
 550 220 l 258
 550 69 487 3 340 0 c 257
 340 -86 l 257
 340 -108 327 -121 305 -121 c 258
 270 -121 l 258
 248 -121 235 -108 235 -86 c 258
 235 0 l 257
 88 3 25 69 25 220 c 258
 25 405 l 258
 25 427 38 440 60 440 c 258
 95 440 l 258
 117 440 130 427 130 405 c 258
 130 220 l 258
 130 135 159 100 235 97 c 257
 236 340 l 258
  PathStart: -2
445 220 m 258
 445 340 l 258
 445 408 430 433 395 433 c 256
 356 433 340 409 340 343 c 257
 340 97 l 257
 416 100 445 135 445 220 c 258
EndSplineSet
PickledDataWithLists: "(dp0
Vcom.schriftgestaltung.Glyphs.lastChange
p1
V2015-12-22 12:48:44 +0000
p2
s."
EndChar

StartChar: pi
Encoding: 960 960 328
GlifName: pi
Width: 575
VWidth: 0
Flags: HW
LayerCount: 2
Fore
SplineSet
130 424 m 257
 95 424 l 258
 73 424 60 437 60 459 c 258
 60 485 l 258
 60 507 73 520 95 520 c 258
 480 520 l 258
 502 520 515 507 515 485 c 258
 515 459 l 258
 515 437 503 424 481 423 c 258
 480 423 l 257
 445 423 l 257
 445 230 l 258
 445 145 445 92 468 37 c 256
 477 17 465 0 440 0 c 258
 405 0 l 258
 387 0 373 10 365 29 c 256
 340 88 340 145 340 230 c 258
 340 423 l 257
 235 423 l 257
 235 35 l 258
 235 13 222 0 200 0 c 258
 165 0 l 258
 144 0 130 14 130 35 c 258
 130 424 l 257
EndSplineSet
PickledDataWithLists: "(dp0
Vcom.schriftgestaltung.Glyphs.lastChange
p1
V2015-12-22 16:32:58 +0000
p2
s."
EndChar

StartChar: plus
Encoding: 43 43 329
GlifName: plus
Width: 575
VWidth: 0
Flags: HW
LayerCount: 2
Fore
SplineSet
340 309 m 257
 499 309 l 258
 521 309 534 296 534 274 c 258
 534 247 l 258
 534 225 521 212 499 212 c 258
 340 212 l 257
 340 35 l 258
 340 13 327 0 305 0 c 258
 270 0 l 258
 249 0 235 14 235 35 c 258
 235 212 l 257
 76 212 l 258
 55 212 41 226 41 247 c 258
 41 273 l 258
 41 295 54 309 76 309 c 258
 235 309 l 257
 235 485 l 258
 235 506 249 520 270 520 c 258
 305 520 l 258
 327 520 340 507 340 485 c 258
 340 309 l 257
EndSplineSet
PickledDataWithLists: "(dp0
Vcom.schriftgestaltung.Glyphs.lastChange
p1
V2015-12-22 14:19:00 +0000
p2
s."
EndChar

StartChar: plusminus
Encoding: 177 177 330
GlifName: plusminus
Width: 575
VWidth: 0
Flags: HW
LayerCount: 2
Fore
SplineSet
340 472 m 257
 499 472 l 257
 520 472 534 457 534 437 c 257
 534 410 l 257
 534 390 520 375 499 375 c 257
 340 375 l 257
 340 212 l 257
 340 191 326 177 305 177 c 257
 270 177 l 257
 250 177 235 192 235 212 c 257
 235 375 l 257
 76 375 l 257
 56 375 41 390 41 410 c 257
 41 436 l 257
 41 457 56 472 76 472 c 257
 235 472 l 257
 235 635 l 257
 235 655 250 670 270 670 c 257
 305 670 l 257
 326 670 340 655 340 635 c 257
 340 472 l 257
41 35 m 257
 41 62 l 257
 41 82 56 97 76 97 c 257
 499 97 l 257
 520 97 534 82 534 62 c 257
 534 35 l 257
 534 15 520 0 499 0 c 257
 76 0 l 257
 56 0 41 15 41 35 c 257
EndSplineSet
PickledDataWithLists: "(dp0
Vcom.schriftgestaltung.Glyphs.lastChange
p1
V2015-12-22 14:19:26 +0000
p2
s."
EndChar

StartChar: product
Encoding: 8719 8719 331
GlifName: product
Width: 575
VWidth: 0
Flags: HW
LayerCount: 2
Fore
SplineSet
77 719 m 258
 500 719 l 258
 520 719 535 704 535 684 c 258
 535 657 l 258
 535 637 520 622 500 622 c 258
 465 622 l 257
 465 -48 l 258
 465 -68 451 -83 430 -83 c 258
 395 -83 l 258
 375 -83 360 -68 360 -48 c 258
 360 622 l 257
 215 622 l 257
 215 -48 l 258
 215 -68 201 -83 180 -83 c 258
 145 -83 l 258
 125 -83 110 -68 110 -48 c 258
 110 622 l 257
 77 622 l 258
 57 622 42 637 42 657 c 258
 42 683 l 258
 42 704 57 719 77 719 c 258
EndSplineSet
PickledDataWithLists: "(dp0
Vcom.schriftgestaltung.Glyphs.lastChange
p1
V2015-12-22 14:19:57 +0000
p2
s."
EndChar

StartChar: psi
Encoding: 968 968 332
GlifName: psi
Width: 575
VWidth: 0
Flags: HW
LayerCount: 2
Fore
SplineSet
480 520 m 258
 515 520 l 258
 537 520 550 507 550 485 c 258
 550 220 l 258
 550 69 487 3 340 0 c 257
 340 -86 l 257
 340 -108 327 -121 305 -121 c 258
 270 -121 l 258
 248 -121 235 -108 235 -86 c 258
 235 0 l 257
 88 3 25 69 25 220 c 258
 25 485 l 258
 25 507 38 520 60 520 c 258
 95 520 l 258
 117 520 130 507 130 485 c 258
 130 220 l 258
 130 135 159 100 235 97 c 257
 235 485 l 258
 235 507 248 520 270 520 c 258
 305 520 l 258
 327 520 340 507 340 485 c 257
 340 97 l 257
 416 100 445 135 445 220 c 258
 445 485 l 258
 445 507 458 520 480 520 c 258
EndSplineSet
PickledDataWithLists: "(dp0
Vcom.schriftgestaltung.Glyphs.lastChange
p1
V2015-12-22 12:55:00 +0000
p2
s."
EndChar

StartChar: question
Encoding: 63 63 334
GlifName: question
Width: 575
VWidth: 0
Flags: HW
LayerCount: 2
Fore
SplineSet
55 661 m 258
 55 685 l 258
 55 705 70 720 90 720 c 256
 381 718 510 608 510 505 c 256
 510 399 409 330 253 327 c 257
 253 240 l 258
 253 220 238 205 218 205 c 258
 183 205 l 258
 163 205 148 220 148 240 c 258
 148 386 l 258
 148 406 163 421 183 421 c 258
 244 421 l 258
 344 421 404 455 404 505 c 256
 404 575 285 625 90 626 c 256
 70 626 55 641 55 661 c 258
148 35 m 258
 148 82 l 258
 148 102 163 117 183 117 c 258
 218 117 l 258
 238 117 253 102 253 82 c 258
 253 35 l 258
 253 14 238 0 218 0 c 258
 183 0 l 258
 163 0 148 14 148 35 c 258
EndSplineSet
PickledDataWithLists: "(dp0
Vcom.schriftgestaltung.Glyphs.lastChange
p1
V2015-12-23 09:17:54 +0000
p2
s."
EndChar

StartChar: quotedbl
Encoding: 34 34 336
GlifName: quotedbl
Width: 575
VWidth: 0
Flags: HW
LayerCount: 2
Fore
SplineSet
146 770 m 257
 201 770 l 257
 221 770 236 755 235 735 c 257
 223 446 l 257
 222 426 207 413 187 413 c 257
 160 413 l 257
 140 413 125 426 124 447 c 257
 111 735 l 257
 111 755 125 770 146 770 c 257
375 770 m 257
 430 770 l 257
 450 770 465 755 464 735 c 257
 451 447 l 257
 451 427 436 413 416 413 c 257
 388 413 l 257
 368 413 354 427 353 447 c 257
 340 734 l 257
 339 755 354 770 375 770 c 257
EndSplineSet
PickledDataWithLists: "(dp0
Vcom.schriftgestaltung.Glyphs.lastChange
p1
V2015-12-23 09:18:16 +0000
p2
s."
EndChar

StartChar: quotesinglbase
Encoding: 8218 8218 343
GlifName: quotesinglbase
Width: 575
VWidth: 0
Flags: HW
LayerCount: 2
Fore
SplineSet
248 135 m 258
 328 135 l 258
 350 135 363 122 363 100 c 258
 363 8 l 258
 363 -132 316 -207 228 -207 c 256
 206 -207 193 -194 193 -173 c 258
 193 -146 l 258
 193 -124 206 -111 227 -111 c 256
 252 -111 263 -78 263 0 c 257
 248 0 l 258
 227 0 213 14 213 35 c 258
 213 100 l 258
 213 122 226 135 248 135 c 258
EndSplineSet
PickledDataWithLists: "(dp0
Vcom.schriftgestaltung.Glyphs.lastChange
p1
V2015-12-22 14:00:50 +0000
p2
s."
EndChar

StartChar: quotesingle
Encoding: 39 39 344
GlifName: quotesingle
Width: 575
VWidth: 0
Flags: HW
LayerCount: 2
Fore
SplineSet
260 770 m 258
 315 770 l 258
 337 770 350 757 350 735 c 257
 337 446 l 258
 336 425 323 413 302 413 c 258
 274 413 l 258
 253 413 239 425 238 447 c 258
 226 734 l 258
 225 756 238 770 260 770 c 258
EndSplineSet
PickledDataWithLists: "(dp0
Vcom.schriftgestaltung.Glyphs.lastChange
p1
V2015-12-22 13:46:53 +0000
p2
s."
EndChar

StartChar: r
Encoding: 114 114 345
GlifName: r
Width: 575
VWidth: 0
Flags: HW
AnchorPoint: "top" 288 570 basechar 0
AnchorPoint: "bottom" 288 0 basechar 0
LayerCount: 2
Fore
SplineSet
75 35 m 257
 75 481 l 257
 75 500 88 514 107 518 c 257
 180 529 245 530 278 530 c 257
 436 530 500 482 500 358 c 257
 500 337 486 323 465 323 c 257
 430 323 l 257
 410 323 395 338 395 358 c 257
 395 414 365 434 278 434 c 257
 256 434 221 433 180 431 c 257
 180 35 l 257
 180 15 166 0 145 0 c 257
 110 0 l 257
 90 0 75 15 75 35 c 257
EndSplineSet
PickledDataWithLists: "(dp0
Vcom.schriftgestaltung.Glyphs.lastChange
p1
V2016-06-09 18:35:34 +0000
p2
sVcom.typemytype.robofont.layerData
p3
(dp4
VBold Aug 24 14, 23:02
p5
(dp6
Vanchors
p7
(lp8
(dp9
Vname
p10
Vtop
p11
sVx
p12
I288
sVy
p13
I500
sa(dp14
g10
Vbottom
p15
sg12
I288
sg13
I0
sasVcomponents
p16
(lp17
sVcontours
p18
(lp19
(dp20
Vpoints
p21
(lp22
(dp23
VsegmentType
p24
Vline
p25
sVsmooth
p26
I01
sg12
I85
sg13
I25
sa(dp27
g26
I00
sg12
I85
sg13
I9
sa(dp28
g26
I00
sg12
I94
sg13
I0
sa(dp29
g24
Vcurve
p30
sg26
I01
sg12
I110
sg13
I0
sa(dp31
g24
Vline
p32
sg26
I01
sg12
I220
sg13
I0
sa(dp33
g26
I00
sg12
I237
sg13
I0
sa(dp34
g26
I00
sg12
I245
sg13
I9
sa(dp35
g24
Vcurve
p36
sg26
I01
sg12
I245
sg13
I25
sa(dp37
g24
Vline
p38
sg26
I00
sg12
I245
sg13
I432
sa(dp39
g26
I00
sg12
I265
sg13
I433
sa(dp40
g26
I00
sg12
I283
sg13
I434
sa(dp41
g24
Vcurve
p42
sg26
I01
sg12
I278
sg13
I434
sa(dp43
g26
I00
sg12
I317
sg13
I434
sa(dp44
g26
I00
sg12
I330
sg13
I415
sa(dp45
g24
Vcurve
p46
sg26
I01
sg12
I330
sg13
I334
sa(dp47
g26
I00
sg12
I330
sg13
I317
sa(dp48
g26
I00
sg12
I339
sg13
I308
sa(dp49
g24
Vcurve
p50
sg26
I01
sg12
I355
sg13
I308
sa(dp51
g24
Vline
p52
sg26
I01
sg12
I465
sg13
I308
sa(dp53
g26
I00
sg12
I481
sg13
I308
sa(dp54
g26
I00
sg12
I490
sg13
I317
sa(dp55
g24
Vcurve
p56
sg26
I01
sg12
I490
sg13
I334
sa(dp57
g26
I00
sg12
I490
sg13
I461
sa(dp58
g26
I00
sg12
I417
sg13
I510
sa(dp59
g24
Vcurve
p60
sg26
I01
sg12
I278
sg13
I510
sa(dp61
g26
I00
sg12
I245
sg13
I510
sa(dp62
g26
I00
sg12
I181
sg13
I509
sa(dp63
g24
Vcurve
p64
sg26
I01
sg12
I108
sg13
I498
sa(dp65
g26
I00
sg12
I93
sg13
I495
sa(dp66
g26
I00
sg12
I85
sg13
I486
sa(dp67
g24
Vcurve
p68
sg26
I01
sg12
I85
sg13
I471
sasasVlib
p69
(dp70
sg10
Vr
p71
sVunicodes
p72
(lp73
sVwidth
p74
I575
sss."
EndChar

StartChar: radical
Encoding: 8730 8730 347
GlifName: radical
Width: 575
VWidth: 0
Flags: HW
LayerCount: 2
Fore
SplineSet
382 721 m 257
 512 721 l 257
 533 721 547 706 547 686 c 257
 547 659 l 257
 547 638 533 624 512 624 c 257
 426 624 l 257
 312 31 l 257
 308 13 294 0 275 0 c 257
 255 0 l 257
 238 0 224 9 217 25 c 257
 102 273 l 257
 56 273 l 257
 35 273 21 288 21 308 c 257
 21 335 l 257
 21 356 36 370 56 370 c 257
 129 370 l 257
 146 370 160 361 167 345 c 257
 255 151 l 257
 345 690 l 257
 349 708 363 721 382 721 c 257
EndSplineSet
PickledDataWithLists: "(dp0
Vcom.schriftgestaltung.Glyphs.lastChange
p1
V2015-12-22 14:20:21 +0000
p2
s."
EndChar

StartChar: registered
Encoding: 174 174 349
GlifName: registered
Width: 575
VWidth: 0
Flags: HW
LayerCount: 2
Fore
SplineSet
288 637 m 256
 356 637 425 609 473 561 c 256
 522 512 550 444 550 375 c 256
 550 307 522 238 473 190 c 256
 425 141 356 113 288 113 c 256
 219 113 151 141 102 190 c 256
 54 238 26 307 26 375 c 256
 26 444 54 512 102 561 c 256
 151 609 219 637 288 637 c 256
  PathStart: -2
288 176 m 256
 340 176 392 197 429 234 c 256
 466 271 487 323 487 375 c 256
 487 427 466 479 429 516 c 256
 392 553 340 575 288 575 c 256
 236 575 184 553 147 516 c 256
 110 479 88 427 88 375 c 256
 88 323 110 271 147 234 c 256
 184 197 236 176 288 176 c 256
  PathStart: -2
206 500 m 257
 307 500 l 257
 320 500 332 500 345 498 c 256
 357 496 369 492 379 485 c 256
 390 478 398 469 404 458 c 256
 410 447 414 435 414 422 c 256
 414 410 410 397 404 386 c 256
 398 376 390 366 379 359 c 256
 370 353 359 349 348 347 c 257
 398 281 l 258
 411 264 404 250 383 250 c 258
 362 250 l 258
 349 250 340 255 332 265 c 258
 272 344 l 257
 243 344 l 257
 243 275 l 258
 243 259 235 250 218 250 c 258
 206 250 l 258
 190 250 181 259 181 275 c 258
 181 475 l 258
 181 492 190 500 206 500 c 257
243 407 m 257
 317 407 l 258
 329 407 352 407 351 422 c 256
 351 435 328 438 317 438 c 258
 243 438 l 257
 243 407 l 257
EndSplineSet
PickledDataWithLists: "(dp0
Vcom.schriftgestaltung.Glyphs.lastChange
p1
V2015-12-22 14:24:37 +0000
p2
s."
EndChar

StartChar: rho
Encoding: 961 961 350
GlifName: rho
Width: 575
VWidth: 0
Flags: HW
LayerCount: 2
Fore
SplineSet
75 -215 m 258
 75 250 l 258
 75 454 134 532 289 532 c 256
 437 532 500 451 500 262 c 256
 500 70 430 -9 259 -9 c 256
 241 -9 213 -8 180 -5 c 257
 180 -215 l 258
 180 -236 166 -250 145 -250 c 258
 110 -250 l 258
 89 -250 75 -236 75 -215 c 258
180 250 m 258
 180 91 l 257
 213 89 241 88 259 88 c 256
 363 88 395 129 395 262 c 256
 395 387 365 435 289 435 c 256
 208 435 180 390 180 250 c 258
EndSplineSet
PickledDataWithLists: "(dp0
Vcom.schriftgestaltung.Glyphs.lastChange
p1
V2015-12-22 12:46:09 +0000
p2
s."
EndChar

StartChar: ring
Encoding: 730 730 351
GlifName: ring
Width: 575
VWidth: 0
Flags: HW
AnchorPoint: "top" 288 500 mark 0
LayerCount: 2
Fore
SplineSet
288 508 m 256
 221 508 179 545 179 604 c 256
 179 663 221 700 288 700 c 256
 355 700 397 663 397 604 c 256
 397 545 355 508 288 508 c 256
  PathStart: -2
288 569 m 256
 308 569 320 583 320 604 c 256
 320 626 308 639 288 639 c 256
 268 639 255 626 255 604 c 256
 255 583 268 569 288 569 c 256
  PathStart: -2
EndSplineSet
PickledDataWithLists: "(dp0
Vcom.schriftgestaltung.Glyphs.lastChange
p1
V2015-12-22 16:32:43 +0000
p2
s."
EndChar

StartChar: rtblock
Encoding: 9616 9616 352
GlifName: rtblock
Width: 575
VWidth: 0
Flags: HW
LayerCount: 2
Fore
SplineSet
287 -250 m 257
 287 900 l 257
 575 900 l 257
 575 -250 l 257
 287 -250 l 257
EndSplineSet
PickledDataWithLists: "(dp0
Vcom.schriftgestaltung.Glyphs.lastChange
p1
V2016-06-10 08:26:49 +0000
p2
s."
EndChar

StartChar: s
Encoding: 115 115 353
GlifName: s
Width: 575
VWidth: 0
Flags: HW
AnchorPoint: "top" 288 570 basechar 0
AnchorPoint: "bottom" 288 0 basechar 0
LayerCount: 2
Fore
SplineSet
446 476 m 257
 439 450 l 257
 434 432 417 421 397 425 c 257
 355 432 318 434 299 434 c 257
 234 432 201 411 201 378 c 257
 201 348 233 326 294 319 c 257
 411 305 479 246 479 156 c 257
 479 50 398 -10 259 -10 c 257
 227 -10 179 -8 122 1 c 257
 101 5 89 23 94 43 c 257
 100 69 l 257
 104 89 121 99 141 97 c 257
 192 88 236 87 259 87 c 257
 335 87 374 111 374 151 c 257
 375 189 343 216 282 222 c 257
 165 235 96 291 96 374 c 257
 96 474 171 530 299 530 c 257
 325 530 370 528 419 519 c 257
 439 515 451 497 446 476 c 257
EndSplineSet
PickledDataWithLists: "(dp0
Vcom.schriftgestaltung.Glyphs.lastChange
p1
V2016-06-09 18:35:34 +0000
p2
s."
EndChar

StartChar: section
Encoding: 167 167 358
GlifName: section
Width: 575
VWidth: 0
Flags: HW
LayerCount: 2
Fore
SplineSet
479 321 m 256
 479 271 452 233 402 211 c 257
 452 176 479 130 479 76 c 256
 479 -24 401 -80 267 -80 c 256
 241 -80 181 -78 132 -69 c 256
 111 -65 100 -46 105 -27 c 258
 111 -1 l 258
 116 20 134 29 154 26 c 257
 195 18 247 17 267 17 c 256
 338 18 374 40 374 73 c 256
 374 112 342 142 275 162 c 256
 147 201 96 245 96 320 c 256
 96 370 123 407 173 430 c 257
 123 465 96 511 96 564 c 256
 96 664 171 720 299 720 c 256
 325 720 370 718 419 709 c 256
 439 705 451 687 446 666 c 258
 439 640 l 258
 434 622 417 611 397 615 c 256
 355 622 318 624 299 624 c 256
 234 622 201 601 201 568 c 256
 201 530 236 497 301 479 c 257
 428 439 479 396 479 321 c 256
  PathStart: -2
275 382 m 257
 268 385 261 387 254 389 c 257
 219 377 201 358 201 335 c 256
 201 301 226 279 301 258 c 257
 317 252 l 257
 355 265 374 284 374 306 c 256
 375 339 349 361 275 382 c 257
  PathStart: -2
EndSplineSet
PickledDataWithLists: "(dp0
Vcom.schriftgestaltung.Glyphs.lastChange
p1
V2015-12-22 14:24:59 +0000
p2
s."
EndChar

StartChar: semicolon
Encoding: 59 59 359
GlifName: semicolon
Width: 575
VWidth: 0
Flags: HW
LayerCount: 2
Fore
SplineSet
238 520 m 257
 338 520 l 257
 358 520 373 506 373 485 c 257
 373 395 l 257
 373 375 358 360 338 360 c 257
 238 360 l 257
 218 360 203 375 203 395 c 257
 203 485 l 257
 203 506 217 520 238 520 c 257
238 160 m 257
 338 160 l 257
 358 160 373 146 373 125 c 257
 373 8 l 257
 373 -175 301 -247 118 -247 c 257
 98 -247 83 -233 83 -213 c 257
 83 -186 l 257
 83 -166 97 -151 117 -151 c 257
 226 -151 267 -111 268 0 c 257
 238 0 l 257
 218 0 203 15 203 35 c 257
 203 125 l 257
 203 146 217 160 238 160 c 257
EndSplineSet
PickledDataWithLists: "(dp0
Vcom.schriftgestaltung.Glyphs.lastChange
p1
V2015-12-23 09:18:29 +0000
p2
sVcom.typemytype.robofont.layerData
p3
(dp4
Vbackground
p5
(dp6
Vanchors
p7
(lp8
sVcomponents
p9
(lp10
sVcontours
p11
(lp12
(dp13
Vpoints
p14
(lp15
(dp16
VsegmentType
p17
Vline
p18
sVsmooth
p19
I01
sVx
p20
I238
sVy
p21
I500
sa(dp22
g19
I00
sg20
I221
sg21
I500
sa(dp23
g19
I00
sg20
I213
sg21
I492
sa(dp24
g17
Vcurve
p25
sg19
I01
sg20
I213
sg21
I475
sa(dp26
g17
Vline
p27
sg19
I01
sg20
I213
sg21
I385
sa(dp28
g19
I00
sg20
I213
sg21
I369
sa(dp29
g19
I00
sg20
I222
sg21
I360
sa(dp30
g17
Vcurve
p31
sg19
I01
sg20
I238
sg21
I360
sa(dp32
g17
Vline
p33
sg19
I01
sg20
I338
sg21
I360
sa(dp34
g19
I00
sg20
I354
sg21
I360
sa(dp35
g19
I00
sg20
I363
sg21
I369
sa(dp36
g17
Vcurve
p37
sg19
I01
sg20
I363
sg21
I385
sa(dp38
g17
Vline
p39
sg19
I01
sg20
I363
sg21
I475
sa(dp40
g19
I00
sg20
I363
sg21
I492
sa(dp41
g19
I00
sg20
I354
sg21
I500
sa(dp42
g17
Vcurve
p43
sg19
I01
sg20
I338
sg21
I500
sasa(dp44
g14
(lp45
(dp46
g17
Vline
p47
sg19
I01
sg20
I238
sg21
I140
sa(dp48
g19
I00
sg20
I221
sg21
I140
sa(dp49
g19
I00
sg20
I213
sg21
I132
sa(dp50
g17
Vcurve
p51
sg19
I01
sg20
I213
sg21
I115
sa(dp52
g17
Vline
p53
sg19
I01
sg20
I213
sg21
I25
sa(dp54
g19
I00
sg20
I213
sg21
I9
sa(dp55
g19
I00
sg20
I222
sg21
I0
sa(dp56
g17
Vcurve
p57
sg19
I01
sg20
I238
sg21
I0
sa(dp58
g17
Vline
p59
sg19
I00
sg20
I278
sg21
I0
sa(dp60
g19
I00
sg20
I279
sg21
I-125
sa(dp61
g19
I00
sg20
I236
sg21
I-171
sa(dp62
g17
Vcurve
p63
sg19
I01
sg20
I117
sg21
I-171
sa(dp64
g19
I00
sg20
I101
sg21
I-171
sa(dp65
g19
I00
sg20
I93
sg21
I-180
sa(dp66
g17
Vcurve
p67
sg19
I01
sg20
I93
sg21
I-196
sa(dp68
g17
Vline
p69
sg19
I01
sg20
I93
sg21
I-223
sa(dp70
g19
I00
sg20
I93
sg21
I-239
sa(dp71
g19
I00
sg20
I102
sg21
I-247
sa(dp72
g17
Vcurve
p73
sg19
I01
sg20
I118
sg21
I-247
sa(dp74
g19
I00
sg20
I297
sg21
I-247
sa(dp75
g19
I00
sg20
I363
sg21
I-181
sa(dp76
g17
Vcurve
p77
sg19
I01
sg20
I363
sg21
I-2
sa(dp78
g17
Vline
p79
sg19
I01
sg20
I363
sg21
I115
sa(dp80
g19
I00
sg20
I363
sg21
I132
sa(dp81
g19
I00
sg20
I354
sg21
I140
sa(dp82
g17
Vcurve
p83
sg19
I01
sg20
I338
sg21
I140
sasasVlib
p84
(dp85
sVname
p86
Vsemicolon
p87
sVunicodes
p88
(lp89
sVwidth
p90
I575
sss."
EndChar

StartChar: seven
Encoding: 55 55 360
GlifName: seven
Width: 575
VWidth: 0
Flags: HW
LayerCount: 2
Fore
SplineSet
110 720 m 257
 491 720 l 257
 511 720 525 706 525 686 c 257
 525 636 l 257
 525 581 512 534 479 470 c 257
 381 285 l 257
 335 197 312 113 312 34 c 257
 312 14 297 0 276 0 c 257
 242 0 l 257
 221 0 207 14 207 34 c 257
 207 116 236 216 290 326 c 257
 380 506 l 257
 407 560 418 592 420 624 c 257
 180 624 l 257
 180 528 l 257
 180 507 166 493 145 493 c 257
 110 493 l 257
 90 493 75 508 75 528 c 257
 75 685 l 257
 75 706 90 720 110 720 c 257
EndSplineSet
PickledDataWithLists: "(dp0
Vcom.schriftgestaltung.Glyphs.lastChange
p1
V2015-12-22 20:52:37 +0000
p2
s."
EndChar

StartChar: seven.dnom
Encoding: 65576 -1 361
GlifName: seven.dnom
Width: 250
VWidth: 0
Flags: HW
LayerCount: 2
Fore
SplineSet
55 360 m 257
 246 360 l 257
 260 360 270 350 270 338 c 257
 270 313 l 257
 270 285 263 261 246 228 c 257
 197 135 l 257
 174 93 163 51 163 12 c 257
 163 0 153 -10 138 -10 c 257
 121 -10 l 257
 107 -10 97 0 97 12 c 257
 97 54 112 104 139 160 c 257
 184 250 l 257
 196 273 201 288 202 302 c 257
 97 302 l 257
 97 259 l 257
 97 247 87 237 73 237 c 257
 55 237 l 257
 41 237 31 247 31 259 c 257
 31 338 l 257
 31 350 41 360 55 360 c 257
EndSplineSet
PickledDataWithLists: "(dp0
Vcom.schriftgestaltung.Glyphs.Export
p1
I00
sVcom.schriftgestaltung.Glyphs.lastChange
p2
V2015-12-22 13:07:01 +0000
p3
s."
EndChar

StartChar: seven.hex
Encoding: 65577 -1 362
GlifName: seven.hex
Width: 575
VWidth: 0
Flags: HW
LayerCount: 2
Fore
SplineSet
258 875 m 258
 258 829 l 258
 258 812 249 804 233 804 c 258
 198 804 l 258
 181 804 173 813 173 829 c 258
 173 875 l 258
 173 891 182 900 198 900 c 258
 233 900 l 258
 249 900 258 891 258 875 c 258
402 875 m 258
 402 829 l 258
 402 812 393 804 377 804 c 258
 342 804 l 258
 325 804 317 813 317 829 c 258
 317 875 l 258
 317 891 326 900 342 900 c 258
 377 900 l 258
 393 900 402 891 402 875 c 258
546 875 m 258
 546 829 l 258
 546 812 537 804 521 804 c 258
 486 804 l 258
 469 804 461 813 461 829 c 258
 461 875 l 258
 461 891 470 900 486 900 c 258
 521 900 l 258
 537 900 546 891 546 875 c 258
EndSplineSet
Refer: 360 55 N 1 0 0 1 0 0 2
PickledDataWithLists: "(dp0
Vcom.schriftgestaltung.Glyphs.lastChange
p1
V2016-02-10 13:21:27 +0000
p2
s."
EndChar

StartChar: shade
Encoding: 9618 9618 365
GlifName: shade
Width: 575
VWidth: 0
Flags: HW
LayerCount: 2
Fore
SplineSet
0 -250 m 257
 0 -194 l 257
 28 -250 l 257
 0 -250 l 257
143 -250 m 257
 0 36 l 257
 0 92 l 257
 171 -250 l 257
 143 -250 l 257
286 -250 m 257
 0 322 l 257
 0 378 l 257
 314 -250 l 257
 286 -250 l 257
429 -250 m 257
 0 608 l 257
 0 664 l 257
 457 -250 l 257
 429 -250 l 257
575 -250 m 257
 0 900 l 257
 28 900 l 257
 575 -194 l 257
 575 -250 l 257
575 36 m 257
 143 900 l 257
 171 900 l 257
 575 92 l 257
 575 36 l 257
575 322 m 257
 286 900 l 257
 314 900 l 257
 575 378 l 257
 575 322 l 257
575 608 m 257
 429 900 l 257
 457 900 l 257
 575 664 l 257
 575 608 l 257
EndSplineSet
PickledDataWithLists: "(dp0
Vcom.schriftgestaltung.Glyphs.lastChange
p1
V2016-06-10 08:26:49 +0000
p2
s."
EndChar

StartChar: sigma
Encoding: 963 963 366
GlifName: sigma
Width: 575
VWidth: 0
Flags: HW
LayerCount: 2
Fore
SplineSet
505 423 m 258
 474 423 l 257
 504 365 520 306 520 251 c 256
 520 76 439 -15 285 -15 c 256
 144 -15 55 92 55 263 c 256
 55 427 149 520 315 520 c 258
 505 520 l 258
 526 520 540 506 540 485 c 258
 540 458 l 258
 540 437 526 423 505 423 c 258
363 423 m 257
 315 423 l 258
 213 423 160 368 160 263 c 256
 160 151 208 82 285 82 c 256
 372 82 415 138 415 253 c 256
 415 308 398 366 363 423 c 257
EndSplineSet
PickledDataWithLists: "(dp0
Vcom.schriftgestaltung.Glyphs.lastChange
p1
V2015-12-22 12:47:01 +0000
p2
s."
EndChar

StartChar: six
Encoding: 54 54 367
GlifName: six
Width: 575
VWidth: 0
Flags: HW
LayerCount: 2
Fore
SplineSet
445 680 m 258
 439 651 l 257
 433 631 418 621 397 625 c 256
 372 630 350 632 332 632 c 256
 234 632 173 561 156 406 c 257
 209 442 248 449 285 449 c 256
 414 449 506 358 506 230 c 256
 506 84 418 -10 283 -10 c 256
 127 -10 43 111 43 336 c 256
 43 581 151 730 330 730 c 256
 354 730 385 727 417 722 c 256
 438 718 449 702 445 680 c 258
149 321 m 257
 150 172 200 88 286 88 c 256
 356 88 400 143 400 230 c 256
 400 305 354 351 281 351 c 256
 254 351 207 349 149 321 c 257
  PathStart: -2
EndSplineSet
PickledDataWithLists: "(dp0
Vcom.schriftgestaltung.Glyphs.lastChange
p1
V2015-12-22 20:52:27 +0000
p2
s."
EndChar

StartChar: six.dnom
Encoding: 65579 -1 368
GlifName: six.dnom
Width: 250
VWidth: 0
Flags: HW
LayerCount: 2
Fore
SplineSet
231 334 m 257
 228 319 l 257
 225 310 212 300 198 303 c 257
 185 305 175 306 164 306 c 256
 124 306 93 286 85 200 c 257
 107 206 131 210 152 210 c 256
 218 210 261 167 261 103 c 256
 261 29 219 -15 143 -15 c 256
 60 -15 16 45 16 150 c 256
 16 315 82 365 164 365 c 256
 178 365 195 364 210 361 c 257
 225 359 232 345 231 334 c 257
83 137 m 257
 85 68 106 44 143 44 c 256
 180 44 194 58 194 103 c 256
 194 133 178 151 152 151 c 256
 131 151 109 146 83 137 c 257
  PathStart: -2
EndSplineSet
PickledDataWithLists: "(dp0
Vcom.schriftgestaltung.Glyphs.Export
p1
I00
sVcom.schriftgestaltung.Glyphs.lastChange
p2
V2015-12-22 13:06:37 +0000
p3
s."
EndChar

StartChar: six.hex
Encoding: 65580 -1 369
GlifName: six.hex
Width: 575
VWidth: 0
Flags: HW
LayerCount: 2
Fore
SplineSet
258 875 m 258
 258 829 l 258
 258 812 249 804 233 804 c 258
 198 804 l 258
 181 804 173 813 173 829 c 258
 173 875 l 258
 173 891 182 900 198 900 c 258
 233 900 l 258
 249 900 258 891 258 875 c 258
402 875 m 258
 402 829 l 258
 402 812 393 804 377 804 c 258
 342 804 l 258
 325 804 317 813 317 829 c 258
 317 875 l 258
 317 891 326 900 342 900 c 258
 377 900 l 258
 393 900 402 891 402 875 c 258
EndSplineSet
Refer: 367 54 N 1 0 0 1 0 0 2
PickledDataWithLists: "(dp0
Vcom.schriftgestaltung.Glyphs.lastChange
p1
V2016-02-10 13:21:08 +0000
p2
s."
EndChar

StartChar: sterling
Encoding: 163 163 373
GlifName: sterling
Width: 575
VWidth: 0
Flags: HW
LayerCount: 2
Fore
SplineSet
465 518 m 257
 430 518 l 257
 410 518 395 533 395 554 c 257
 394 596 377 634 327 634 c 257
 288 634 259 604 259 548 c 257
 259 409 l 257
 425 409 l 257
 445 409 460 394 460 374 c 257
 460 347 l 257
 460 327 445 312 425 312 c 257
 259 312 l 257
 259 97 l 257
 465 97 l 257
 486 97 500 82 500 62 c 257
 500 35 l 257
 500 15 486 0 465 0 c 257
 110 0 l 257
 90 0 75 15 75 35 c 257
 75 62 l 257
 75 82 90 97 110 97 c 257
 154 97 l 257
 154 312 l 257
 110 312 l 257
 90 312 75 327 75 347 c 257
 75 373 l 257
 75 394 90 409 110 409 c 257
 154 409 l 257
 154 548 l 257
 154 679 232 730 327 730 c 257
 453 730 499 644 500 554 c 257
 500 533 485 518 465 518 c 257
EndSplineSet
PickledDataWithLists: "(dp0
Vcom.schriftgestaltung.Glyphs.lastChange
p1
V2015-12-22 14:04:47 +0000
p2
s."
EndChar

StartChar: summation
Encoding: 8721 8721 374
GlifName: summation
Width: 575
VWidth: 0
Flags: HW
LayerCount: 2
Fore
SplineSet
535 684 m 258
 535 657 l 258
 535 637 520 622 500 622 c 258
 197 622 l 257
 436 384 l 258
 451 370 451 350 436 335 c 258
 197 97 l 257
 500 97 l 258
 520 97 535 82 535 62 c 258
 535 35 l 258
 535 15 520 0 500 0 c 258
 77 0 l 258
 57 0 42 15 42 36 c 258
 42 53 l 258
 42 68 45 80 53 90 c 257
 54 90 l 257
 323 359 l 257
 54 629 l 257
 53 629 l 257
 45 639 42 651 42 666 c 258
 42 683 l 258
 42 704 57 719 77 719 c 258
 500 719 l 258
 520 719 535 704 535 684 c 258
EndSplineSet
PickledDataWithLists: "(dp0
Vcom.schriftgestaltung.Glyphs.lastChange
p1
V2015-12-22 12:21:09 +0000
p2
s."
EndChar

StartChar: t
Encoding: 116 116 375
GlifName: t
Width: 575
VWidth: 0
Flags: HW
AnchorPoint: "bottom" 288 0 basechar 0
AnchorPoint: "top" 288 520 basechar 0
AnchorPoint: "topright" 555 520 basechar 0
AnchorPoint: "center" 288 250 basechar 0
LayerCount: 2
Fore
SplineSet
485 82 m 257
 496 56 l 257
 504 37 497 17 476 11 c 257
 443 -2 404 -10 368 -10 c 257
 270 -10 176 47 176 214 c 257
 176 424 l 257
 110 424 l 257
 90 424 75 439 75 459 c 257
 75 485 l 257
 75 506 90 520 110 520 c 257
 176 520 l 257
 176 645 l 257
 176 665 191 680 211 680 c 257
 246 680 l 257
 266 680 281 665 281 645 c 257
 281 520 l 257
 435 520 l 257
 455 520 470 506 470 485 c 257
 470 459 l 257
 470 439 455 424 435 424 c 257
 281 424 l 257
 281 214 l 257
 281 113 315 88 368 88 c 257
 392 88 413 92 439 101 c 257
 458 109 477 101 485 82 c 257
EndSplineSet
PickledDataWithLists: "(dp0
Vcom.schriftgestaltung.Glyphs.lastChange
p1
V2016-06-09 18:35:34 +0000
p2
s."
EndChar

StartChar: tau
Encoding: 964 964 376
GlifName: tau
Width: 575
VWidth: 0
Flags: HW
LayerCount: 2
Fore
SplineSet
524 44 m 257
 523 45 l 257
 532 24 522 6 499 0 c 256
 461 -9 429 -10 409 -10 c 256
 290 -10 235 44 235 160 c 258
 235 424 l 257
 95 424 l 258
 73 424 60 437 60 459 c 258
 60 485 l 258
 60 507 73 520 95 520 c 258
 480 520 l 258
 502 520 515 507 515 485 c 258
 515 459 l 258
 515 437 503 424 481 423 c 257
 340 423 l 257
 340 160 l 258
 340 105 356 88 409 87 c 256
 432 87 453 89 472 94 c 257
 493 98 508 90 515 71 c 257
 516 70 l 257
 524 44 l 257
EndSplineSet
PickledDataWithLists: "(dp0
Vcom.schriftgestaltung.Glyphs.lastChange
p1
V2016-05-30 08:33:06 +0000
p2
s."
EndChar

StartChar: tbar
Encoding: 359 359 377
GlifName: tbar
Width: 575
VWidth: 0
Flags: HW
LayerCount: 2
Fore
SplineSet
485 82 m 257
 496 56 l 258
 505 35 497 17 476 11 c 257
 440 -3 402 -10 368 -10 c 256
 245 -10 176 71 176 214 c 258
 176 224 l 257
 110 224 l 258
 89 224 75 238 75 259 c 258
 75 285 l 258
 75 307 88 320 110 320 c 258
 176 320 l 257
 176 424 l 257
 110 424 l 258
 89 424 75 438 75 459 c 258
 75 485 l 258
 75 507 88 520 110 520 c 258
 176 520 l 257
 176 645 l 258
 176 666 190 680 211 680 c 258
 246 680 l 258
 267 680 281 666 281 645 c 258
 281 520 l 257
 435 520 l 258
 457 520 470 507 470 485 c 258
 470 459 l 258
 470 438 456 424 435 424 c 258
 281 424 l 257
 281 320 l 257
 435 320 l 258
 457 320 470 307 470 285 c 258
 470 259 l 258
 470 238 456 224 435 224 c 258
 281 224 l 257
 281 214 l 258
 281 124 306 88 368 88 c 256
 393 88 415 92 439 101 c 256
 459 109 476 102 485 82 c 257
EndSplineSet
PickledDataWithLists: "(dp0
Vcom.schriftgestaltung.Glyphs.lastChange
p1
V2016-06-09 18:35:34 +0000
p2
s."
EndChar

StartChar: therefore
Encoding: 8756 8756 379
GlifName: therefore
Width: 575
VWidth: 0
Flags: HW
LayerCount: 2
Fore
SplineSet
60 96 m 258
 60 183 l 258
 60 204 74 218 95 218 c 258
 200 218 l 258
 222 218 235 205 235 183 c 258
 235 96 l 258
 235 74 222 61 200 61 c 258
 95 61 l 258
 73 61 60 74 60 96 c 258
340 96 m 258
 340 183 l 258
 340 204 354 218 375 218 c 258
 480 218 l 258
 502 218 515 205 515 183 c 258
 515 96 l 258
 515 74 502 61 480 61 c 258
 375 61 l 258
 353 61 340 74 340 96 c 258
200 398 m 258
 200 485 l 258
 200 507 213 520 235 520 c 258
 340 520 l 258
 362 520 375 507 375 485 c 258
 375 398 l 258
 375 376 362 363 340 363 c 258
 235 363 l 258
 214 363 200 377 200 398 c 258
EndSplineSet
PickledDataWithLists: "(dp0
Vcom.schriftgestaltung.Glyphs.lastChange
p1
V2015-12-22 14:20:54 +0000
p2
s."
EndChar

StartChar: theta
Encoding: 952 952 380
GlifName: theta
Width: 575
VWidth: 0
Flags: HW
LayerCount: 2
Fore
SplineSet
75 360 m 256
 75 603 147 730 288 730 c 256
 429 730 500 603 500 360 c 256
 500 117 429 -10 288 -10 c 256
 147 -10 75 117 75 360 c 256
  PathStart: -2
181 409 m 257
 394 409 l 257
 388 558 351 634 288 634 c 256
 224 634 187 558 181 409 c 257
394 311 m 257
 181 311 l 257
 187 163 224 87 288 87 c 256
 351 87 388 163 394 311 c 257
EndSplineSet
PickledDataWithLists: "(dp0
Vcom.schriftgestaltung.Glyphs.lastChange
p1
V2015-12-22 16:32:52 +0000
p2
s."
EndChar

StartChar: thorn
Encoding: 254 254 381
GlifName: thorn
Width: 575
VWidth: 0
Flags: HW
AnchorPoint: "top" 288 570 basechar 0
AnchorPoint: "bottom" 288 0 basechar 0
LayerCount: 2
Fore
SplineSet
180 686 m 257
 180 528 l 257
 212 531 239 532 259 532 c 257
 430 532 500 451 500 262 c 257
 500 73 431 -8 259 -8 c 257
 241 -8 213 -7 180 -5 c 257
 180 -164 l 257
 180 -184 167 -200 146 -200 c 257
 111 -200 l 257
 92 -200 75 -188 75 -166 c 257
 75 684 l 257
 75 702 88 720 109 720 c 257
 144 720 l 257
 164 720 180 708 180 686 c 257
180 433 m 257
 180 91 l 257
 213 89 241 88 259 88 c 257
 364 88 395 132 395 262 c 257
 395 389 365 435 259 435 c 257
 242 435 214 435 180 433 c 257
EndSplineSet
PickledDataWithLists: "(dp0
Vcom.schriftgestaltung.Glyphs.lastChange
p1
V2016-06-09 18:35:34 +0000
p2
s."
EndChar

StartChar: three
Encoding: 51 51 382
GlifName: three
Width: 575
VWidth: 0
Flags: HW
LayerCount: 2
Fore
SplineSet
113 644 m 258
 105 672 l 258
 100 694 109 711 130 716 c 256
 167 725 207 730 248 730 c 256
 399 730 490 659 490 541 c 256
 490 470 457 417 387 375 c 257
 458 335 500 266 500 187 c 256
 500 66 399 -10 243 -10 c 256
 200 -10 158 -5 120 4 c 256
 99 9 90 26 95 48 c 258
 103 76 l 258
 109 96 125 104 146 99 c 256
 177 92 210 88 243 88 c 256
 345 88 394 125 394 199 c 256
 394 273 335 324 250 324 c 258
 199 324 l 258
 178 324 164 338 164 359 c 258
 164 386 l 258
 164 407 178 421 199 421 c 258
 250 421 l 258
 336 421 384 462 384 536 c 256
 384 603 343 632 248 632 c 256
 217 632 187 628 156 621 c 256
 135 616 119 624 113 644 c 258
EndSplineSet
PickledDataWithLists: "(dp0
Vcom.schriftgestaltung.Glyphs.lastChange
p1
V2015-12-22 20:51:58 +0000
p2
s."
EndChar

StartChar: three.dnom
Encoding: 65582 -1 383
GlifName: three.dnom
Width: 250
VWidth: 0
Flags: HW
LayerCount: 2
Fore
SplineSet
50 316 m 257
 46 330 l 257
 44 340 48 354 63 358 c 257
 81 363 103 365 124 365 c 257
 186 365 252 338 252 263 c 257
 252 222 239 193 208 175 c 257
 240 158 257 129 257 92 c 257
 257 13 186 -15 122 -15 c 257
 100 -15 78 -13 58 -8 c 257
 43 -4 39 10 41 21 c 257
 45 35 l 257
 48 45 62 53 75 50 c 257
 90 46 105 44 122 44 c 257
 166 44 190 56 190 92 c 257
 190 126 163 147 125 147 c 257
 100 147 l 257
 86 147 75 158 75 170 c 257
 75 183 l 257
 75 195 86 206 100 206 c 257
 125 206 l 257
 162 206 185 228 185 263 c 257
 185 294 164 306 124 306 c 257
 109 306 94 304 79 301 c 257
 80 301 l 257
 68 298 53 304 50 316 c 257
EndSplineSet
PickledDataWithLists: "(dp0
Vcom.schriftgestaltung.Glyphs.Export
p1
I00
sVcom.schriftgestaltung.Glyphs.lastChange
p2
V2015-12-22 13:05:35 +0000
p3
s."
EndChar

StartChar: three.hex
Encoding: 65583 -1 384
GlifName: three.hex
Width: 575
VWidth: 0
Flags: HW
LayerCount: 2
Fore
SplineSet
402 875 m 258
 402 829 l 258
 402 812 394 804 377 804 c 258
 342 804 l 258
 326 804 317 813 317 829 c 258
 317 875 l 258
 317 891 326 900 342 900 c 258
 377 900 l 258
 394 900 402 891 402 875 c 258
546 875 m 258
 546 829 l 258
 546 812 537 804 521 804 c 258
 486 804 l 258
 469 804 461 813 461 829 c 258
 461 875 l 258
 461 891 470 900 486 900 c 258
 521 900 l 258
 537 900 546 891 546 875 c 258
EndSplineSet
Refer: 382 51 N 1 0 0 1 0 0 2
PickledDataWithLists: "(dp0
Vcom.schriftgestaltung.Glyphs.lastChange
p1
V2016-02-10 13:19:26 +0000
p2
s."
EndChar

StartChar: tilde
Encoding: 732 732 388
GlifName: tilde
Width: 575
VWidth: 0
Flags: HW
AnchorPoint: "top" 288 500 mark 0
LayerCount: 2
Fore
SplineSet
121 585 m 258
 108 594 l 258
 94 603 92 615 102 629 c 256
 136 673 175 698 214 698 c 256
 238 698 271 685 307 661 c 256
 330 646 351 638 368 638 c 256
 387 638 405 647 420 664 c 257
 430 676 442 678 455 670 c 258
 468 661 l 258
 482 651 484 639 473 626 c 256
 439 581 399 557 361 557 c 256
 338 557 305 570 269 593 c 256
 245 608 221 616 203 616 c 256
 187 616 171 607 156 591 c 256
 146 579 133 577 121 585 c 258
EndSplineSet
PickledDataWithLists: "(dp0
Vcom.schriftgestaltung.Glyphs.lastChange
p1
V2015-12-22 16:32:44 +0000
p2
s."
EndChar

StartChar: trademark
Encoding: 8482 8482 389
GlifName: trademark
Width: 575
VWidth: 0
Flags: HW
LayerCount: 2
Fore
SplineSet
407 545 m 257
 462 694 l 257
 466 704 474 713 486 718 c 256
 492 721 500 722 512 722 c 256
 528 722 538 710 538 696 c 258
 538 381 l 257
 538 367 528 355 513 355 c 258
 492 355 l 258
 478 355 466 365 466 377 c 256
 466 418 467 486 467 549 c 257
 454 518 l 258
 444 494 423 478 400 478 c 256
 375 478 353 494 343 518 c 258
 332 544 l 257
 333 490 334 426 334 377 c 256
 334 366 323 355 308 355 c 258
 287 355 l 258
 273 355 261 367 261 381 c 258
 261 696 l 258
 261 710 273 722 288 722 c 256
 301 722 307 721 315 718 c 257
 326 712 334 703 337 693 c 257
 393 545 l 257
 396 539 397 538 400 538 c 256
 403 538 404 539 407 545 c 257
48 719 m 258
 211 719 l 258
 225 719 237 709 237 694 c 258
 237 677 l 258
 237 663 225 651 211 651 c 258
 166 651 l 257
 166 381 l 258
 166 367 156 355 140 355 c 258
 119 355 l 258
 103 355 93 367 93 381 c 258
 93 651 l 257
 48 651 l 258
 33 651 23 663 23 677 c 258
 23 694 l 258
 23 707 33 719 48 719 c 258
EndSplineSet
PickledDataWithLists: "(dp0
Vcom.schriftgestaltung.Glyphs.lastChange
p1
V2015-12-22 14:25:18 +0000
p2
s."
EndChar

StartChar: two
Encoding: 50 50 390
GlifName: two
Width: 575
VWidth: 0
Flags: HW
LayerCount: 2
Fore
SplineSet
182 97 m 257
 489 97 l 257
 509 97 524 82 524 62 c 257
 524 34 l 257
 524 14 509 -1 489 -1 c 257
 109 -1 l 257
 89 -1 74 14 74 34 c 257
 74 58 l 257
 74 198 183 274 253 327 c 257
 337 393 400 444 400 524 c 257
 400 600 349 632 265 632 c 257
 225 632 188 624 143 608 c 257
 123 602 105 611 98 630 c 257
 89 655 l 257
 81 674 90 693 108 700 c 257
 157 719 213 730 265 730 c 257
 389 730 506 669 506 524 c 257
 506 396 406 319 318 250 c 257
 252 199 194 154 182 97 c 257
EndSplineSet
PickledDataWithLists: "(dp0
Vcom.schriftgestaltung.Glyphs.lastChange
p1
V2015-12-22 20:51:50 +0000
p2
s."
EndChar

StartChar: two.dnom
Encoding: 65585 -1 391
GlifName: two.dnom
Width: 250
VWidth: 0
Flags: HW
LayerCount: 2
Fore
SplineSet
100 49 m 257
 245 49 l 258
 259 49 269 37 269 26 c 258
 269 12 l 258
 269 1 259 -11 245 -11 c 258
 55 -11 l 258
 41 -11 30 0 30 12 c 258
 30 24 l 258
 30 97 87 136 123 163 c 256
 164 195 193 219 193 257 c 256
 193 292 171 306 133 306 c 256
 113 306 97 302 74 295 c 257
 62 291 47 297 43 308 c 258
 38 321 l 257
 33 332 40 345 52 350 c 257
 76 360 106 365 133 365 c 256
 197 365 260 333 260 257 c 256
 260 192 208 152 163 116 c 256
 133 93 108 73 100 49 c 257
EndSplineSet
PickledDataWithLists: "(dp0
Vcom.schriftgestaltung.Glyphs.Export
p1
I00
sVcom.schriftgestaltung.Glyphs.lastChange
p2
V2015-12-22 13:05:14 +0000
p3
s."
EndChar

StartChar: two.hex
Encoding: 65586 -1 392
GlifName: two.hex
Width: 575
VWidth: 0
Flags: HW
LayerCount: 2
Fore
SplineSet
402 875 m 258
 402 829 l 258
 402 812 394 804 377 804 c 258
 342 804 l 258
 326 804 317 813 317 829 c 258
 317 875 l 258
 317 891 326 900 342 900 c 258
 377 900 l 258
 394 900 402 891 402 875 c 258
EndSplineSet
Refer: 390 50 N 1 0 0 1 0 0 2
PickledDataWithLists: "(dp0
Vcom.schriftgestaltung.Glyphs.lastChange
p1
V2016-05-30 08:38:37 +0000
p2
s."
EndChar

StartChar: u
Encoding: 117 117 395
GlifName: u
Width: 575
VWidth: 0
Flags: HW
AnchorPoint: "ogonek" 518 5 basechar 0
AnchorPoint: "bottom" 287 -50 basechar 0
AnchorPoint: "top" 288 570 basechar 0
LayerCount: 2
Fore
SplineSet
500 485 m 257
 500 39 l 257
 500 20 487 6 468 2 c 257
 395 -9 330 -10 297 -10 c 257
 145 -10 75 51 75 202 c 257
 75 485 l 257
 75 505 89 520 110 520 c 257
 145 520 l 257
 165 520 180 505 180 485 c 257
 180 202 l 257
 180 115 212 86 297 86 c 257
 319 86 354 87 395 89 c 257
 395 485 l 257
 395 505 409 520 430 520 c 257
 465 520 l 257
 485 520 500 505 500 485 c 257
EndSplineSet
PickledDataWithLists: "(dp0
Vcom.schriftgestaltung.Glyphs.lastChange
p1
V2016-06-09 18:35:34 +0000
p2
s."
EndChar

StartChar: underscore
Encoding: 95 95 403
GlifName: underscore
Width: 575
VWidth: 0
Flags: HW
LayerCount: 2
Fore
SplineSet
41 -62 m 257
 41 -35 l 257
 41 -15 56 0 76 0 c 257
 499 0 l 257
 519 0 534 -15 534 -35 c 257
 534 -62 l 257
 534 -82 520 -97 499 -97 c 257
 76 -97 l 257
 56 -97 41 -82 41 -62 c 257
EndSplineSet
PickledDataWithLists: "(dp0
Vcom.schriftgestaltung.Glyphs.lastChange
p1
V2015-12-23 09:18:36 +0000
p2
s."
EndChar

StartChar: mu
Encoding: 181 181 405
GlifName: uni00B_5
Width: 575
VWidth: 0
Flags: HW
LayerCount: 2
Fore
SplineSet
430 520 m 257
 465 520 l 257
 486 520 500 506 500 485 c 257
 500 40 l 257
 500 21 488 6 469 3 c 257
 395 -9 331 -10 298 -10 c 257
 249 -10 210 -2 180 14 c 257
 180 -203 l 257
 180 -223 165 -238 145 -238 c 257
 110 -238 l 257
 90 -238 75 -223 75 -203 c 257
 75 485 l 257
 75 506 90 520 110 520 c 257
 145 520 l 257
 166 520 180 505 180 485 c 257
 180 203 l 257
 180 116 212 87 298 87 c 257
 320 87 354 88 395 90 c 257
 395 485 l 257
 395 505 410 520 430 520 c 257
EndSplineSet
PickledDataWithLists: "(dp0
Vcom.schriftgestaltung.Glyphs.lastChange
p1
V2015-12-22 16:32:55 +0000
p2
s."
EndChar

StartChar: uni0237
Encoding: 567 567 408
GlifName: uni0237
Width: 575
VWidth: 0
Flags: HW
LayerCount: 2
Fore
SplineSet
125 520 m 257
 465 520 l 257
 485 520 500 505 500 485 c 257
 500 130 l 257
 500 -86 376 -160 247 -160 c 257
 195 -160 141 -150 93 -129 c 257
 74 -122 67 -102 75 -83 c 257
 85 -59 l 257
 92 -41 111 -32 129 -40 c 257
 173 -55 207 -62 247 -62 c 257
 331 -62 394 -19 394 130 c 257
 394 422 l 257
 125 422 l 257
 105 422 90 437 90 457 c 257
 90 485 l 257
 90 505 105 520 125 520 c 257
EndSplineSet
PickledDataWithLists: "(dp0
Vcom.schriftgestaltung.Glyphs.lastChange
p1
V2016-06-09 18:35:33 +0000
p2
s."
EndChar

StartChar: uni0394
Encoding: 916 916 409
GlifName: uni0394
Width: 575
VWidth: 0
Flags: HW
LayerCount: 2
Fore
SplineSet
390 634 m 258
 568 41 l 257
 574 18 561 0 537 0 c 258
 39 0 l 258
 14 0 1 18 7 41 c 257
 185 634 l 258
 203 694 242 732 287 732 c 256
 332 732 372 694 390 634 c 258
288 612 m 257
 129 95 l 257
 446 95 l 257
 288 612 l 257
EndSplineSet
PickledDataWithLists: "(dp0
Vcom.schriftgestaltung.Glyphs.lastChange
p1
V2015-12-22 12:15:12 +0000
p2
sVcom.typemytype.robofont.layerData
p3
(dp4
Vbackground
p5
(dp6
Vanchors
p7
(lp8
sVcomponents
p9
(lp10
sVcontours
p11
(lp12
(dp13
Vpoints
p14
(lp15
(dp16
VsegmentType
p17
Vline
p18
sVsmooth
p19
I01
sVx
p20
I380
sVy
p21
I621
sa(dp22
g19
I00
sg20
I362
sg21
I681
sa(dp23
g19
I00
sg20
I324
sg21
I712
sa(dp24
g17
Vcurve
p25
sg19
I01
sg20
I287
sg21
I712
sa(dp26
g19
I00
sg20
I250
sg21
I712
sa(dp27
g19
I00
sg20
I213
sg21
I682
sa(dp28
g17
Vcurve
p29
sg19
I01
sg20
I195
sg21
I621
sa(dp30
g17
Vline
p31
sg19
I01
sg20
I17
sg21
I28
sa(dp32
g19
I00
sg20
I12
sg21
I11
sa(dp33
g19
I00
sg20
I21
sg21
I0
sa(dp34
g17
Vcurve
p35
sg19
I00
sg20
I39
sg21
I0
sa(dp36
g17
Vline
p37
sg19
I00
sg20
I537
sg21
I0
sa(dp38
g19
I00
sg20
I554
sg21
I0
sa(dp39
g19
I00
sg20
I563
sg21
I11
sa(dp40
g17
Vcurve
p41
sg19
I00
sg20
I558
sg21
I28
sasa(dp42
g14
(lp43
(dp44
g17
Vline
p45
sg19
I01
sg20
I279
sg21
I607
sa(dp46
g19
I00
sg20
I285
sg21
I625
sa(dp47
g19
I00
sg20
I291
sg21
I625
sa(dp48
g17
Vcurve
p49
sg19
I01
sg20
I297
sg21
I607
sa(dp50
g17
Vline
p51
sg19
I00
sg20
F459.773
sg21
I75
sa(dp52
g17
Vline
p53
sg19
I00
sg20
F115.318
sg21
I75
sasasVlib
p54
(dp55
sVname
p56
Vuni0394
p57
sVunicodes
p58
(lp59
sVwidth
p60
I575
sss."
EndChar

StartChar: uni03A9
Encoding: 937 937 410
GlifName: uni03A_9
Width: 575
VWidth: 0
Flags: HW
LayerCount: 2
Fore
SplineSet
399 96 m 257
 488 96 l 258
 509 96 523 82 523 61 c 258
 523 35 l 258
 523 13 510 0 488 0 c 258
 339 0 l 258
 317 0 304 13 304 35 c 258
 304 157 l 258
 304 175 313 187 331 195 c 256
 373 214 395 267 395 353 c 258
 395 467 l 258
 395 579 359 634 288 634 c 256
 217 634 181 579 181 467 c 258
 181 353 l 258
 181 267 203 214 245 195 c 256
 263 187 272 175 272 157 c 258
 272 35 l 258
 272 13 259 0 237 0 c 258
 88 0 l 258
 66 0 53 13 53 35 c 258
 53 61 l 258
 53 82 67 96 88 96 c 258
 177 96 l 257
 177 124 l 257
 110 165 76 243 76 353 c 258
 76 467 l 258
 76 635 152 730 288 730 c 256
 424 730 500 635 500 467 c 258
 500 353 l 258
 500 243 466 165 399 124 c 257
 399 96 l 257
EndSplineSet
PickledDataWithLists: "(dp0
Vcom.schriftgestaltung.Glyphs.lastChange
p1
V2015-12-22 12:25:35 +0000
p2
s."
EndChar

StartChar: uni03BC
Encoding: 956 956 411
GlifName: uni03B_C_
Width: 575
VWidth: 0
Flags: HW
LayerCount: 2
Fore
SplineSet
430 520 m 258
 465 520 l 258
 486 520 500 506 500 485 c 258
 500 39 l 258
 500 20 489 6 468 2 c 257
 395 -9 330 -10 297 -10 c 256
 243 -10 207 -1 180 20 c 257
 180 -215 l 258
 180 -237 167 -250 145 -250 c 258
 110 -250 l 258
 89 -250 75 -236 75 -215 c 258
 75 485 l 258
 75 507 88 520 110 520 c 258
 145 520 l 258
 166 520 180 506 180 485 c 258
 180 202 l 258
 180 115 210 86 297 86 c 256
 319 86 354 87 395 89 c 257
 395 485 l 258
 395 507 408 520 430 520 c 258
EndSplineSet
PickledDataWithLists: "(dp0
Vcom.schriftgestaltung.Glyphs.lastChange
p1
V2015-12-22 12:42:40 +0000
p2
s."
EndChar

StartChar: afii10018
Encoding: 1041 1041 420
GlifName: uni0411
Width: 575
VWidth: 0
Flags: HW
LayerCount: 2
Fore
SplineSet
180 440 m 257
 245 440 l 258
 418 440 527 355 527 220 c 256
 527 86 417 0 245 0 c 258
 110 0 l 258
 89 0 75 14 75 35 c 258
 75 685 l 258
 75 706 89 720 110 720 c 258
 430 720 l 258
 451 720 465 706 465 685 c 258
 465 658 l 258
 465 637 451 623 430 623 c 258
 180 623 l 257
 180 440 l 257
180 96 m 257
 245 96 l 258
 356 96 422 142 422 220 c 256
 422 298 357 344 245 344 c 258
 180 344 l 257
 180 96 l 257
EndSplineSet
PickledDataWithLists: "(dp0
Vcom.schriftgestaltung.Glyphs.lastChange
p1
V2016-06-09 18:35:34 +0000
p2
s."
EndChar

StartChar: afii10020
Encoding: 1043 1043 422
GlifName: uni0413
Width: 575
VWidth: 0
Flags: HW
AnchorPoint: "top" 288 720 basechar 0
AnchorPoint: "bottomright" 555 0 basechar 0
LayerCount: 2
Fore
SplineSet
564 658 m 258
 564 637 550 623 529 623 c 258
 180 623 l 257
 180 35 l 258
 180 13 167 0 145 0 c 258
 110 0 l 258
 89 0 75 14 75 35 c 258
 75 685 l 258
 75 706 89 720 110 720 c 258
 529 720 l 258
 550 720 564 706 564 685 c 258
 564 658 l 258
  PathStart: -2
EndSplineSet
PickledDataWithLists: "(dp0
Vcom.schriftgestaltung.Glyphs.lastChange
p1
V2016-06-09 18:35:34 +0000
p2
s."
EndChar

